<?xml version="1.0" standalone="no"?>
<!DOCTYPE svg PUBLIC "-//W3C//DTD SVG 1.1//EN" "http://www.w3.org/Graphics/SVG/1.1/DTD/svg11.dtd" >
<svg xmlns="http://www.w3.org/2000/svg">
<metadata>
This is a custom SVG webfont generated by Font Squirrel.
Copyright   :  19922007 Apple Inc
</metadata>
<defs>
<font id="webfontjhu0lXRt" horiz-adv-x="1282" >
<font-face units-per-em="2048" ascent="1638" descent="-410" />
<missing-glyph horiz-adv-x="419" />
<glyph unicode=" "  horiz-adv-x="419" />
<glyph unicode="&#x09;" horiz-adv-x="419" />
<glyph unicode="&#xa0;" horiz-adv-x="419" />
<glyph unicode="!" horiz-adv-x="655" d="M541 1253l-158 -798q0 -14 -17.5 -20.5t-31.5 -6.5q-16 0 -32.5 5t-18.5 22l-156 798q-14 63 35 128t172 65q117 0 168 -66t39 -127zM502 127q0 -68 -50.5 -118t-117.5 -50q-68 0 -118 50t-50 118q0 72 48 120t120 48q68 0 118 -50t50 -118z" />
<glyph unicode="&#x22;" horiz-adv-x="913" d="M831 1278l-112 -457q-4 -8 -16.5 -15t-32.5 -7t-32.5 7t-14.5 15l-115 457q-14 53 25.5 110.5t136.5 57.5q98 0 136.5 -58.5t24.5 -109.5zM406 1278l-113 -457q-4 -8 -15.5 -15t-33.5 -7q-20 0 -32.5 7t-14.5 15l-115 457q-14 53 25.5 110.5t136.5 57.5q98 0 137 -58.5 t25 -109.5z" />
<glyph unicode="#" horiz-adv-x="1515" d="M1462 963q0 -29 -9 -50.5t-23 -21.5h-332l-111 -379h299q12 0 16.5 -26.5t4.5 -47.5q0 -25 -9.5 -48t-21.5 -23h-334l-119 -398q-4 -12 -30.5 -16t-49.5 -4t-47 4t-20 16l119 398h-287l-119 -398q-6 -12 -30.5 -16t-49.5 -4t-48 4t-21 16l120 398h-280q-12 0 -16.5 24.5 t-4.5 46.5q0 25 10.5 49.5t20.5 24.5h313l113 379h-280q-12 0 -16.5 24.5t-4.5 47.5t9 48t22 25h313l123 414q2 12 30.5 16t49.5 4q23 0 47.5 -5t19.5 -15l-122 -414h286l123 414q4 12 32 16t48 4q23 0 48.5 -5t21.5 -15l-125 -414h301q10 0 15 -24t5 -49zM950 891h-286 l-113 -379h289z" />
<glyph unicode="$" horiz-adv-x="1378" d="M1104 713q66 -57 105.5 -125t39.5 -166q0 -203 -138 -327t-361 -136l-7 -78q0 -12 -18 -15t-31 -3q-10 0 -29.5 5t-19.5 15l4 76q-125 8 -228.5 46t-207.5 56q-2 74 -2 197t-6 217q0 6 16.5 11.5t30.5 5.5t27.5 -4.5t15.5 -12.5q35 -162 140.5 -278.5t219.5 -137.5 l33 463l-150 90q-77 45 -143 101q-66 55 -106.5 121.5t-40.5 160.5q0 188 130 313.5t372 135.5l6 76q0 12 19.5 16t29.5 4q12 0 30.5 -5t18.5 -17l-4 -74q80 -4 141.5 -27.5t167.5 -44.5q2 -72 7 -183.5t14 -182.5q0 -6 -17.5 -11.5t-27.5 -5.5q-14 0 -28.5 4t-19.5 13 q-35 139 -96 225t-149 110l-4 -69q-4 -70 -11 -150q-4 -72 -9 -145l-5 -74l149 -89q89 -54 142 -101zM743 1343q-76 -10 -119.5 -59t-43.5 -117q0 -61 37.5 -109t101.5 -95zM922 250q0 66 -39 117t-101 96l-26 -404q94 14 130 63.5t36 127.5z" />
<glyph unicode="%" horiz-adv-x="2230" d="M2179 596q0 -113 -43 -229.5t-123 -204.5q-86 -94 -194.5 -149.5t-268.5 -55.5q-170 0 -267 95t-97 243q0 121 41 228.5t125 205.5q80 92 200.5 148.5t264.5 56.5q170 0 266 -96.5t96 -241.5zM1657 1415l-979 -1495q-6 -10 -23.5 -4t-31.5 16q-16 10 -28.5 23.5 t-6.5 24.5l831 1271q-78 -39 -145.5 -56t-138.5 -17q-23 0 -51.5 3t-47.5 7q2 -16 5 -38t3 -44q0 -113 -43 -229.5t-122 -204.5q-88 -96 -197 -150.5t-268 -54.5q-170 0 -266.5 95t-96.5 243q0 119 41 229.5t125 206.5q78 90 196.5 147.5t266.5 57.5q104 0 182 -38t123 -103 q45 -18 86 -24.5t80 -6.5q100 0 213 54t201 147q6 8 26.5 0.5t30.5 -13.5q12 -8 26.5 -23.5t8.5 -23.5zM1774 319q45 109 74.5 227t29.5 204q0 43 -15.5 64.5t-47.5 21.5q-55 0 -112.5 -72t-109.5 -191q-47 -111 -75.5 -231.5t-28.5 -200.5q0 -41 15.5 -63.5t47.5 -22.5 q57 0 117 77.5t105 186.5zM637 829q45 109 74.5 227t29.5 204v6q-33 18 -49 33.5t-28 46.5q-106 -18 -209 -272.5t-103 -420.5q0 -43 15.5 -65.5t48.5 -22.5q57 0 116.5 77.5t104.5 186.5z" />
<glyph unicode="&#x26;" horiz-adv-x="1814" d="M1755 860q0 -14 -5 -29.5t-11 -15.5q-113 -16 -157 -47t-103 -100l-258 -324q143 -160 201.5 -193.5t129.5 -33.5q49 0 80 18.5t58 48.5q2 2 8 -2t10 -6l10 -10q6 -6 8 -10q4 -8 10.5 -25.5t0.5 -21.5q-53 -68 -157.5 -112t-217.5 -44q-125 0 -217 33.5t-180 142.5 q-86 -90 -179.5 -131t-232.5 -41q-209 0 -349.5 107.5t-140.5 257.5q0 145 102.5 244.5t295.5 140.5q-63 57 -96 118.5t-33 124.5q0 147 121.5 252t326.5 105q160 0 236 -79t76 -161t-65.5 -157.5t-180.5 -141.5l313 -352q102 129 143 185t41 122q0 37 -25.5 58.5 t-162.5 33.5q-6 0 -11 16.5t-5 28.5t5 28.5t11 16.5q70 0 140.5 -6t164.5 -6q92 0 151.5 6t127.5 6q6 0 11 -15.5t5 -29.5zM934 1065q0 59 -26.5 101t-94.5 42t-100.5 -47t-32.5 -117q0 -55 27.5 -101t87.5 -112q80 53 109.5 118t29.5 116zM905 199l-391 444 q-51 -37 -72.5 -92t-21.5 -127q0 -135 80 -217t196 -82q66 0 117 18.5t92 55.5z" />
<glyph unicode="'" horiz-adv-x="532" d="M426 1278l-113 -457q-4 -8 -15 -15t-34 -7q-20 0 -32.5 7t-14.5 15l-115 457q-14 53 26 110.5t136 57.5q98 0 137 -58.5t25 -109.5z" />
<glyph unicode="(" horiz-adv-x="800" d="M774 -127q4 -4 0 -22.5t-8 -24.5q-6 -10 -18.5 -22.5t-18.5 -8.5q-260 162 -437 372t-177 509q0 293 170 500.5t444 382.5q6 4 19.5 -9.5t17.5 -21.5t9 -26.5t-1 -22.5q-156 -139 -216 -335t-60 -468q0 -281 58 -469.5t218 -333.5z" />
<glyph unicode=")" horiz-adv-x="800" d="M23 1481q-6 6 0 23l8 24q6 14 19 23.5t18 7.5q260 -162 437 -371t177 -510q0 -299 -177 -510t-437 -373q-6 -2 -18.5 9.5t-18.5 21.5q-4 8 -8.5 25.5t0.5 23.5q160 147 218 334.5t58 468.5q0 274 -58 467t-218 336z" />
<glyph unicode="*" horiz-adv-x="804" d="M731 946q0 -10 -3 -23.5t-9 -23.5q-16 -25 -35.5 -35t-38.5 -10q-12 0 -29.5 5t-31.5 13q-45 27 -77 80.5t-75 79.5q0 -49 32 -105.5t32 -105.5q0 -47 -23.5 -75.5t-69.5 -28.5q-43 0 -67.5 29.5t-24.5 74.5q0 49 32 105.5t32 105.5q-39 -20 -76 -79.5t-76 -80.5 q-16 -8 -31.5 -13t-29.5 -5q-23 0 -42.5 11.5t-33.5 33.5q-6 12 -9 24.5t-3 22.5q0 29 13 47.5t44 36.5q39 25 108.5 27t106.5 24q-43 25 -107.5 26t-107.5 26q-27 14 -42 37.5t-15 46.5q0 14 3 23t9 24q12 23 32.5 34t43.5 11q14 0 29.5 -4.5t31.5 -12.5q31 -18 76 -79.5 t76 -79.5q0 43 -32 105t-32 105q0 45 23.5 74t68.5 29q43 0 68 -28.5t25 -74.5q0 -47 -32 -107t-32 -103q33 20 74 78.5t78 80.5q12 8 28.5 12.5t32.5 4.5q23 0 41.5 -10.5t32.5 -34.5q6 -10 9 -22.5t3 -24.5q0 -27 -15.5 -49.5t-39.5 -34.5q-41 -20 -111.5 -26.5 t-103.5 -25.5q31 -18 107.5 -25t107.5 -26q29 -16 42 -35.5t13 -48.5z" />
<glyph unicode="+" horiz-adv-x="894" d="M823 453q0 -23 -7 -47.5t-19 -24.5h-279v-275q0 -12 -24.5 -19t-49.5 -7q-20 0 -45.5 7t-25.5 19v275h-275q-12 0 -19 24.5t-7 47.5t7 48t19 25h275v273q0 10 24.5 17t46.5 7q25 0 49.5 -6t24.5 -18v-273h279q12 0 19 -26.5t7 -46.5z" />
<glyph unicode="," horiz-adv-x="655" d="M530 72q0 -156 -84 -276t-225 -199q-6 -2 -19.5 7t-21.5 19t-14 25.5t0 19.5q70 47 120 96.5t50 151.5q0 25 -3 35t-11 10q-6 0 -13.5 -3t-17.5 -3q-59 0 -104.5 42t-45.5 132q0 76 52.5 138.5t134.5 62.5q92 0 147 -73.5t55 -184.5z" />
<glyph unicode="-" horiz-adv-x="843" d="M702 692q0 -41 -7 -64.5t-19 -23.5h-533q-12 0 -19 23.5t-7 64.5q0 39 7 63.5t19 24.5h533q12 0 19 -24.5t7 -63.5z" />
<glyph unicode="." horiz-adv-x="655" d="M514 143q0 -76 -54 -131t-132 -55q-76 0 -131.5 55.5t-55.5 130.5q0 76 55.5 131.5t131.5 55.5q78 0 132 -55.5t54 -131.5z" />
<glyph unicode="/" horiz-adv-x="628" d="M659 1460l-440 -1483q-6 -10 -30.5 -15t-49.5 -5q-27 0 -49 5t-18 15l440 1483q4 12 31.5 16.5t48.5 4.5q23 0 47 -5.5t20 -15.5z" />
<glyph unicode="0" horiz-adv-x="1259" d="M1171 461q0 -211 -138 -357.5t-404 -146.5t-405.5 145.5t-139.5 358.5q0 211 138 363.5t407 152.5q264 0 403 -151.5t139 -364.5zM799 461q0 197 -34 307.5t-136 110.5q-100 0 -136 -106.5t-36 -311.5q0 -195 33.5 -300.5t138.5 -105.5q102 0 136 105.5t34 300.5z" />
<glyph unicode="1" horiz-adv-x="974" d="M881 33q0 -10 -5.5 -27.5t-11.5 -17.5q-72 0 -185.5 6t-191.5 6q-74 0 -194.5 -6t-183.5 -6q-6 0 -11.5 17.5t-5.5 27.5q0 12 5 28.5t12 16.5q94 12 149 27.5t55 138.5v446q0 117 -60 136.5t-144 29.5q-6 0 -11.5 16.5t-5.5 28.5t5 28.5t12 16.5q72 0 186.5 -6t191.5 -6 q74 0 194 6t183 6q6 0 11.5 -15.5t5.5 -29.5t-5.5 -29.5t-11.5 -15.5q-82 -8 -142 -33.5t-60 -132.5v-446q0 -115 59 -136.5t143 -29.5q6 0 11.5 -15.5t5.5 -29.5z" />
<glyph unicode="2" horiz-adv-x="1058" d="M1001 332q-29 -55 -75.5 -164t-71.5 -180q-37 8 -122 10t-234 2q-162 0 -278 -2t-148 -8q-8 0 -16.5 14t-8.5 29q0 6 2 11t4 9q274 197 387 306.5t113 228.5q0 70 -40 115t-128 45q-78 0 -129 -41t-102 -97q-6 -4 -22.5 1t-27.5 14q-8 8 -16 21t-6 20q90 141 200.5 227 t270.5 86q156 0 248 -87t92 -212q0 -129 -110.5 -238.5t-362.5 -214.5l315 9q68 4 105 33.5t78 95.5q2 6 21 5t30 -8q10 -4 23 -14t9 -16z" />
<glyph unicode="3" horiz-adv-x="1021" d="M930 33q0 -197 -197.5 -344.5t-445.5 -147.5q-133 0 -209 46t-76 124q0 59 44 100.5t110 41.5q53 0 82.5 -35t44.5 -70q14 -33 35.5 -68.5t48.5 -35.5q104 0 159.5 92t55.5 274q0 96 -38 167t-134 71q-53 0 -83 -11.5t-67 -33.5q-6 -2 -18.5 8t-20.5 25q-6 10 -8 26.5 t4 20.5q131 66 209 163t78 183q0 63 -34 105t-101 42q-63 0 -110.5 -31.5t-102.5 -91.5q-6 -4 -22.5 1t-27.5 14q-8 8 -16 21t-6 20q92 131 201.5 199.5t236.5 68.5q147 0 236.5 -89t89.5 -196q0 -119 -75 -194.5t-226 -126.5q195 0 289 -99.5t94 -238.5z" />
<glyph unicode="4" horiz-adv-x="1224" d="M1153 74q0 -23 -6 -48.5t-19 -25.5h-225v-418q0 -18 -43 -29.5t-131 -11.5q-86 0 -129 11.5t-43 29.5v418h-491q-10 0 -17.5 15.5t-7.5 27.5q0 6 2 12t4 11l768 886q6 10 18.5 14.5t26.5 4.5q23 0 41.5 -9.5t18.5 -21.5q-6 -80 -11.5 -180.5t-5.5 -163.5v-451h225 q10 0 17.5 -24t7.5 -47zM557 145v334l-297 -334h297z" />
<glyph unicode="5" horiz-adv-x="1042" d="M971 1018l-53 -146q-51 -131 -85 -172t-112 -41h-402l-20 -63q-14 -37 -7 -52.5t34 -15.5q276 -23 420.5 -142.5t144.5 -285.5q0 -240 -227.5 -400.5t-585.5 -160.5q-6 0 -11.5 16.5t-5.5 28.5t5.5 28.5t11.5 16.5q219 0 351 95.5t132 275.5q0 121 -102.5 184.5 t-302.5 77.5q-23 0 -34 16.5t-11 36.5q0 6 2 15.5t4 17.5l180 576q2 8 11 15t26 9l424 17q41 2 73.5 22.5t51.5 52.5q4 10 23.5 11.5t29.5 -2.5q14 -6 26.5 -15.5t8.5 -15.5z" />
<glyph unicode="6" horiz-adv-x="1277" d="M1176 459q0 -211 -143.5 -356.5t-383.5 -145.5q-266 0 -406.5 146.5t-140.5 381.5q0 311 286 554t722 358q6 2 16.5 -13.5t12.5 -25.5t3 -28.5t-5 -20.5q-301 -113 -488.5 -317t-187.5 -560q0 -180 33.5 -278.5t154.5 -98.5q80 0 122 91.5t42 252.5q0 154 -21.5 228.5 t-86.5 74.5q-16 0 -27.5 -3t-26.5 -9q-6 0 -19.5 8.5t-21.5 18.5t-14 24.5t-2 20.5q33 35 92 63.5t131 28.5q152 0 255.5 -112.5t103.5 -282.5z" />
<glyph unicode="7" horiz-adv-x="1062" d="M1065 918q0 -6 -2 -12.5t-4 -10.5l-686 -1329q-6 -14 -34 -20.5t-58 -6.5q-23 0 -52.5 10.5t-25.5 22.5l604 1032h-469q-63 0 -101 -44t-69 -136q-4 -8 -17.5 -12t-27.5 -4q-12 0 -27.5 5t-17.5 11q23 96 47.5 263t32.5 274q37 -8 144.5 -10.5t260.5 -2.5q119 0 284 2 t193 8q10 4 17.5 -13t7.5 -27z" />
<glyph unicode="8" horiz-adv-x="1177" d="M1075 371q0 -170 -152.5 -292t-375.5 -122q-199 0 -322 94t-123 236q0 119 81 205t206 143q-123 78 -187.5 172t-64.5 190q0 166 138.5 283t355.5 117q176 0 286.5 -89t110.5 -227q0 -100 -69.5 -170.5t-180.5 -124.5q145 -86 221 -188t76 -227zM850 1085 q0 100 -62.5 155.5t-136.5 55.5q-78 0 -123 -41t-45 -125q0 -74 46 -135t176 -145q76 49 110.5 108t34.5 127zM715 248q0 106 -78 183t-174 140q-86 -47 -128 -117.5t-42 -174.5t76.5 -164t173.5 -60q78 0 125 51.5t47 141.5z" />
<glyph unicode="9" horiz-adv-x="1277" d="M1176 449q0 -313 -276.5 -557t-698.5 -353q-6 0 -15 14l-14 23q-4 14 -3 30.5t7 18.5q317 123 479 332t162 496q0 221 -36 324.5t-140 103.5q-94 0 -135 -91.5t-41 -254.5q0 -154 29.5 -211.5t97.5 -57.5q12 0 26.5 3t24.5 7q6 4 21.5 -6t19.5 -18q6 -8 14.5 -24.5 t1.5 -20.5q-43 -43 -90 -67.5t-133 -24.5q-150 0 -262.5 108.5t-112.5 270.5q0 203 152 343t403 140q244 0 381.5 -146t137.5 -382z" />
<glyph unicode=":" horiz-adv-x="655" d="M514 717q0 -76 -54 -131.5t-132 -55.5q-76 0 -131.5 55.5t-55.5 131.5q0 78 55.5 132t131.5 54q78 0 132 -54t54 -132zM514 143q0 -76 -54 -131t-132 -55q-76 0 -131.5 55.5t-55.5 130.5q0 76 55.5 131.5t131.5 55.5q78 0 132 -55.5t54 -131.5z" />
<glyph unicode=";" horiz-adv-x="655" d="M514 717q0 -76 -55.5 -131.5t-130.5 -55.5q-78 0 -132.5 55.5t-54.5 131.5t54.5 131t132.5 55q76 0 131 -55t55 -131zM530 72q0 -156 -84 -276t-225 -199q-6 -2 -19.5 7t-21.5 19t-14 25.5t0 19.5q70 47 120 96.5t50 151.5q0 25 -3 35t-11 10q-6 0 -13.5 -3t-17.5 -3 q-59 0 -104.5 42t-45.5 132q0 76 52.5 138.5t134.5 62.5q92 0 147 -73.5t55 -184.5z" />
<glyph unicode="&#x3c;" horiz-adv-x="1089" d="M958 94q10 -4 6.5 -30.5t-14.5 -45.5q-10 -18 -28.5 -38.5t-28.5 -14.5l-795 404q-14 8 -20 25.5t-6 35.5q0 20 6 36.5t20 25.5l795 403q10 6 29.5 -15.5t27.5 -37.5q8 -18 13.5 -45t-5.5 -31l-669 -336z" />
<glyph unicode="=" horiz-adv-x="894" d="M823 604q0 -23 -7 -47.5t-19 -24.5h-699q-12 0 -19 25t-7 47q0 23 7 48.5t19 25.5h699q12 0 19 -27t7 -47zM823 297q0 -23 -7 -47.5t-19 -24.5h-699q-12 0 -19 24.5t-7 47.5t7 48.5t19 25.5h699q12 0 19 -27t7 -47z" />
<glyph unicode="&#x3e;" horiz-adv-x="1089" d="M1018 430q0 -16 -7 -35.5t-20 -25.5l-794 -404q-10 -4 -28.5 14.5t-29.5 38.5q-12 25 -15 47.5t7 28.5l670 336l-670 336q-10 6 -5 30.5t13 45.5q10 20 28.5 38.5t29.5 14.5l794 -403q14 -8 20.5 -25t6.5 -37z" />
<glyph unicode="?" horiz-adv-x="825" d="M778 971q0 -178 -73.5 -246t-155.5 -96q-72 -23 -142.5 -64t-60.5 -123l2 -8q0 -6 -16.5 -15t-30.5 -11q-14 0 -30.5 3t-20.5 9l-39 270q-12 90 51.5 130t143.5 65q78 25 148.5 52.5t70.5 92.5q0 35 -30 67.5t-116 32.5q-45 0 -108.5 -14t-102.5 -14q-80 0 -129 49 t-49 117q0 80 55.5 130t157.5 50q158 0 316.5 -147.5t158.5 -329.5zM471 127q0 -68 -50 -118t-118 -50t-118 50t-50 118q0 72 48 120t120 48q68 0 118 -50t50 -118z" />
<glyph unicode="@" horiz-adv-x="1683" d="M1589 854q0 -199 -147.5 -355.5t-356.5 -156.5q-127 0 -169 49t-13 150q-66 -92 -136.5 -145.5t-150.5 -53.5q-72 0 -111.5 48t-39.5 126q0 150 177 332t325 182q41 0 72.5 -23.5t31.5 -60.5l27 66q4 8 36.5 13t67.5 5q37 0 77 -12t36 -21l-187 -426q-27 -59 -18.5 -81.5 t37.5 -22.5q150 0 243 113.5t93 273.5q0 180 -145.5 312t-417.5 132q-291 0 -456 -175t-165 -453q0 -260 168 -429t438 -169q197 0 316.5 50t208.5 114q6 4 19 -9.5t17 -21.5q6 -10 10.5 -27.5t0.5 -19.5q-106 -80 -239.5 -140.5t-348.5 -60.5q-362 0 -582.5 222t-220.5 528 q0 135 54.5 263t162.5 238q106 106 264 172t353 66q301 0 485 -168t184 -424zM1024 895q0 18 -6 27.5t-19 9.5q-47 0 -181 -163t-134 -253q0 -23 8 -33t33 -10q59 0 179 173t120 249z" />
<glyph unicode="A" horiz-adv-x="1632" d="M1620 35q0 -12 -5 -28.5t-11 -16.5q-98 0 -198.5 5t-184.5 5q-94 0 -202 -5t-208 -5q-6 0 -11 15t-5 30q0 10 3 26.5t9 18.5q98 6 130 25.5t32 60.5q0 16 -7.5 40.5t-15.5 45.5l-55 143h-430l-49 -119q-12 -29 -19.5 -54t-7.5 -44q0 -43 23.5 -68.5t130.5 -29.5 q6 0 8 -17.5t2 -27.5q0 -14 -5 -29.5t-12 -15.5q-88 0 -137 5t-131 5q-68 0 -119 -5t-120 -5q-6 0 -10.5 17.5t-4.5 27.5t9.5 26.5t15.5 18.5q88 8 137 53t100 152l508 1145q2 6 22.5 11t39.5 5q18 0 38.5 -5t22.5 -11l455 -1145q37 -102 88 -148.5t153 -56.5 q6 0 13.5 -17.5t7.5 -27.5zM852 494l-172 450l-180 -450h352z" />
<glyph unicode="B" horiz-adv-x="1617" d="M1538 385q0 -164 -125 -279.5t-455 -115.5q-100 0 -220 5t-214 5t-206.5 -5t-213.5 -5q-6 0 -11 16.5t-5 28.5q0 10 5 26.5t11 18.5q121 14 159 51t38 121v899q0 84 -38 121t-159 51q-6 2 -11 18.5t-5 26.5q0 12 5 28.5t11 16.5q100 0 207 -5t201 -5t199.5 5t206.5 5 q285 0 413.5 -89t128.5 -230q0 -117 -102.5 -207t-298.5 -119q233 -10 356 -128t123 -255zM1036 1067q0 131 -49 188.5t-160 57.5h-24q-43 0 -69.5 -18.5t-26.5 -75.5v-414h108q119 0 170 62.5t51 199.5zM1116 406q0 147 -64.5 224t-191.5 77h-153v-488q0 -68 36.5 -98.5 t100.5 -30.5q98 0 185 75t87 241z" />
<glyph unicode="C" horiz-adv-x="1624" d="M1509 492l-29 -235l-26 -212q-92 0 -228 -44t-292 -44q-209 0 -370 62.5t-267 164.5t-158.5 234.5t-52.5 275.5q0 297 234.5 524.5t629.5 227.5q174 0 287 -31t207 -31q4 -98 12 -221t17 -225q0 -6 -18.5 -11t-33.5 -5q-10 0 -23.5 4t-17.5 12q-27 150 -152.5 280 t-285.5 130q-242 0 -338 -185.5t-96 -468.5q0 -276 95 -457.5t331 -181.5q188 0 307 131t178 306q2 8 17.5 12t25.5 4t28.5 -5t18.5 -11z" />
<glyph unicode="D" horiz-adv-x="1832" d="M1546 1204q102 -100 150.5 -228t48.5 -282q0 -137 -43 -267t-143 -226q-106 -102 -253 -156.5t-393 -54.5q-78 0 -193.5 3t-193.5 3q-88 0 -219 -2t-203 -4q-6 0 -11 16.5t-5 28.5q0 10 5 26.5t11 18.5q121 14 159 51t38 121v899q0 84 -38 121t-159 51q-6 2 -11 18.5 t-5 26.5q0 12 5 28.5t11 16.5q72 -2 203 -4t219 -2q78 0 195 3t192 3q209 0 369 -54.5t264 -154.5zM1323 694q0 287 -87 454q-86 165 -325 165h-6l-80 -4q-41 0 -79.5 -22.5t-38.5 -96.5v-977q0 -74 38.5 -96.5t79.5 -22.5l80 -4q231 0 324.5 160.5t93.5 443.5z" />
<glyph unicode="E" horiz-adv-x="1566" d="M1426 226q-13 -128 -19 -236q-129 4 -323.5 7t-313.5 3t-338 -4l-328 -6q-6 0 -11 16.5t-5 28.5q0 10 5 26.5t11 18.5q121 14 159 51t38 121v899q0 84 -38 121t-159 51q-6 2 -11 18.5t-5 26.5q0 12 5 28.5t11 16.5l312 -6q203 -4 334 -4q111 0 313.5 3t327.5 7 q-1 -31 -2 -67q0 -65 5 -150q7 -133 11 -240q0 -8 -15.5 -17t-41.5 -9q-14 0 -24.5 4t-10.5 8q-16 129 -107.5 245t-257.5 116h-123q-41 0 -79.5 -20.5t-38.5 -100.5v-424h69q102 0 165 61.5t73 161.5q0 6 17.5 11t27.5 5q14 0 29.5 -5t15.5 -11q0 -76 -5 -141.5t-5 -134.5 q0 -72 5 -134.5t5 -136.5q0 -6 -15.5 -11t-29.5 -5q-10 0 -26.5 5t-18.5 11q-12 106 -68.5 164.5t-169.5 58.5h-69v-436q0 -74 38.5 -97.5t79.5 -23.5h107q156 0 276.5 113t151.5 276q0 4 9 6.5t22 2.5q23 0 44 -9q20 -7 19 -18q0 -45 -13 -136t-15 -109z" />
<glyph unicode="F" horiz-adv-x="1523" d="M1430 940q0 -8 -18.5 -17.5t-37.5 -9.5q-8 0 -21.5 4.5t-13.5 8.5q-18 137 -113.5 257t-275.5 120h-123q-43 0 -81.5 -20.5t-38.5 -100.5v-432h102q104 0 165.5 61t74.5 162q0 6 15 11t30 5q14 0 29.5 -5t15.5 -11q0 -76 -6.5 -141.5t-6.5 -135.5q0 -72 6.5 -134 t6.5 -136q0 -6 -15.5 -11t-29.5 -5t-29.5 5t-15.5 11q-14 106 -70.5 164.5t-169.5 58.5h-102v-397q0 -82 47 -121t166 -51q6 0 11 -17.5t5 -27.5q0 -12 -5 -28.5t-11 -16.5q-100 0 -211 5t-205 5t-195.5 -5t-202.5 -5q-6 0 -11 15t-5 30q0 10 5 26.5t11 18.5q119 14 157 51 t38 121v899q0 84 -38 121t-157 51q-6 2 -11 18.5t-5 26.5q0 14 5 29.5t11 15.5l316 -6q205 -4 336 -4q117 0 321.5 3t329.5 7q0 -88 7.5 -232.5t13.5 -240.5z" />
<glyph unicode="G" horiz-adv-x="1695" d="M1681 618q0 -10 -5 -27.5t-11 -17.5q-98 -10 -135 -53t-37 -119v-206q0 -51 5 -74t18 -49q-123 -43 -283 -79t-332 -36q-199 0 -354.5 61.5t-257.5 165.5q-100 100 -151.5 233.5t-51.5 276.5q0 154 56.5 286t170.5 241q113 104 284 164.5t380 60.5q119 0 248 -35t223 -35 q0 -84 4 -216t6 -222q0 -6 -17.5 -11t-31.5 -5t-25.5 4t-15.5 12q-47 170 -169 289t-292 119q-184 0 -291.5 -182.5t-107.5 -469.5q0 -276 104.5 -457.5t288.5 -181.5q125 0 169 33t44 98v244q0 70 -37 98.5t-164 42.5q-6 0 -11 16.5t-5 30.5t5 30t11 16q100 0 176 -6.5 t168 -6.5q94 0 201 6.5t207 6.5q6 0 11 -17t5 -29z" />
<glyph unicode="H" horiz-adv-x="1966" d="M1878 35q0 -12 -5 -28.5t-11 -16.5q-100 0 -203 5t-197 5t-187 -5t-194 -5q-6 0 -11 15t-5 30q0 10 5 26.5t11 18.5q117 14 148 51t31 121v405h-553v-405q0 -82 30.5 -121t149.5 -51q6 0 11 -17.5t5 -27.5q0 -12 -5 -28.5t-11 -16.5q-100 0 -194.5 5t-188.5 5t-195.5 -5 t-202.5 -5q-6 0 -11 15t-5 30q0 10 5 26.5t11 18.5q119 14 157 51t38 121v899q0 84 -38 121t-157 51q-6 2 -11 18.5t-5 26.5q0 14 5 29.5t11 15.5q100 0 202 -5t196 -5t188 5t195 5q6 0 11 -16.5t5 -28.5q0 -10 -5 -27.5t-11 -17.5q-119 -12 -149.5 -51t-30.5 -121v-393h553 v393q0 88 -28 123t-151 49q-6 2 -11 18.5t-5 26.5q0 14 5 29.5t11 15.5q100 0 193.5 -5t187.5 -5q96 0 196.5 5t203.5 5q6 0 11 -16.5t5 -28.5q0 -10 -5 -27.5t-11 -17.5q-119 -12 -158 -51t-39 -121v-899q0 -82 39 -121t158 -51q6 0 11 -17.5t5 -27.5z" />
<glyph unicode="I" horiz-adv-x="1007" d="M918 35q0 -14 -5.5 -29.5t-11.5 -15.5q-100 0 -201.5 5t-195.5 5t-196.5 -5t-203.5 -5q-6 0 -11 16.5t-5 28.5q0 10 5 26.5t11 18.5q121 14 159 51t38 121v899q0 84 -38 121t-159 51q-6 2 -11 18.5t-5 26.5q0 12 5 28.5t11 16.5q100 0 203 -5t197 -5t195.5 5t201.5 5 q6 0 11.5 -15.5t5.5 -29.5q0 -10 -5.5 -27.5t-11.5 -17.5q-117 -12 -155.5 -51t-38.5 -121v-899q0 -82 38.5 -121t155.5 -51q6 0 11.5 -17.5t5.5 -27.5z" />
<glyph unicode="J" horiz-adv-x="1110" d="M1006 1366q0 -12 -5.5 -28.5t-11.5 -16.5q-117 -12 -156.5 -52t-39.5 -122v-959q0 -365 -198 -547t-493 -182q-141 0 -257.5 72t-116.5 178q0 98 61 151.5t160 53.5q74 0 120 -51t74 -111q31 -59 62 -109.5t74 -50.5q59 0 83.5 80t24.5 285v1190q0 80 -38 120t-156 54 q-6 0 -11.5 15.5t-5.5 29.5q0 10 5 27.5t12 17.5q100 0 201.5 -6t195.5 -6t196.5 6t202.5 6q6 0 11.5 -17.5t5.5 -27.5z" />
<glyph unicode="K" horiz-adv-x="1816" d="M1819 35q0 -14 -5.5 -29.5t-11.5 -15.5q-100 0 -168.5 5t-163.5 5q-94 0 -208.5 -5t-214.5 -5q-6 0 -11.5 16.5t-5.5 28.5q0 10 4 26.5t10 18.5q51 6 76 21.5t25 43.5q0 12 -7.5 30t-25.5 44l-264 365q-23 33 -51.5 47t-87.5 14v-393q0 -82 30.5 -121t149.5 -51 q6 0 11 -17.5t5 -27.5q0 -12 -5 -28.5t-11 -16.5q-100 0 -194.5 5t-188.5 5t-195.5 -5t-201.5 -5q-6 0 -11.5 15t-5.5 30q0 10 5 26.5t12 18.5q119 14 156.5 51t37.5 121v899q0 84 -25.5 119t-185.5 53q-6 2 -11 18.5t-5 26.5q0 14 5 29.5t11 15.5q100 0 210 -5t204 -5 t204.5 5t211.5 5q6 0 11 -16.5t5 -28.5q0 -10 -5 -27.5t-11 -17.5q-141 -14 -177 -50t-36 -122v-393q39 0 64.5 10t57.5 43l392 373q18 18 28.5 33.5t10.5 35.5q0 27 -29 44.5t-100 25.5q-6 2 -11.5 18.5t-5.5 26.5q0 12 5 28.5t12 16.5q74 0 176 -5t182 -5q66 0 124 5 t101 5q6 0 11.5 -15.5t5.5 -29.5q0 -12 -6.5 -28.5t-12.5 -16.5q-115 -12 -204 -60.5t-152 -109.5l-248 -246l481 -694q45 -66 96.5 -96.5t114.5 -36.5q6 0 11.5 -17.5t5.5 -27.5z" />
<glyph unicode="L" horiz-adv-x="1486" d="M1406 238q-13 -166 -17 -248q-129 4 -322 7t-313 3q-131 0 -338 -4l-310 -6q-6 0 -11 15t-5 30q0 10 5 26.5t11 18.5q119 14 157 51t38 121v899q0 84 -38 121t-157 51q-6 2 -11 18.5t-5 26.5q0 14 5 29.5t11 15.5q98 0 202 -5t196 -5q94 0 196.5 5t202.5 5 q6 0 11.5 -16.5t5.5 -28.5q0 -10 -5.5 -27.5t-11.5 -17.5q-119 -12 -157.5 -51t-38.5 -121v-930q0 -74 39.5 -97.5t80.5 -23.5h117q143 0 255 135.5t142 303.5q0 4 7.5 6t21.5 2q23 0 44 -8q20 -7 20 -19q0 -43 -12.5 -141.5t-15.5 -140.5z" />
<glyph unicode="M" horiz-adv-x="2168" d="M2122 35q0 -12 -4 -28.5t-11 -16.5q-100 0 -204.5 5t-198.5 5t-193.5 -5t-199.5 -5q-6 0 -12.5 15t-6.5 30q0 10 5.5 26.5t11.5 18.5q111 12 152 51q37 34 37 101q0 10 -1 20l-37 885l-448 -1164q-2 -4 -20.5 -10t-41.5 -6q-29 0 -43 6t-18 10l-453 1119l-51 -840 q-1 -11 -1 -21q0 -68 37 -101q42 -38 161 -50q6 0 9 -17.5t3 -27.5q0 -14 -6 -29.5t-13 -15.5q-78 0 -142 5t-136 5q-74 0 -137.5 -5t-132.5 -5q-6 0 -10.5 17.5t-4.5 27.5q0 14 7.5 28.5t13.5 16.5q121 14 167 50t54 122l84 899q1 11 1 21q0 70 -38 101q-43 36 -162 50 q-6 2 -10 18.5t-4 26.5q0 14 7 29.5t13 15.5q51 0 137.5 -5t131.5 -5q57 0 152.5 5t160.5 5l373 -926l358 926q78 0 161 -5t136 -5q61 0 145.5 5t145.5 5q6 0 11 -16.5t5 -28.5q0 -10 -4 -27.5t-10 -17.5q-113 -12 -153 -51q-36 -35 -36 -106q0 -7 1 -15l43 -899 q4 -82 41.5 -121t160.5 -51q6 0 11.5 -17.5t5.5 -27.5z" />
<glyph unicode="N" horiz-adv-x="1808" d="M1808 1368q0 -10 -5 -27.5t-11 -17.5q-115 -12 -161 -50t-48 -122l-22 -1169q0 -6 -13.5 -13.5t-44.5 -7.5q-23 0 -39 3t-24 13l-996 1006l-12 -731v-13q0 -71 43 -107q47 -40 166 -52q6 0 11 -15.5t5 -29.5q0 -12 -5 -28.5t-11 -16.5q-78 0 -143.5 5t-137.5 5 q-74 0 -136 -5t-132 -5q-6 0 -11 16.5t-5 28.5q0 14 6 28.5t12 16.5q117 12 162 51t45 121l33 833v10q0 104 -45 157q-47 56 -178 71q-6 2 -10.5 18.5t-4.5 26.5q0 14 5 29.5t12 15.5q49 0 116.5 -5t110.5 -5q55 0 104.5 5t126.5 5l889 -926v664q0 84 -49 121t-168 51 q-6 2 -11 16.5t-5 28.5q0 12 5 28.5t11 16.5q80 0 136.5 -6t127.5 -6q74 0 145.5 6t139.5 6q6 0 11 -15.5t5 -29.5z" />
<glyph unicode="O" horiz-adv-x="1781" d="M1694 694q0 -307 -210 -522t-593 -215t-594 216t-211 521t211 528.5t594 223.5q375 0 589 -220.5t214 -531.5zM1272 694q0 283 -82 468.5t-299 185.5q-219 0 -300 -187.5t-81 -466.5q0 -285 81 -462t300 -177q217 0 299 178t82 461z" />
<glyph unicode="P" horiz-adv-x="1529" d="M1464 969q0 -199 -164.5 -314.5t-449.5 -115.5q-41 0 -75 4t-68 12v-303q0 -82 38.5 -121t157.5 -51q6 0 11.5 -17.5t5.5 -27.5q0 -12 -5.5 -28.5t-11.5 -16.5q-100 0 -202.5 5t-196.5 5t-195.5 -5t-202.5 -5q-6 0 -11 15t-5 30q0 10 5 26.5t11 18.5q119 14 157 51 t38 121v932q0 68 -40 97.5t-155 41.5q-6 2 -11 18.5t-5 26.5q0 14 5 29.5t11 15.5q100 0 210 -5t204 -5t164 5t170 5q324 0 467 -118.5t143 -325.5zM1042 997q0 178 -55 247t-158 69q-66 0 -94 -31t-28 -98v-471q0 -47 42 -60.5t58 -13.5q121 0 178 90t57 268z" />
<glyph unicode="Q" horiz-adv-x="1781" d="M1638 -350q0 -10 -4 -26.5t-12 -18.5q-41 -10 -111.5 -21.5t-156.5 -11.5q-213 0 -403.5 98.5t-284.5 309.5q-283 63 -431.5 259.5t-148.5 454.5q0 305 211 528.5t594 223.5q375 0 589 -220t214 -532q0 -254 -146.5 -450.5t-419.5 -259.5q55 -170 143.5 -233.5 t235.5 -63.5q20 0 50 2t65 6q6 2 11 -14.5t5 -30.5zM1272 694q0 283 -82 468.5t-299 185.5q-219 0 -300 -187.5t-81 -466.5q0 -283 81 -461t300 -178q217 0 299 178t82 461z" />
<glyph unicode="R" horiz-adv-x="1656" d="M1708 35q-2 -12 -9 -28.5t-13 -16.5q-57 0 -151.5 5t-129.5 5q-49 0 -129 -5t-129 -5l-258 524q-31 61 -74 85t-117 24v-371q0 -82 31 -121t150 -51q6 0 11 -17.5t5 -27.5q0 -12 -5 -28.5t-11 -16.5q-100 0 -194.5 5t-188.5 5t-195.5 -5t-202.5 -5q-6 0 -11 15t-5 30 q0 10 5 26.5t11 18.5q119 14 157 51t38 121v899q0 84 -38 121t-157 51q-6 2 -11 18.5t-5 26.5q0 14 5 29.5t11 15.5q100 0 206 -5t200 -5t167.5 5t174.5 5q332 0 479.5 -109.5t147.5 -256.5q0 -139 -67 -224.5t-216 -130.5l280 -469q43 -72 88.5 -102.5t139.5 -40.5 q6 0 9 -18q2 -10 2 -18q0 -5 -1 -9zM1051 1010q0 158 -57.5 230.5t-176.5 72.5q-74 0 -96.5 -29t-22.5 -100v-463q12 -2 36 -4t44 -2q145 0 209 65.5t64 229.5z" />
<glyph unicode="S" horiz-adv-x="1378" d="M913 844q121 -72 227.5 -171.5t106.5 -250.5q0 -217 -156.5 -341t-394.5 -124q-145 0 -248.5 40t-236.5 64q-2 74 -2 197t-6 217q0 6 17.5 11.5t29.5 5.5q14 0 27.5 -4.5t15.5 -12.5q39 -182 163 -301t240 -119q119 0 171.5 52.5t52.5 142.5q0 111 -106.5 186.5 t-229.5 147.5q-125 72 -231.5 170t-106.5 241q0 190 144.5 320.5t395.5 130.5q113 0 195 -27.5t176 -46.5q2 -74 7 -184.5t14 -181.5q0 -6 -17.5 -11.5t-27.5 -5.5q-14 0 -28.5 4t-19.5 13q-39 160 -114.5 251t-186.5 91q-96 0 -151 -51.5t-55 -129.5q0 -102 103 -174.5 t232 -148.5z" />
<glyph unicode="T" horiz-adv-x="1587" d="M1556 934q0 -10 -15 -18.5t-36 -8.5q-8 0 -22.5 3t-16.5 8q-29 113 -136 249t-202 136h-30q-47 0 -67.5 -19.5t-20.5 -60.5v-971q0 -82 38.5 -121t157.5 -51q6 0 11.5 -17.5t5.5 -27.5q0 -12 -5.5 -28.5t-11.5 -16.5q-98 0 -201.5 5t-195.5 5q-94 0 -196.5 -5t-202.5 -5 q-6 0 -11.5 16.5t-5.5 28.5q0 10 5 26.5t12 18.5q121 14 158.5 51t37.5 121v971q0 45 -18.5 62.5t-69.5 17.5h-16q-84 0 -207 -126t-174 -259q-2 -6 -15.5 -8.5t-21.5 -2.5q-18 0 -35.5 8.5t-17.5 18.5q20 102 43.5 250.5t34.5 247.5q72 -12 223 -20.5t477 -8.5q279 0 464 8 t245 21q6 -98 16 -233.5t22 -264.5z" />
<glyph unicode="U" horiz-adv-x="1703" d="M1702 1368q0 -10 -5 -27.5t-11 -17.5q-119 -12 -160 -49t-41 -123v-645q0 -223 -137.5 -386t-417.5 -163q-340 0 -517 150.5t-177 463.5v580q0 84 -38 121t-159 51q-6 2 -11 18.5t-5 26.5q0 12 5 28.5t11 16.5q100 0 202.5 -5t196.5 -5q92 0 195.5 5t202.5 5 q6 0 11 -16.5t5 -28.5q0 -10 -5 -27.5t-11 -17.5q-119 -12 -158 -51t-39 -121v-649q0 -209 78 -307.5t278 -98.5q182 0 269.5 115t87.5 315v625q0 84 -40 121t-159 51q-6 2 -11 18.5t-5 26.5q0 14 5 29.5t11 15.5q68 0 131.5 -5t134.5 -5q72 0 132.5 5t134.5 5q6 0 11 -16.5 t5 -28.5z" />
<glyph unicode="V" horiz-adv-x="1646" d="M1677 1368q-2 -10 -9 -27.5t-13 -17.5q-88 -6 -133 -55t-92 -150l-543 -1145q-4 -6 -18.5 -11t-43.5 -5q-27 0 -42 5t-19 11l-490 1145q-49 115 -88 155t-135 50q-6 2 -12 18.5t-6 26.5q0 12 6 28.5t12 16.5q98 0 191.5 -5t177.5 -5q94 0 197.5 5t203.5 5q6 0 10.5 -17.5 t4.5 -27.5t-4.5 -27.5t-10.5 -17.5q-90 -4 -127 -22.5t-39 -63.5q-2 -18 7.5 -47t13.5 -39l303 -717l317 692q6 14 15.5 47t9.5 52q-2 47 -22.5 69.5t-135.5 28.5q-6 2 -9 18.5t-3 26.5q-2 14 3 29.5t11 15.5q88 0 133 -5t129 -5q68 0 115 5t119 5q6 0 11 -16.5t5 -28.5z " />
<glyph unicode="W" horiz-adv-x="2416" d="M2451 1374q0 -10 -6 -30.5t-16 -20.5q-59 -4 -111.5 -62.5t-107.5 -164.5l-572 -1123q-4 -4 -22.5 -10t-38.5 -6q-27 0 -42 6t-19 10l-242 519l-359 -519q-4 -4 -16 -10t-45 -6q-20 0 -38.5 6t-22.5 10l-541 1145q-53 111 -84 151t-150 54q-6 2 -14 18.5t-8 26.5 q0 12 4 28.5t10 16.5q102 0 183 -5t176 -5q94 0 152.5 5t158.5 5q6 0 12 -15.5t6 -29.5q0 -10 -2 -27.5t-8 -17.5q-51 -2 -74.5 -17.5t-23.5 -41.5q0 -20 13 -53t28 -60l397 -809l189 270l-236 506q-63 133 -105 167t-88 38q-6 2 -14 18.5t-8 26.5q0 12 5 28.5t11 16.5 q100 0 162 -5t156 -5q92 0 159.5 5t167.5 5q6 0 11.5 -16.5t5.5 -28.5q0 -10 -2 -27.5t-8 -17.5q-55 0 -80 -21.5t-25 -52.5q0 -25 10.5 -50l20.5 -48l96 -197l119 172q33 47 48 77t15 57q0 31 -24.5 46t-87.5 17q-6 2 -9.5 18.5t-3.5 26.5q0 14 6.5 29.5t12.5 15.5 q70 0 123 -5t86 -5q49 0 89 5t101 5q4 0 8.5 -12t4.5 -27q0 -10 -6.5 -30.5t-16.5 -20.5q-41 -2 -85 -41t-85 -96l-240 -350l213 -441l369 731q18 37 28.5 66t10.5 55q0 33 -22.5 53.5t-84.5 22.5q-6 2 -9 18.5t-3 26.5q0 14 6 29.5t13 15.5q72 0 114.5 -5t81.5 -5 q51 0 95 5t116 5q4 0 8 -12.5t4 -26.5z" />
<glyph unicode="X" horiz-adv-x="1718" d="M1712 35q0 -12 -5 -28.5t-11 -16.5q-72 0 -192 5t-197 5q-94 0 -217 -5t-224 -5q-6 0 -11 15t-5 30q0 10 5 26.5t11 18.5q76 10 110 21.5t34 45.5q0 16 -12.5 41t-39.5 64l-206 301l-246 -301q-18 -20 -29.5 -45t-11.5 -41q0 -37 35 -57.5t108 -28.5q6 0 9.5 -17.5 t3.5 -27.5q0 -12 -5.5 -28.5t-11.5 -16.5q-98 0 -155.5 5t-139.5 5q-66 0 -119 -5t-131 -5q-6 0 -11 15t-5 30q0 10 8 26.5t15 18.5q92 10 161.5 55t141.5 131l323 373l-334 487q-66 94 -122 139.5t-173 57.5q-6 2 -11 18.5t-5 26.5q0 12 5 28.5t11 16.5q72 0 188 -5t193 -5 q94 0 221.5 5t227.5 5q6 0 11 -16.5t5 -28.5q0 -10 -5 -27.5t-11 -17.5q-74 -8 -105.5 -25.5t-31.5 -44.5q0 -25 15 -54.5t30 -47.5l190 -277l232 277q14 18 25.5 38.5t11.5 41.5q0 33 -30 55.5t-145 36.5q-6 2 -9 18.5t-3 26.5q0 12 5 28.5t12 16.5q100 0 164.5 -5 t158.5 -5q78 0 114 5t134 5q6 0 11 -16.5t5 -28.5q0 -10 -8 -27.5t-14 -17.5q-82 -6 -145.5 -47t-159.5 -148l-297 -342l366 -534q63 -88 116.5 -125t160.5 -47q6 0 11 -17.5t5 -27.5z" />
<glyph unicode="Y" horiz-adv-x="1595" d="M1665 1368q0 -10 -8 -27.5t-15 -17.5q-84 -8 -144 -47t-122 -125l-360 -522v-377q0 -82 30.5 -121t149.5 -51q6 0 11 -17.5t5 -27.5q0 -12 -5 -28.5t-11 -16.5q-100 0 -194.5 5t-188.5 5t-195.5 -5t-201.5 -5q-6 0 -11.5 15t-5.5 30q0 10 5.5 26.5t11.5 18.5 q119 14 156.5 51t37.5 121v375l-331 524q-55 86 -111.5 123t-169.5 49q-6 2 -11 18.5t-5 26.5q0 12 5 28.5t11 16.5q72 0 175 -5t183 -5q82 0 212 5t231 5q6 0 11 -15.5t5 -29.5q0 -10 -5 -27.5t-11 -17.5q-74 -8 -104.5 -27.5t-30.5 -46.5q0 -20 12 -44.5t31 -53.5 l260 -403l270 403q16 25 26.5 46.5t10.5 41.5q0 31 -28.5 52.5t-115.5 31.5q-6 2 -8 18.5t-2 26.5q0 14 5 29.5t12 15.5q88 0 145 -5t141 -5q63 0 116.5 5t109.5 5q6 0 11 -16.5t5 -28.5z" />
<glyph unicode="Z" horiz-adv-x="1519" d="M1430 453l-22 -241q-11 -130 -15 -230q-61 12 -241.5 15t-436.5 3q-254 0 -405.5 -3t-209.5 -15q-2 0 -4 -1q-11 0 -18 10q-8 11 -8 27q0 4 2 8.5t2 6.5l891 1270h-336q-156 0 -259.5 -111t-152.5 -258q-4 -6 -17.5 -9t-21.5 -3q-20 0 -36.5 9t-16.5 19q16 88 36.5 223.5 t28.5 247.5q53 -10 206 -14t401 -4q236 0 405.5 3t218.5 15q3 1 6 1q9 0 16 -11q9 -14 9 -27q0 -4 -1 -8t-3 -6l-889 -1270h356q145 0 269.5 119t154.5 250q0 6 14.5 9t24.5 3q20 0 37 -9t15 -19z" />
<glyph unicode="[" horiz-adv-x="1009" d="M973 -119q2 -6 3 -21.5t-7 -27.5q-6 -10 -17.5 -23.5t-17.5 -9.5q-49 20 -126 32.5t-159 12.5q-117 0 -212 -23.5t-130 -23.5q-12 0 -24.5 11.5t-12.5 25.5q0 115 8.5 362.5t8.5 387.5q0 25 -52.5 35t-111.5 18q-6 2 -12.5 18.5t-6.5 22.5t6.5 22.5t12.5 18.5 q61 8 112.5 18.5t51.5 34.5q0 133 -8.5 384t-8.5 366q0 14 12.5 26.5t24.5 12.5q33 0 133.5 -25t208.5 -25q82 0 160 12.5t125 32.5q6 4 18.5 -10t16.5 -22q6 -12 7 -27.5t-3 -19.5q-41 -70 -107.5 -108t-165.5 -38q-18 0 -36.5 3t-32.5 7q-4 -141 -6 -311t-2 -352 q0 -242 2 -371t6 -293q14 4 30.5 7.5t38.5 3.5q94 0 165 -39t108 -105z" />
<glyph unicode="\" horiz-adv-x="645" d="M612 -23q4 -10 -19.5 -15t-47.5 -5q-25 0 -49.5 5t-30.5 15l-440 1483q-2 6 4 9l14 8q10 2 24.5 3t24.5 1q20 0 49 -5.5t31 -15.5z" />
<glyph unicode="]" horiz-adv-x="1009" d="M43 1475q-4 6 -3 20t7 29q6 12 17.5 23.5t17.5 8.5q57 -23 121.5 -34t163.5 -11q117 0 212 24t130 24q12 0 24 -11.5t12 -25.5q0 -115 -8 -363t-8 -387q0 -25 59.5 -37t104.5 -16q6 0 12 -17.5t6 -23.5t-6 -23.5t-12 -17.5q-51 -6 -107.5 -19.5t-56.5 -33.5 q0 -133 8 -384t8 -366q0 -14 -12 -26.5t-24 -12.5q-33 0 -133.5 24.5t-208.5 24.5q-102 0 -162 -10t-123 -35q-6 -2 -16.5 8.5t-18.5 24.5t-7 27.5t3 19.5q35 66 108.5 106t163.5 40q23 0 37 -3l33 -8q4 156 6 309.5t2 354.5t-2 366.5t-6 296.5q-16 -4 -31.5 -7t-38.5 -3 q-90 0 -162.5 40.5t-109.5 103.5z" />
<glyph unicode="^" horiz-adv-x="921" d="M877 1051q0 -10 -7.5 -22.5t-15.5 -18.5t-16.5 -10.5t-16.5 -4.5t-15 3t-13 8l-332 145l-332 -145q-6 -2 -14.5 -6.5t-14.5 -4.5q-8 0 -16 3t-18 12q-10 8 -16.5 19t-6.5 22q0 4 3 10l5 10l365 340q6 8 19.5 14.5t25.5 6.5q16 0 26.5 -6.5t16.5 -14.5l364 -340 q2 -2 5.5 -9t3.5 -11z" />
<glyph unicode="_" horiz-adv-x="1024" d="M1049 -72q0 -23 -6.5 -47t-18.5 -24h-1022q-12 0 -19.5 24.5t-7.5 46.5q0 25 7.5 48.5t17.5 23.5h1024q10 0 17.5 -23.5t7.5 -48.5z" />
<glyph unicode="`" horiz-adv-x="819" d="M616 1151q0 -10 -4 -22.5t-10 -16.5q-6 -8 -20.5 -16.5t-20.5 -8.5q-4 0 -7 2l-3 1l-385 184q-25 11 -35 33t-10 47q0 29 9.5 55t25.5 49q16 25 55 45.5t68 20.5q18 0 33 -6t26 -19l272 -330q3 -3 4.5 -8.5t1.5 -9.5z" />
<glyph unicode="a" horiz-adv-x="1093" d="M1120 88q-2 -6 -2 -10t-6 -8q-39 -45 -121 -74t-168 -29q-84 0 -136 38t-69 101q-47 -72 -119.5 -105.5t-179.5 -33.5q-117 0 -197.5 53.5t-80.5 161.5q0 121 133 197t447 145l6 201q0 63 -18.5 83.5t-61.5 20.5t-79 -16t-40 -68q-10 -127 -53 -176t-127 -49 q-76 0 -116 44t-40 106q0 102 167 188t374 86q188 0 257 -94q63 -86 63 -230q0 -13 -1 -26l-10 -356q-1 -10 -1 -20q0 -55 22 -74q25 -22 47 -21q18 0 34.5 6t28.5 16q8 6 27.5 -15.5t19.5 -41.5zM616 449q-121 -29 -174 -78t-53 -142q0 -51 27.5 -81.5t77.5 -30.5 q41 0 74.5 25.5t41.5 97.5z" />
<glyph unicode="b" horiz-adv-x="1249" d="M1188 467q0 -186 -142.5 -348t-414.5 -162q-129 0 -187.5 35t-136.5 35q-39 0 -63.5 -15.5t-38.5 -48.5q-4 -6 -19.5 -10t-23.5 -4q-10 0 -25.5 5t-15.5 11q2 27 5 78t3 129v924q0 80 -30.5 106.5t-106.5 34.5q-6 0 -11.5 15.5t-5.5 25.5t5.5 26.5t11.5 16.5 q96 23 220 68t189 77q6 4 20.5 10.5t24.5 6.5q27 0 37.5 -8.5t10.5 -18.5q-6 -78 -11.5 -180t-5.5 -166v-287q37 51 105.5 82t154.5 31q184 0 317.5 -115.5t133.5 -353.5zM817 459q0 176 -41 257t-145 81q-74 0 -114 -47.5t-40 -102.5v-454q0 -59 31 -97.5t98 -38.5 q123 0 167 126t44 276z" />
<glyph unicode="c" horiz-adv-x="1067" d="M1020 692q0 -55 -35 -101t-102 -46q-78 0 -110 45t-48 102q-14 51 -36.5 99.5t-80.5 48.5q-80 0 -126 -75t-46 -298q0 -156 45 -252t191 -96q80 0 159.5 31.5t120.5 72.5q2 4 13.5 -3t17.5 -15q10 -10 17.5 -21.5t7.5 -19.5q0 -4 -1 -8t-3 -9q-55 -78 -166 -133t-250 -55 q-207 0 -364.5 133t-157.5 359q0 225 156.5 355t385.5 130q152 0 282 -71t130 -173z" />
<glyph unicode="d" horiz-adv-x="1255" d="M1253 104q0 -12 -5 -26.5t-11 -14.5q-59 -6 -180 -40.5t-183 -61.5l-20 -7q-14 -5 -29 -5q-16 0 -25 9t-9 17l-7 125q-39 -66 -106.5 -104.5t-161.5 -38.5q-209 0 -329.5 137t-120.5 340q0 221 133 361.5t366 140.5q76 0 127 -23.5t84 -50.5v234q0 80 -30.5 106.5 t-108.5 34.5q-6 0 -11 15.5t-5 25.5t5 26.5t11 16.5q94 20 223 68.5t189 76.5q6 4 20 10.5t25 6.5q25 0 36 -8.5t11 -18.5q-6 -78 -11.5 -180t-5.5 -166v-834q0 -74 22.5 -97t90.5 -32q6 0 11 -16.5t5 -26.5zM776 231v459q0 55 -42 93t-122 38q-72 0 -124 -67.5t-52 -319.5 q0 -186 48 -261t118 -75q53 0 98 32.5t76 100.5z" />
<glyph unicode="e" horiz-adv-x="1103" d="M1049 539q0 -14 -10.5 -22.5t-28.5 -8.5h-566q-2 -14 -2 -38v-44q0 -172 56.5 -239.5t163.5 -67.5q74 0 166 37t133 92q2 4 12 -3l18 -14q10 -10 17.5 -21t7.5 -22q0 -4 -1 -8t-5 -8q-51 -74 -151.5 -143.5t-268.5 -69.5q-219 0 -368.5 141.5t-149.5 333.5 q0 217 142 359.5t376 142.5q213 0 336 -114.5t123 -282.5zM709 692q0 61 -28 104.5t-83 43.5q-68 0 -100.5 -65.5t-42.5 -172.5l168 4q45 2 65.5 17.5t20.5 68.5z" />
<glyph unicode="f" horiz-adv-x="819" d="M1065 1264q0 -59 -39 -105.5t-115 -46.5q-55 0 -87.5 33t-55.5 74q-18 37 -42 72.5t-52 35.5q-49 0 -84 -29.5t-35 -222.5v-190h229q12 0 18.5 -24.5t6.5 -47.5q0 -20 -7 -47t-18 -25l-231 9v-498q0 -98 32.5 -131t121.5 -41q6 0 11 -17.5t5 -27.5q0 -14 -5 -29.5 t-11 -15.5q-63 0 -159.5 5t-168.5 5t-161 -5t-152 -5q-6 0 -11.5 16.5t-5.5 28.5q0 10 5 26.5t12 18.5q92 10 115.5 40t23.5 132v473q0 10 -6 19.5t-19 9.5h-112q-8 0 -14.5 17t-6.5 26q0 8 6 26.5t13 20.5q33 8 86 24.5t53 32.5q0 244 178 411t371 167q154 0 232.5 -62.5 t78.5 -152.5z" />
<glyph unicode="g" horiz-adv-x="1153" d="M1153 768q0 -23 -7 -47.5t-20 -24.5l-151 4q8 -20 13 -37.5t5 -50.5q0 -154 -116.5 -249t-337.5 -95h-25h-18h-3h-1h-2h-3q-59 -4 -97 -31.5t-38 -50.5q0 -29 18.5 -42t94.5 -13l301 -4q166 0 243.5 -70.5t77.5 -175.5q0 -207 -200.5 -329.5t-452.5 -122.5 q-184 0 -295.5 78.5t-111.5 183.5q0 86 50 132t167 71q-88 35 -131 110.5t-43 120.5q0 49 77.5 105.5t174.5 72.5q-109 49 -163.5 111.5t-54.5 167.5q0 139 114 246.5t331 107.5q92 0 181 -22.5t151 -79.5l245 6q12 2 19.5 -25t7.5 -47zM662 614q0 111 -19.5 167.5 t-93.5 56.5q-76 0 -94.5 -79t-18.5 -177q0 -111 19.5 -163t93.5 -52q72 0 92.5 68t20.5 179zM893 -238q0 37 -29.5 52.5t-113.5 17.5l-248 4q-33 0 -81 5t-71 14q-39 -8 -61.5 -32t-22.5 -79q0 -78 70 -123t196 -45q172 0 266.5 51t94.5 135z" />
<glyph unicode="h" horiz-adv-x="1263" d="M1298 35q0 -12 -5 -28.5t-11 -16.5q-63 0 -146 5t-155 5q-70 0 -137.5 -5t-128.5 -5q-6 0 -11.5 16.5t-5.5 28.5q0 10 5.5 26.5t11.5 18.5q41 6 61.5 40t20.5 132v323q0 102 -24.5 146.5t-94.5 44.5q-59 0 -96 -40t-74 -128v-346q0 -90 19.5 -129t60.5 -43q6 0 11 -17.5 t5 -27.5q0 -14 -5 -29.5t-11 -15.5q-63 0 -129 5t-137 5q-72 0 -155 -5t-144 -5q-6 0 -11.5 15t-5.5 30q0 10 5 26.5t12 18.5q90 10 113.5 40t23.5 132v846q0 80 -31 105.5t-106 33.5q-6 2 -11.5 17.5t-5.5 25.5t5 26.5t12 16.5q96 20 222 67.5t187 77.5q6 4 20.5 10.5 t24.5 6.5q27 0 37 -8.5t10 -18.5q-6 -78 -11 -180t-5 -166v-364q45 96 133 142t176 46q154 0 240 -95.5t86 -215.5v-373q0 -98 24.5 -131t114.5 -41q6 0 11 -17.5t5 -27.5z" />
<glyph unicode="i" horiz-adv-x="673" d="M537 1278q0 -78 -55.5 -133t-131.5 -55t-131 55t-55 133q0 76 55 131t131 55t131.5 -55t55.5 -131zM690 35q0 -12 -5 -28.5t-11 -16.5q-63 0 -158.5 5t-167.5 5q-70 0 -153.5 -5t-145.5 -5q-6 0 -11 16.5t-5 28.5q0 10 5 26.5t11 18.5q76 8 107.5 41t31.5 131v307 q0 82 -31.5 106.5t-107.5 32.5q-6 2 -11 17.5t-5 25.5t5 26.5t11 16.5q98 20 221 66.5t191 79.5q6 4 20.5 10t24.5 6q25 0 36 -8t9 -18l-10 -175q-6 -102 -6 -172v-321q0 -96 32.5 -131t106.5 -41q6 0 11 -17.5t5 -27.5z" />
<glyph unicode="j" horiz-adv-x="634" d="M526 1278q0 -78 -55 -133t-131 -55t-131 55t-55 133q0 76 55 131t131 55t131 -55t55 -131zM541 918l-11 -175q-6 -102 -6 -172v-614q0 -170 -136 -302t-368 -226q-1 0 -1 -1q-8 0 -26 26q-19 28 -20 44q0 4 2 9.5t7 7.5q109 63 152.5 139t43.5 192v711q0 80 -31.5 106.5 t-107.5 34.5q-6 0 -11 15.5t-5 25.5t5 26.5t11 16.5q98 23 216 66t196 80q6 4 20 10t25 6q25 0 36 -8t9 -18z" />
<glyph unicode="k" d="M1311 35q0 -14 -5.5 -29.5t-11.5 -15.5q-63 0 -124.5 6t-133.5 6t-166 -6t-155 -6q-6 0 -11.5 16.5t-5.5 28.5q0 10 5.5 26.5t11.5 18.5q31 4 44 12t13 25q0 16 -10 40.5t-45 61.5l-150 166q-10 10 -23.5 15.5t-35.5 5.5v-154q0 -90 20.5 -129t61.5 -43q6 0 11 -17.5 t5 -27.5q0 -12 -5 -28.5t-11 -16.5q-63 0 -126 6t-134 6q-70 0 -158 -6t-149 -6q-6 0 -11.5 15t-5.5 30q0 10 5 26.5t12 18.5q76 8 106.5 39t30.5 133v846q0 80 -32 106.5t-105 34.5q-6 2 -11.5 17.5t-5.5 25.5t5 25.5t12 15.5q98 23 215.5 67t195.5 80q6 4 20.5 10.5 t24.5 6.5q25 0 36 -9.5t9 -17.5l-10 -176q-6 -104 -6 -170v-618q14 0 28.5 4t28.5 16l187 154q41 35 57 57.5t16 38.5q0 20 -19.5 31.5t-78.5 17.5q-6 0 -11 16.5t-5 28.5t5 28.5t11 16.5q66 0 122 -6t116 -6q47 0 102 6t117 6q6 0 11 -16.5t5 -28.5q0 -10 -5 -27.5 t-11 -17.5q-51 -4 -123 -34.5t-172 -110.5l-98 -82l305 -369q57 -61 106 -98t92 -41q6 0 11.5 -17.5t5.5 -27.5z" />
<glyph unicode="l" horiz-adv-x="645" d="M659 35q0 -12 -5 -28.5t-11 -16.5q-63 0 -158.5 6t-167.5 6q-70 0 -153.5 -6t-145.5 -6q-6 0 -11 16.5t-5 28.5q0 10 5 26.5t11 18.5q76 8 108 41t32 131v846q0 82 -31 107.5t-109 33.5q-6 2 -11 17.5t-5 25.5t5 25.5t11 15.5q98 23 216 67t196 80q6 4 20.5 10.5 t24.5 6.5q25 0 36 -9.5t9 -17.5l-10 -176q-6 -104 -6 -170v-862q0 -96 32.5 -131t106.5 -41q6 0 11 -17.5t5 -27.5z" />
<glyph unicode="m" horiz-adv-x="1951" d="M1987 35q0 -12 -5.5 -28.5t-11.5 -16.5q-63 0 -146 5t-155 5t-142.5 -5t-131.5 -5q-6 0 -11.5 15t-5.5 30q0 10 5.5 26.5t11.5 18.5q59 8 73.5 40t14.5 132v323q0 98 -24.5 144.5t-92.5 46.5q-74 0 -108.5 -35t-77.5 -110v-369q0 -96 15 -131t73 -41q6 0 11 -17.5 t5 -27.5q0 -14 -5 -29.5t-11 -15.5q-63 0 -112.5 5t-121.5 5t-151.5 -5t-141.5 -5q-6 0 -11 16.5t-5 28.5q0 10 5 26.5t11 18.5q59 8 74.5 40t15.5 132v323q0 98 -32.5 144.5t-102.5 46.5q-63 0 -99 -43t-71 -125v-346q0 -96 16.5 -131t73.5 -41q6 0 11.5 -17.5t5.5 -27.5 q0 -12 -5 -28.5t-12 -16.5q-63 0 -133.5 5t-142.5 5q-70 0 -154 -5t-145 -5q-6 0 -11 15t-5 30q0 10 5 26.5t11 18.5q90 10 113.5 40t23.5 132v323q0 82 -19.5 107t-92.5 33q-6 2 -11.5 17.5t-5.5 25.5t5 26.5t12 16.5q68 16 186.5 61t183.5 76q6 4 20.5 10t24.5 6 q25 0 36 -8t11 -18l-10 -197q57 113 143.5 159t172.5 46q111 0 205 -55.5t124 -151.5q61 109 151.5 158t194.5 49q154 0 238 -95.5t84 -215.5v-373q0 -100 24.5 -132t114.5 -40q6 0 11.5 -17.5t5.5 -27.5z" />
<glyph unicode="n" d="M1317 33q0 -12 -5 -28.5t-12 -16.5q-63 0 -146 6t-155 6q-70 0 -137 -6t-129 -6q-6 0 -11 16t-5 29q0 12 5 27.5t11 17.5q41 6 61.5 40t20.5 132v325q0 102 -23.5 145.5t-95.5 43.5q-59 0 -96 -40t-74 -128v-346q0 -90 19.5 -129t60.5 -43q6 0 11.5 -15.5t5.5 -29.5 t-5.5 -29.5t-11.5 -15.5q-63 0 -128.5 6t-137.5 6t-155 -6t-144 -6q-6 0 -11 15t-5 30q0 14 5 28.5t11 16.5q90 12 113.5 42t23.5 130v321q0 86 -18.5 110t-93.5 32q-6 0 -11.5 16t-5.5 27q0 10 5 25.5t12 15.5q70 18 191.5 64t178.5 75q6 4 20.5 10t24.5 6q25 0 36 -9 t9 -17l-8 -197q41 100 130 153.5t188 53.5q154 0 239.5 -96.5t85.5 -214.5v-375q0 -98 24.5 -130t114.5 -42q6 0 11.5 -17.5t5.5 -27.5z" />
<glyph unicode="o" horiz-adv-x="1218" d="M1153 440q0 -195 -138 -339t-405 -144q-264 0 -404 143.5t-140 339.5q0 195 139 345.5t405 150.5q260 0 401.5 -148.5t141.5 -347.5zM780 442q0 197 -32.5 296.5t-137.5 99.5q-104 0 -138 -101.5t-34 -294.5q0 -199 34 -293t138 -94q102 0 136 95t34 292z" />
<glyph unicode="p" horiz-adv-x="1280" d="M1214 475q0 -211 -138 -363.5t-380 -152.5q-63 0 -109 12.5t-83 32.5v-283q0 -98 32.5 -130.5t122.5 -41.5q6 0 11.5 -17t5.5 -28q0 -12 -5 -28.5t-12 -16.5q-66 0 -162 5.5t-167 5.5q-72 0 -161 -5.5t-151 -5.5q-6 0 -11 15.5t-5 29.5q0 10 5 26.5t11 18.5q90 10 114 40 t24 132v850q0 80 -19.5 107t-93.5 35q-6 2 -11 17t-5 26q0 10 5 25.5t11 15.5q70 18 191.5 64t179.5 75q6 4 20.5 10t24.5 6q25 0 36 -9t9 -17l-8 -160q35 66 109.5 118t195.5 52q193 0 303 -133t110 -328zM817 172q16 49 21.5 121t5.5 166q0 166 -47 239.5t-123 73.5 q-63 0 -95 -24.5t-75 -102.5v-434q0 -72 37 -114t114 -42q68 0 107 31t55 86z" />
<glyph unicode="q" horiz-adv-x="1232" d="M1290 -496q0 -12 -5 -28.5t-11 -16.5q-63 0 -152.5 6.5t-160.5 6.5q-70 0 -168.5 -6.5t-159.5 -6.5q-6 0 -11.5 15.5t-5.5 29.5t5.5 29.5t11.5 15.5q94 12 123.5 40t29.5 135v346q-41 -57 -104.5 -84t-153.5 -27q-209 0 -329.5 137t-120.5 340q0 219 162.5 359.5 t394.5 140.5q125 0 185.5 -34t137.5 -34q31 0 62 18.5t39 45.5q2 6 18.5 9t24.5 3q14 0 27.5 -5t13.5 -11l-5 -85q-3 -50 -3 -122v-997q0 -102 24.5 -133t114.5 -42q6 0 11 -16.5t5 -28.5zM786 201v489q0 53 -35.5 93t-109.5 40q-88 0 -140 -73.5t-52 -313.5q0 -178 46 -257 t126 -79q59 0 96.5 23t68.5 78z" />
<glyph unicode="r" horiz-adv-x="1001" d="M1006 770q0 -72 -42 -118t-110 -46q-43 0 -71.5 18.5t-47.5 37.5q-18 20 -39.5 38.5t-48.5 18.5q-43 0 -68.5 -26.5t-54.5 -78.5v-360q0 -96 33 -130t123 -44q6 0 11 -16.5t5 -28.5q0 -10 -5 -27.5t-11 -17.5q-63 0 -160.5 6t-169.5 6q-70 0 -160 -6t-151 -6 q-6 0 -11 17.5t-5 27.5q0 12 5 28.5t11 16.5q90 12 114.5 43t24.5 131v321q0 82 -19.5 108t-95.5 34q-6 0 -11 15.5t-5 25.5t5 26.5t11 16.5q68 16 187 61t184 76q6 4 20.5 10t24.5 6q25 0 36 -8t11 -18l-10 -197q47 88 127 147.5t150 59.5q100 0 156.5 -46t56.5 -122z" />
<glyph unicode="s" horiz-adv-x="972" d="M653 557q86 -37 163 -97.5t77 -168.5q0 -145 -115.5 -237.5t-300.5 -92.5q-131 0 -188.5 28.5t-163.5 28.5q-6 51 -16 147q-3 30 -11 76.5t-8 60.5q0 5 15 10q17 5 28 5q14 0 29.5 -5t17.5 -11q43 -109 121 -175.5t158 -66.5q61 0 92 33t31 90q0 68 -78 106l-158 74 q-88 39 -162.5 102.5t-74.5 174.5q0 127 128 213t279 86q98 0 169 -24.5t140 -24.5q0 -45 4.5 -123t8.5 -129q0 -6 -17.5 -11t-27.5 -5q-14 0 -28.5 4t-16.5 12q-23 94 -83.5 148.5t-125.5 54.5q-61 0 -94 -24.5t-33 -78.5q0 -70 81.5 -108.5t159.5 -71.5z" />
<glyph unicode="t" horiz-adv-x="874" d="M852 823q0 -23 -7 -48t-20 -25l-305 8v-531q0 -57 23.5 -84.5t81.5 -27.5q45 0 85 23.5t68 58.5q8 12 20.5 8t22.5 -15q8 -10 15.5 -25t7.5 -26v-8q0 -4 -4 -6q-43 -55 -131 -105.5t-207 -50.5q-168 0 -254 89q-84 87 -84 281v9l4 385q0 12 -6 20.5t-19 8.5h-127 q-8 0 -14 18.5t-6 26.5t6 25.5t12 21.5q115 61 230.5 144t195.5 165q4 6 19.5 11.5t25.5 5.5q14 0 29.5 -5.5t15.5 -11.5l-8 -268h303q12 0 19.5 -27t7.5 -45z" />
<glyph unicode="u" d="M1280 82q0 -14 -5 -26.5t-11 -12.5q-63 -6 -186.5 -28.5t-188.5 -43.5q-6 0 -20.5 -5t-28.5 -5q-16 0 -25.5 9.5t-9.5 15.5l-10 143q-47 -84 -125 -126t-189 -42q-160 0 -245.5 92t-85.5 260v330q0 92 -32 122q-30 28 -104 28h-10q-6 0 -11 14t-5 29q0 14 5 30.5t11 16.5 q70 0 219.5 14t227.5 33q6 2 10 2q12 0 22 -10q14 -14 15 -21v-629q0 -80 33.5 -119.5t103.5 -39.5q49 0 88 38.5t63 100.5v391q0 88 -31 120q-30 30 -106 30h-10q-6 0 -11 15t-5 28q0 14 5 30.5t11 16.5q68 0 219.5 12t228.5 31q18 6 32 -8.5t14 -20.5v-625 q0 -88 23.5 -113.5t107.5 -31.5q6 0 11 -17.5t5 -27.5z" />
<glyph unicode="v" horiz-adv-x="1105" d="M1165 862q0 -12 -5 -28.5t-11 -16.5q-70 -8 -114 -44t-77 -97l-344 -701q-6 -8 -19 -12t-42 -4q-33 0 -44 5t-15 11l-351 701q-37 74 -63.5 101.5t-118.5 39.5q-6 0 -11 15.5t-5 29.5t5 29.5t11 15.5q63 0 147.5 -6t155.5 -6q72 0 162 6t152 6q6 0 11 -16.5t5 -28.5 t-5 -28.5t-11 -16.5q-57 -6 -80 -21.5t-23 -41.5q0 -23 7 -41.5t16 -36.5l164 -346l172 346l12 31q4 10 4 28q0 33 -22.5 53.5t-84.5 28.5q-6 0 -11 16.5t-5 28.5t5 28.5t11 16.5q63 0 111.5 -6t108.5 -6q35 0 84 6t102 6q6 0 11 -16.5t5 -28.5z" />
<glyph unicode="w" horiz-adv-x="1708" d="M1767 862q0 -12 -5 -28.5t-11 -16.5q-70 -8 -114 -44t-76 -97l-344 -701q-4 -8 -19.5 -12t-40.5 -4q-35 0 -46 5t-15 11l-230 531l-284 -531q-6 -8 -19.5 -12t-42.5 -4q-33 0 -45 5t-16 11l-318 701q-31 72 -72.5 102.5t-107.5 38.5q-6 0 -11 15.5t-5 29.5t5 29.5 t11 15.5q63 0 147.5 -6t155.5 -6q72 0 144.5 6t134.5 6q6 0 11 -15t5 -30q0 -14 -5 -29.5t-11 -15.5q-35 -4 -52.5 -16.5t-17.5 -40.5q0 -16 7 -39t18 -45l151 -336l164 293l-18 43q-39 88 -69 112.5t-56 28.5q-6 0 -11.5 16.5t-5.5 28.5t5.5 28.5t11.5 16.5q63 0 118.5 -6 t126.5 -6q72 0 162 6t152 6q6 0 11 -16.5t5 -28.5t-5 -28.5t-11 -16.5q-53 -6 -74.5 -21.5t-21.5 -47.5q0 -14 4 -30t14 -42l129 -336l156 336q8 20 12 34.5t4 28.5q0 31 -20.5 50.5t-77.5 27.5q-6 0 -11.5 16.5t-5.5 28.5t5.5 28.5t11.5 16.5q63 0 107 -6t104 -6q35 0 84 6 t102 6q6 0 11 -16.5t5 -28.5z" />
<glyph unicode="x" horiz-adv-x="1183" d="M1194 35q0 -14 -5 -29.5t-11 -15.5q-63 0 -152.5 5t-161.5 5t-170 -5t-159 -5q-6 0 -11.5 15t-5.5 30q0 10 5 26.5t12 18.5q35 4 50 11t15 22q0 14 -11 36.5t-40 69.5l-66 107l-77 -111q-27 -37 -37.5 -56.5t-10.5 -35.5q0 -18 14.5 -28.5t53.5 -14.5q6 0 10 -17.5 t4 -27.5q0 -14 -5 -29.5t-11 -15.5q-49 0 -103.5 5t-103.5 5q-61 0 -111.5 -5t-93.5 -5q-6 0 -11 16.5t-5 28.5q0 10 6 26.5t12 18.5q102 12 145.5 31.5t114.5 107.5l152 187l-193 270q-74 100 -109.5 114.5t-127.5 24.5q-6 2 -11 16.5t-5 28.5t5 29.5t11 15.5 q63 0 153.5 -6t161.5 -6q72 0 166 6t156 6q6 0 11 -16.5t5 -28.5q0 -10 -5 -27.5t-11 -17.5q-33 -2 -48.5 -11t-15.5 -24q0 -14 13.5 -38.5t44.5 -65.5l73 -105l74 107l37 56q12 19 12 42q0 18 -15 25.5t-54 13.5q-6 2 -11.5 17.5t-5.5 27.5t5.5 28.5t11.5 16.5 q49 0 111.5 -6t111.5 -6q61 0 103 6t85 6q6 0 11.5 -15.5t5.5 -29.5q0 -10 -5.5 -27.5t-11.5 -17.5q-92 -8 -139 -31.5t-119 -109.5l-149 -187l182 -268q55 -80 97 -104.5t141 -34.5q6 0 11 -17.5t5 -27.5z" />
<glyph unicode="y" horiz-adv-x="1116" d="M1145 860q0 -14 -5 -29.5t-12 -15.5q-70 -6 -114.5 -42t-73.5 -99l-385 -828q-111 -233 -180.5 -324t-184.5 -91q-80 0 -125 38.5t-45 104.5q0 63 45.5 107.5t112.5 44.5q53 0 85 -19.5t59 -19.5q25 0 56.5 37.5t90.5 177.5l29 65l-357 707q-33 68 -66.5 99.5 t-113.5 41.5q-6 2 -11 16.5t-5 28.5t5 29.5t11 15.5q63 0 147.5 -6t155.5 -6q72 0 161 6t153 6q6 0 11 -16.5t5 -28.5q0 -10 -5 -27.5t-11 -17.5q-47 -4 -75 -18.5t-28 -44.5q0 -23 7 -41.5t16 -36.5l164 -346l153 346q8 20 11 30.5t3 28.5q0 33 -22.5 53.5t-81.5 28.5 q-6 2 -11 16.5t-5 28.5t5 29.5t11 15.5q63 0 111.5 -6t107.5 -6q35 0 84 6t100 6q6 0 11.5 -15.5t5.5 -29.5z" />
<glyph unicode="z" horiz-adv-x="1024" d="M938 141q-25 -109 -37 -151q-37 8 -144.5 10t-277.5 2q-172 0 -276.5 -2t-141.5 -8q-8 -2 -16 12t-8 29q0 6 2 12t4 10l518 740h-182q-86 0 -139.5 -53.5t-83.5 -145.5q-4 -8 -19.5 -12t-30.5 -4q-10 0 -25 5t-15 11q20 55 45.5 155.5t38.5 166.5q35 -8 114.5 -11.5 t253.5 -3.5q125 0 267.5 2t168.5 10q8 2 15.5 -10t7.5 -28q0 -8 -1 -14.5t-5 -10.5l-514 -737h233q63 0 125 64.5t82 133.5q0 8 18.5 12.5t28.5 4.5q14 0 30 -5q14 -5 13 -10q0 -22 -21.5 -84t-27.5 -90z" />
<glyph unicode="{" horiz-adv-x="905" d="M819 -168q0 -12 -5 -28.5t-11 -16.5q-272 0 -391 102.5t-113 257.5l16 324q4 70 -33.5 108.5t-146.5 47.5q-6 0 -12 17.5t-6 23.5t6 23.5t12 17.5q102 8 144.5 48t35.5 107l-16 324q-8 160 107.5 261t396.5 101q6 0 11 -17t5 -28q0 -12 -5 -28.5t-11 -16.5 q-98 -14 -127 -52t-27 -132l17 -381q4 -78 -55.5 -150.5t-215.5 -76.5q150 -4 213.5 -79t57.5 -149l-17 -381q-4 -88 28 -129t126 -53q6 0 11 -17.5t5 -27.5z" />
<glyph unicode="|" horiz-adv-x="296" d="M242 -4q0 -12 -27 -16.5t-47 -4.5q-23 0 -48.5 4.5t-25.5 16.5v1425q0 12 25.5 16.5t48.5 4.5q20 0 47 -5t27 -16v-1425z" />
<glyph unicode="}" horiz-adv-x="905" d="M109 1505q0 12 5 28.5t11 16.5q270 0 391 -103.5t113 -256.5l-17 -324q-6 -63 39 -106t142 -49q6 0 12 -17.5t6 -23.5t-6 -23.5t-12 -17.5q-102 -6 -143.5 -47t-37.5 -109l17 -323q6 -160 -108.5 -261.5t-395.5 -101.5q-6 0 -11 17.5t-5 27.5q0 12 5 28.5t11 16.5 q94 14 126 54t28 130l-17 381q-6 78 54.5 150t215.5 78q-145 6 -209.5 74.5t-60.5 152.5l17 381q2 94 -27 131t-127 51q-6 2 -11 18.5t-5 26.5z" />
<glyph unicode="~" horiz-adv-x="921" d="M868 616q-29 -184 -92 -245.5t-164 -48.5l-276 26q-66 6 -111 -24.5t-78 -90.5q-2 -4 -6 -6t-12 -2q-20 0 -39.5 14.5t-13.5 49.5q29 152 100.5 234.5t210.5 66.5l238 -27q74 -6 111.5 22.5t60.5 86.5q0 4 7 6t13 2q16 0 36.5 -16.5t14.5 -47.5z" />
<glyph unicode="&#xa1;" horiz-adv-x="522" d="M61 152l158 798q0 14 17.5 20.5t31.5 6.5t32.5 -6t18.5 -21l156 -798q14 -66 -33 -129.5t-174 -63.5q-113 0 -166 62.5t-41 130.5zM100 1278q0 68 50.5 118t117.5 50q68 0 118 -50t50 -118q0 -72 -48 -120t-120 -48q-68 0 -118 50t-50 118z" />
<glyph unicode="&#xa2;" horiz-adv-x="1067" d="M1020 690q0 -55 -35 -100t-102 -45q-63 0 -95 29.5t-49 70.5q-14 37 -25.5 83t-31.5 75l-11 -109q-11 -109 -28 -231l-28 -245l-11 -95q12 -2 29.5 -4t38.5 -2q80 0 159.5 32.5t120.5 73.5q2 4 13.5 -4t17.5 -14q10 -10 17.5 -22.5t7.5 -18.5q0 -4 -1 -9t-3 -8 q-55 -78 -166 -133t-250 -55h-2l-1 -18q-1 -18 -5 -41q-2 -23 -5 -40l-2 -18q0 -12 -14 -15t-27 -3q-12 0 -26 5t-14 17l12 119q-180 25 -309 155t-129 331q0 221 156.5 353t385.5 132h6l13 111q0 12 15 15t26 3q10 0 25.5 -6t15.5 -17l-13 -112q133 -18 228.5 -85 t95.5 -155zM565 500l24 216l13 122q-76 0 -121 -76t-45 -295q0 -102 18.5 -184t71.5 -123l13 108z" />
<glyph unicode="&#xa3;" horiz-adv-x="1357" d="M1311 332q-45 -158 -159 -266.5t-292 -108.5q-109 0 -186.5 34t-124.5 75q-41 -45 -121 -77t-143 -32q-104 0 -175 48t-71 134q0 104 75.5 174t174.5 70q51 0 90 -8t90 -31q4 23 7 44.5t3 45.5q0 49 -12 97.5t-39 99.5l-289 -6q-12 0 -18 22.5t-6 44.5q0 23 5 44.5 t19 21.5l226 -4q-45 47 -76 112.5t-31 132.5q0 184 160 315.5t411 131.5q174 0 288 -112.5t114 -215.5q0 -102 -47 -148t-115 -46q-70 0 -110.5 38.5t-40.5 108.5q0 45 28.5 68.5t28.5 83.5q0 47 -38 86t-99 39q-102 0 -155.5 -68t-53.5 -190q0 -86 49 -161t78 -177l284 6 q12 2 19.5 -22.5t7.5 -43.5q0 -23 -7 -45t-20 -22l-258 6q4 -20 7.5 -43t3.5 -53q0 -53 -17.5 -124t-60.5 -132q88 -23 155.5 -38.5t126.5 -15.5q78 0 129.5 36t104.5 114q2 6 19.5 2t27.5 -8q8 -4 21.5 -17.5t11.5 -19.5zM424 166q-35 29 -77 42t-87 13q-53 0 -84 -23.5 t-31 -56.5q0 -41 26 -63.5t91 -22.5q59 0 98 28t64 83z" />
<glyph unicode="&#xa4;" d="M1151 29q0 -10 -9 -28.5t-24 -31.5q-16 -14 -30.5 -22t-28.5 -8q-2 0 -7 2l-5 2l-111 112q-61 -47 -136 -72.5t-159 -25.5q-78 0 -156.5 25.5t-136.5 72.5l-112 -112l-5 -2q-4 -2 -8 -2q-12 0 -28.5 8t-30.5 22t-22.5 31.5t-8.5 28.5q0 4 2 8l2 4l111 111 q-43 57 -68.5 133.5t-25.5 160.5t25.5 161t68.5 134l-111 111l-2 4q-2 4 -2 8q0 14 8.5 28.5t22.5 31.5q12 14 30.5 22t28.5 8q4 0 8.5 -1t4.5 -3l112 -110q51 43 135 69.5t158 26.5q86 0 165 -27.5t130 -68.5l111 110q0 2 5 3t7 1q14 0 29.5 -8t29.5 -22t23.5 -30.5 t9.5 -29.5q0 -4 -2 -8l-2 -4l-113 -111q45 -55 69.5 -136t24.5 -159q0 -82 -25.5 -161.5t-68.5 -132.5l113 -111l2 -4q2 -4 2 -8zM985 446q0 170 -103.5 267.5t-240.5 97.5q-139 0 -241.5 -96.5t-102.5 -268.5q0 -170 103.5 -267t240.5 -97q139 0 241.5 96t102.5 268z" />
<glyph unicode="&#xa5;" horiz-adv-x="1595" d="M1665 1370q0 -12 -8 -29.5t-15 -17.5q-84 -8 -144 -47t-122 -125l-243 -352h288q12 0 19.5 -18.5t7.5 -30.5q0 -14 -7 -33t-20 -19h-358l-47 -67v-88h405q12 0 19.5 -19.5t7.5 -29.5q0 -14 -7 -33t-20 -19h-405v-190q0 -84 29.5 -122t150.5 -50q6 0 11 -17.5t5 -27.5 q0 -12 -5 -28.5t-11 -16.5q-100 0 -194.5 6t-188.5 6t-195.5 -6t-201.5 -6q-6 0 -11.5 15t-5.5 30q0 10 5.5 26.5t11.5 18.5q119 14 156.5 51t37.5 121v190h-407q-12 0 -18.5 18.5t-6.5 33.5q0 12 7.5 30.5t17.5 18.5h407v84l-45 71h-362q-12 0 -18.5 18.5t-6.5 33.5 q0 14 7.5 31.5t17.5 17.5h299l-223 352q-55 86 -111.5 123t-169.5 49q-6 2 -11 17.5t-5 29.5q0 10 5 27.5t11 17.5q72 0 175 -6t183 -6q82 0 212 6t231 6q6 0 11 -17.5t5 -27.5t-5 -28.5t-11 -18.5q-74 -8 -104.5 -27.5t-30.5 -46.5q0 -20 12 -43.5t31 -54.5l260 -403 l270 403q16 25 26.5 46.5t10.5 41.5q0 31 -28.5 52.5t-115.5 31.5q-6 2 -8 18.5t-2 28.5q0 10 5 27.5t12 17.5q88 0 145 -6t141 -6q63 0 116.5 6t109.5 6q6 0 11 -17.5t5 -27.5z" />
<glyph unicode="&#xa6;" horiz-adv-x="352" d="M250 784q0 -12 -25.5 -16t-48.5 -4q-20 0 -47 5t-27 15v611q0 12 27 16t47 4q23 0 48.5 -4t25.5 -16v-611zM250 -31q0 -12 -25.5 -16t-48.5 -4q-20 0 -47 5t-27 15v611q0 12 27 16t47 4q23 0 48.5 -4t25.5 -16v-611z" />
<glyph unicode="&#xa7;" horiz-adv-x="1337" d="M674 -346q0 102 -93.5 209.5t-191.5 208.5q-106 106 -196.5 225t-90.5 250q0 156 107.5 298t236.5 216q25 156 157 270.5t321 114.5q135 0 214 -60.5t79 -146.5q0 -76 -45.5 -126t-112.5 -50q-59 0 -90 38t-54 85q-18 41 -44.5 83t-59.5 42q-66 0 -97.5 -31t-31.5 -123 q0 -98 99 -210l196 -210q98 -102 195.5 -236t97.5 -259q0 -154 -115 -284t-237 -198q-27 -162 -165.5 -277.5t-320.5 -115.5q-143 0 -226 57.5t-83 143.5q0 70 48 122t134 52q61 0 91 -39t46 -82q18 -43 39 -81t62 -38q61 0 96 34t35 118zM1004 47q0 104 -88.5 217 t-192.5 217l-209 217q-84 90 -102 207q-31 -23 -45.5 -56.5t-14.5 -84.5q0 -119 88 -232.5t193 -216.5q104 -100 200.5 -205.5t110.5 -203.5q37 41 48.5 65.5t11.5 75.5z" />
<glyph unicode="&#xa8;" horiz-adv-x="819" d="M821 1227q0 -74 -53 -127t-127 -53t-123 53t-49 127t49 128t123 54t127 -54t53 -128zM371 1227q0 -72 -57.5 -126t-133.5 -54q-74 0 -128 53t-54 127t54 128t128 54t132.5 -55t58.5 -127z" />
<glyph unicode="&#xa9;" horiz-adv-x="1669" d="M1575 702q0 -305 -219 -525t-525 -220q-307 0 -526 219t-219 526q0 305 220 524.5t525 219.5q309 0 526.5 -220.5t217.5 -523.5zM1509 702q0 281 -199.5 479.5t-478.5 198.5q-281 0 -480 -199.5t-199 -478.5q0 -281 200.5 -480t478.5 -199q281 0 479.5 200t198.5 479z M1210 559q-10 -45 -21 -121t-22 -129q-57 0 -140 -17.5t-159 -17.5q-254 0 -373.5 131.5t-119.5 292.5q0 166 131 299t373 133q76 0 145.5 -10t124.5 -10q4 -49 12 -124t15 -126q0 -4 -10.5 -7t-16.5 -3t-13.5 3t-9.5 7q-18 76 -88.5 142.5t-163.5 66.5 q-135 0 -200.5 -102.5t-65.5 -268.5q0 -164 64.5 -263t195.5 -99q104 0 179 63.5t114 159.5q2 4 10.5 6t14.5 2t15 -3t9 -5z" />
<glyph unicode="&#xaa;" horiz-adv-x="737" d="M735 915q0 -6 -1 -9t-3 -5q-25 -29 -75 -45t-111 -16q-55 0 -86 22.5t-41 61.5q-37 -49 -74 -67.5t-113 -18.5t-127 31.5t-51 103.5q0 74 74 123t295 96l2 108q0 35 -8 44.5t-39 9.5q-25 0 -47.5 -5.5t-26.5 -35.5q-6 -80 -32.5 -108.5t-82.5 -28.5q-51 0 -75.5 28.5 t-24.5 69.5q0 63 103.5 117.5t238.5 54.5q121 0 163 -56.5t42 -164.5l-6 -197q-6 -47 10 -60.5t29 -13.5q10 0 16 -1t12 3q8 4 23.5 -13.5t15.5 -27.5zM422 1028v100q-78 -18 -110.5 -43.5t-32.5 -83.5q0 -33 16 -41t47 -8q25 0 49.5 14.5t30.5 61.5z" />
<glyph unicode="&#xab;" horiz-adv-x="997" d="M899 125q4 -10 -2 -26.5t-16 -24.5l-22 -16q-7 -5 -21 -5q-2 0 -5 1l-4 1l-331 328q-4 4 -9.5 15.5t-5.5 21.5q0 8 6 20l9 17l331 325l4 2q3 2 5 2q12 0 22 -7l21 -15q8 -6 16 -23.5t2 -27.5l-129 -293zM506 125q4 -10 -2 -26.5t-19 -24.5l-18 -15q-8 -6 -23 -6 q-2 0 -6 1l-4 1l-330 328q-4 4 -9 15.5t-5 21.5q0 8 6 20l8 17l330 325l4 2q4 2 6 2q14 0 22 -6l19 -16q10 -8 18.5 -24.5t2.5 -26.5l-131 -293z" />
<glyph unicode="&#xac;" horiz-adv-x="999" d="M928 59q0 -12 -24.5 -19t-47.5 -7q-25 0 -49.5 7t-24.5 17v326h-716q-12 0 -18.5 23.5t-6.5 48.5t7 48t18 23h821q18 0 29.5 -13t11.5 -34v-420z" />
<glyph unicode="&#xad;" horiz-adv-x="843" d="M702 692q0 -41 -7 -64.5t-19 -23.5h-533q-12 0 -19 23.5t-7 64.5q0 39 7 63.5t19 24.5h533q12 0 19 -24.5t7 -63.5z" />
<glyph unicode="&#xae;" horiz-adv-x="1669" d="M1575 702q0 -305 -219 -525t-525 -220q-307 0 -526 219t-219 526q0 305 220 524.5t525 219.5q309 0 526.5 -220.5t217.5 -523.5zM1509 702q0 281 -199.5 479.5t-478.5 198.5q-281 0 -480 -199.5t-199 -478.5q0 -281 200.5 -480t478.5 -199q281 0 479.5 200t198.5 479z M1352 324q0 -8 -3 -18.5t-8 -10.5q-41 0 -81.5 5t-71.5 5q-41 0 -78 -4t-76 -4l-145 278q-29 49 -54.5 66.5t-74.5 17.5v-192q0 -53 19.5 -81t84.5 -36q2 0 5 -10t3 -18q0 -6 -3 -16.5t-5 -10.5q-57 0 -103 4t-112 4q-68 0 -119 -4t-108 -4q-2 0 -5 10t-3 17q0 8 3 17t5 11 q88 12 103.5 39t15.5 88v438q0 66 -16.5 89.5t-102.5 37.5q-2 0 -5 10.5t-3 16.5q0 8 3 18.5t5 10.5q57 0 117.5 -5.5t126.5 -5.5q51 0 112.5 4.5t116.5 4.5q147 0 229 -52.5t82 -148.5q0 -61 -44 -114.5t-128 -84.5l162 -254q29 -45 52.5 -63.5t94.5 -28.5q2 0 5.5 -9 t3.5 -17zM981 881q0 76 -29.5 113.5t-109.5 37.5q-45 0 -63.5 -14t-18.5 -68v-229q12 0 24.5 -2t32.5 -2q86 0 125 36t39 128z" />
<glyph unicode="&#xaf;" horiz-adv-x="819" d="M752 1321q0 -31 -12.5 -59.5t-30.5 -28.5h-598q-20 0 -31.5 31.5t-11.5 56.5t10 57.5t33 32.5h598q18 0 30.5 -31.5t12.5 -58.5z" />
<glyph unicode="&#xb0;" horiz-adv-x="534" d="M502 1225q0 -88 -63.5 -156t-170.5 -68q-102 0 -168.5 69t-66.5 155t66.5 153.5t168.5 67.5q100 0 167 -67.5t67 -153.5zM391 1225q0 57 -33.5 96t-89.5 39q-49 0 -86 -39t-37 -96q0 -59 35 -98.5t88 -39.5t88 39.5t35 98.5z" />
<glyph unicode="&#xb1;" horiz-adv-x="917" d="M840 604q0 -23 -7.5 -47.5t-19.5 -24.5h-278v-274q0 -12 -25 -19.5t-49 -7.5q-20 0 -46 7.5t-26 19.5v274h-274q-12 0 -19.5 25t-7.5 47q0 23 7 48.5t20 25.5h274v272q0 10 24.5 17.5t47.5 7.5q25 0 49.5 -6t24.5 -19v-272h278q12 0 19.5 -27t7.5 -47zM840 72 q0 -23 -7.5 -47.5t-19.5 -24.5h-698q-12 0 -19.5 24.5t-7.5 47.5t7 47t20 24h698q12 0 19.5 -25.5t7.5 -45.5z" />
<glyph unicode="&#xb2;" horiz-adv-x="804" d="M754 1020l-2 -9q-16 -27 -53 -110.5t-54 -126.5q-31 6 -112.5 7t-182.5 1q-100 0 -193.5 -1t-119.5 -5q-6 0 -15.5 22.5t-9.5 28.5q0 2 1 5l1 3q215 174 308.5 285t93.5 235q0 57 -29 92t-78 35q-57 0 -96 -23.5t-78 -90.5q-2 -2 -6 -4t-6 -2q-10 0 -38 20.5t-28 26.5 l2 6q47 109 127 169t185 60q141 0 222 -72.5t81 -189.5q0 -106 -90 -204.5t-299 -223.5h276q43 0 74 34t49 70q0 2 5 4.5t11 2.5q18 0 36 -14.5t18 -30.5z" />
<glyph unicode="&#xb3;" horiz-adv-x="749" d="M686 1036q0 -131 -137 -247t-313 -116q-133 0 -180.5 46.5t-47.5 87.5q0 39 23.5 69.5t77.5 30.5q29 0 48 -22.5t31 -45.5q16 -27 34 -46t54 -19q90 0 129 47t39 158q0 72 -28.5 116.5t-108.5 44.5q-35 0 -55.5 -4t-34.5 -10q-6 0 -15 9t-16 24q-6 12 -7 26.5t3 18.5 q117 45 154 88t37 121q0 51 -21.5 76.5t-64.5 25.5q-39 0 -66.5 -15.5t-60.5 -64.5q-4 -6 -19.5 -2t-27.5 15q-12 10 -20.5 22t-6.5 17q45 70 113.5 113.5t167.5 43.5q111 0 183.5 -56t72.5 -138q0 -59 -50.5 -112.5t-166.5 -92.5q127 8 203.5 -52.5t76.5 -156.5z" />
<glyph unicode="&#xb4;" horiz-adv-x="819" d="M676 1356q0 -20 -12 -45.5t-31 -34.5l-387 -184q-2 -1 -4 -3t-9 -2l-6 3q-6 2 -12 6t-11 8t-9 8q-4 6 -9.5 16.5t-5.5 20.5q0 4 1.5 9.5t4.5 8.5l277 330q9 11 26 19t31 8q29 0 66 -19.5t55 -46.5q15 -23 25 -52.5t10 -49.5z" />
<glyph unicode="&#xb5;" d="M1280 80q0 -12 -5 -26.5t-11 -14.5q-66 -6 -190 -28.5t-185 -41.5l-21 -7q-14 -5 -28 -5q-16 0 -25.5 9t-9.5 18l-10 143q-47 -84 -110.5 -127t-135.5 -43q-20 0 -41 3t-31 9q-8 4 -16 6t-17 2q-8 0 -14 -6t-6 -20q0 -115 12.5 -172.5t28.5 -85.5q16 -29 28.5 -38 t12.5 -28q0 -57 -137.5 -127.5t-198.5 -70.5q-23 0 -34 16t-11 37q0 14 4 34.5t8 84.5q4 51 8.5 164.5t4.5 271.5v602q0 92 -32 123t-114 29q-6 0 -11 14t-5 29q0 10 5 28.5t11 18.5q66 0 216.5 13t230.5 34q18 6 32.5 -8.5t14.5 -20.5v-631q0 -80 33.5 -119.5t103.5 -39.5 q49 0 88 39.5t63 99.5v391q0 88 -31.5 121t-115.5 31q-6 0 -11 15t-5 28q0 10 5 28.5t11 18.5q68 0 222.5 12t225.5 31q16 4 31 -9.5t15 -19.5v-627q0 -88 23.5 -112.5t107.5 -30.5q6 0 11 -17.5t5 -27.5z" />
<glyph unicode="&#xb6;" horiz-adv-x="1327" d="M1372 1358q0 -12 -5 -28.5t-11 -16.5h-213v-1864q0 -6 -18.5 -11t-30.5 -5t-31 5t-19 11v1864h-122v-1551q0 -141 -89.5 -242.5t-230.5 -101.5q-150 0 -225.5 75t-75.5 198q0 94 65.5 173t170.5 79q84 0 135 -51.5t51 -135.5q0 -43 -26.5 -86t-88.5 -43q-45 0 -72.5 29 t-27.5 70q0 49 25.5 63t25.5 35q0 10 -7 15t-22 5q-59 0 -95 -44t-36 -109q0 -84 53.5 -132t145.5 -48q104 0 164.5 73.5t60.5 177.5v467h-139q-152 0 -265.5 49.5t-187.5 129.5q-74 82 -109.5 187t-35.5 220q0 121 34 220.5t111 187.5q70 80 188 130t265 50h672 q6 0 11 -16.5t5 -28.5z" />
<glyph unicode="&#xb7;" horiz-adv-x="655" d="M514 692q0 -76 -54 -131t-132 -55q-76 0 -131.5 55t-55.5 131t55.5 131.5t131.5 55.5q78 0 132 -55.5t54 -131.5z" />
<glyph unicode="&#xb8;" horiz-adv-x="819" d="M561 -291q0 -86 -88 -135t-174 -49q-76 0 -111.5 25.5t-35.5 56.5q0 25 14 44t47 19q39 0 67.5 -30.5t61.5 -30.5q25 0 36 14.5t11 50.5q0 37 -45 69t-82 50q-8 4 -14 12.5t-6 18.5q0 4 2 9t4 9l127 187h114l-57 -101q-4 -4 -5 -9t-1 -9q0 -8 4 -15.5t16 -15.5 q49 -31 82 -64.5t33 -105.5z" />
<glyph unicode="&#xb9;" horiz-adv-x="647" d="M618 821q0 -12 -5 -28.5t-11 -16.5q-51 0 -129 3t-133 3q-51 0 -132 -3t-126 -3q-6 0 -11 15.5t-5 29.5t4 28.5t12 16.5q72 6 102.5 23.5t30.5 78.5v394q0 61 -14.5 83.5t-83.5 22.5q-6 0 -17.5 -1t-17.5 -1t-11 13.5t-5 27.5t4 28.5t12 16.5q68 18 171 36.5t165 49.5 q8 4 19.5 7t17.5 3t13 -6t7 -16q0 -37 -6 -96.5t-6 -104.5v-457q0 -59 34.5 -78.5t104.5 -23.5q8 0 12 -16.5t4 -28.5z" />
<glyph unicode="&#xba;" horiz-adv-x="790" d="M756 1133q0 -123 -89 -213.5t-253 -90.5q-170 0 -256 91.5t-86 212.5q0 117 85 212t257 95q166 0 254 -95t88 -212zM512 1133q0 125 -18.5 177t-79.5 52t-80 -51t-19 -178q0 -133 16.5 -179.5t82.5 -46.5q61 0 79.5 50.5t18.5 175.5z" />
<glyph unicode="&#xbb;" horiz-adv-x="997" d="M944 420q0 -10 -5 -22.5t-9 -14.5l-330 -328l-4 -1q-4 -1 -6 -1q-12 0 -19.5 4t-21.5 17q-12 10 -18.5 25.5t-2.5 25.5l131 295l-131 293q-6 10 2.5 25.5t18.5 25.5t20.5 16t20.5 6q2 0 6 -2l4 -2l330 -325l8 -17q6 -12 6 -20zM551 420q0 -10 -5 -22.5t-9 -14.5 l-332 -328l-3 -1q-3 -1 -5 -1q-10 0 -20.5 5t-22.5 16q-12 12 -17.5 26.5t-1.5 24.5l129 295l-129 293q-6 10 2 26.5t17 24.5q14 12 23 17t20 5q2 0 5 -2l3 -2l332 -325l8 -17q6 -12 6 -20z" />
<glyph unicode="&#xbc;" horiz-adv-x="2293" d="M2222 74q0 -23 -6 -48.5t-19 -25.5h-225v-418q0 -18 -43 -29.5t-131 -11.5q-86 0 -129 11.5t-43 29.5v418h-491q-10 0 -17.5 15.5t-7.5 27.5q0 6 2 12t4 11l768 886q6 10 18.5 14.5t26.5 4.5q23 0 41.5 -9.5t18.5 -21.5q-6 -80 -11.5 -180.5t-5.5 -163.5v-451h225 q10 0 17.5 -24t7.5 -47zM1626 145v334l-297 -334h297zM1540 1421l-956 -1464q-6 -10 -17.5 -8t-25.5 12q-16 8 -21.5 17.5t-1.5 19.5l959 1466q4 10 17 7t26 -11q14 -8 21 -17.5t-1 -21.5zM881 33q0 -10 -5.5 -27.5t-11.5 -17.5q-72 0 -185.5 6t-191.5 6q-74 0 -194.5 -6 t-183.5 -6q-6 0 -11.5 17.5t-5.5 27.5q0 12 5 28.5t12 16.5q94 12 149 27.5t55 138.5v446q0 117 -60 136.5t-144 29.5q-6 0 -11.5 16.5t-5.5 28.5t5 28.5t12 16.5q72 0 186.5 -6t191.5 -6q74 0 194 6t183 6q6 0 11.5 -15.5t5.5 -29.5t-5.5 -29.5t-11.5 -15.5 q-82 -8 -142 -33.5t-60 -132.5v-446q0 -115 59 -136.5t143 -29.5q6 0 11.5 -15.5t5.5 -29.5z" />
<glyph unicode="&#xbd;" horiz-adv-x="2127" d="M2070 332q-29 -55 -75.5 -164t-71.5 -180q-37 8 -122 10t-234 2q-162 0 -278 -2t-148 -8q-8 0 -16.5 14t-8.5 29q0 6 2 11t4 9q274 197 387 306.5t113 228.5q0 70 -40 115t-128 45q-78 0 -129 -41t-102 -97q-6 -4 -22.5 1t-27.5 14q-8 8 -16 21t-6 20q90 141 200.5 227 t270.5 86q156 0 248 -87t92 -212q0 -129 -110.5 -238.5t-362.5 -214.5l315 9q68 4 105 33.5t78 95.5q2 6 21 5t30 -8q10 -4 23 -14t9 -16zM1540 1421l-956 -1464q-6 -10 -17.5 -8t-25.5 12q-16 8 -21.5 17.5t-1.5 19.5l959 1466q4 10 17 7t26 -11q14 -8 21 -17.5t-1 -21.5z M881 33q0 -10 -5.5 -27.5t-11.5 -17.5q-72 0 -185.5 6t-191.5 6q-74 0 -194.5 -6t-183.5 -6q-6 0 -11.5 17.5t-5.5 27.5q0 12 5 28.5t12 16.5q94 12 149 27.5t55 138.5v446q0 117 -60 136.5t-144 29.5q-6 0 -11.5 16.5t-5.5 28.5t5 28.5t12 16.5q72 0 186.5 -6t191.5 -6 q74 0 194 6t183 6q6 0 11.5 -15.5t5.5 -29.5t-5.5 -29.5t-11.5 -15.5q-82 -8 -142 -33.5t-60 -132.5v-446q0 -115 59 -136.5t143 -29.5q6 0 11.5 -15.5t5.5 -29.5z" />
<glyph unicode="&#xbe;" horiz-adv-x="2340" d="M2269 74q0 -23 -6 -48.5t-19 -25.5h-225v-418q0 -18 -43 -29.5t-131 -11.5q-86 0 -129 11.5t-43 29.5v418h-491q-10 0 -17.5 15.5t-7.5 27.5q0 6 2 12t4 11l768 886q6 10 18.5 14.5t26.5 4.5q23 0 41.5 -9.5t18.5 -21.5q-6 -80 -11.5 -180.5t-5.5 -163.5v-451h225 q10 0 17.5 -24t7.5 -47zM1673 145v334l-297 -334h297zM1587 1421l-956 -1464q-6 -10 -17.5 -8t-25.5 12q-16 8 -21.5 17.5t-1.5 19.5l959 1466q4 10 17 7t26 -11q14 -8 21 -17.5t-1 -21.5zM930 33q0 -197 -197.5 -344.5t-445.5 -147.5q-133 0 -209 46t-76 124q0 59 44 100.5 t110 41.5q53 0 82.5 -35t44.5 -70q14 -33 35.5 -68.5t48.5 -35.5q104 0 159.5 92t55.5 274q0 96 -38 167t-134 71q-53 0 -83 -11.5t-67 -33.5q-6 -2 -18.5 8t-20.5 25q-6 10 -8 26.5t4 20.5q131 66 209 163t78 183q0 63 -34 105t-101 42q-63 0 -110.5 -31.5t-102.5 -91.5 q-6 -4 -22.5 1t-27.5 14q-8 8 -16 21t-6 20q92 131 201.5 199.5t236.5 68.5q147 0 236.5 -89t89.5 -196q0 -119 -75 -194.5t-226 -126.5q195 0 289 -99.5t94 -238.5z" />
<glyph unicode="&#xbf;" horiz-adv-x="839" d="M133 434q0 176 71.5 242.5t157.5 97.5q35 14 78 25.5t74 34.5q31 20 46 45.5t5 83.5l-2 8q-2 6 15.5 14t31.5 12q14 2 31.5 -2t20.5 -10l38 -270q12 -94 -52 -134t-142 -61q-68 -20 -143.5 -55t-75.5 -90q0 -35 29.5 -68t115.5 -33q45 0 108.5 14.5t102.5 14.5 q80 0 129 -49t49 -117q0 -80 -55 -130t-158 -50q-158 0 -316.5 147.5t-158.5 329.5zM440 1278q0 68 50.5 118t117.5 50q68 0 118 -50t50 -118q0 -72 -48 -120t-120 -48q-68 0 -118 50t-50 118z" />
<glyph unicode="&#xc0;" horiz-adv-x="1632" d="M1620 35q0 -12 -5 -28.5t-11 -16.5q-98 0 -198.5 5t-184.5 5q-94 0 -202 -5t-208 -5q-6 0 -11 15t-5 30q0 10 3 26.5t9 18.5q98 6 130 25.5t32 60.5q0 16 -7.5 40.5t-15.5 45.5l-55 143h-430l-49 -119q-12 -29 -19.5 -54t-7.5 -44q0 -43 23.5 -68.5t130.5 -29.5 q6 0 8 -17.5t2 -27.5q0 -14 -5 -29.5t-12 -15.5q-88 0 -137 5t-131 5q-68 0 -119 -5t-120 -5q-6 0 -10.5 17.5t-4.5 27.5t9.5 26.5t15.5 18.5q88 8 137 53t100 152l508 1145q2 6 22.5 11t39.5 5q18 0 38.5 -5t22.5 -11l455 -1145q37 -102 88 -148.5t153 -56.5 q6 0 13.5 -17.5t7.5 -27.5zM852 494l-172 450l-180 -450h352zM985 1597q0 -12 -5 -23t-9 -18q-8 -8 -22.5 -16t-20.5 -8h-8q-2 0 -4 2l-404 192q-25 10 -37 34t-12 50q0 31 10.5 58.5t26.5 52.5q16 23 58 45.5t73 22.5q18 0 35.5 -6.5t27.5 -20.5l285 -346q2 -2 4 -8.5 t2 -10.5z" />
<glyph unicode="&#xc1;" horiz-adv-x="1632" d="M1620 35q0 -12 -5 -28.5t-11 -16.5q-98 0 -198.5 5t-184.5 5q-94 0 -202 -5t-208 -5q-6 0 -11 15t-5 30q0 10 3 26.5t9 18.5q98 6 130 25.5t32 60.5q0 16 -7.5 40.5t-15.5 45.5l-55 143h-430l-49 -119q-12 -29 -19.5 -54t-7.5 -44q0 -43 23.5 -68.5t130.5 -29.5 q6 0 8 -17.5t2 -27.5q0 -14 -5 -29.5t-12 -15.5q-88 0 -137 5t-131 5q-68 0 -119 -5t-120 -5q-6 0 -10.5 17.5t-4.5 27.5t9.5 26.5t15.5 18.5q88 8 137 53t100 152l508 1145q2 6 22.5 11t39.5 5q18 0 38.5 -5t22.5 -11l455 -1145q37 -102 88 -148.5t153 -56.5 q6 0 13.5 -17.5t7.5 -27.5zM852 494l-172 450l-180 -450h352zM1288 1812q0 -25 -10 -48t-35 -35l-405 -195q-2 0 -5.5 -1t-7.5 -1q-6 0 -20 7t-23 17q-4 6 -9 17.5t-5 21.5q0 4 2 10.5t4 10.5l291 346q8 12 26.5 19.5t34.5 7.5q33 0 70 -20.5t57 -47.5q18 -25 26.5 -54.5 t8.5 -54.5z" />
<glyph unicode="&#xc2;" horiz-adv-x="1632" d="M1620 35q0 -12 -5 -28.5t-11 -16.5q-98 0 -198.5 5t-184.5 5q-94 0 -202 -5t-208 -5q-6 0 -11 15t-5 30q0 10 3 26.5t9 18.5q98 6 130 25.5t32 60.5q0 16 -7.5 40.5t-15.5 45.5l-55 143h-430l-49 -119q-12 -29 -19.5 -54t-7.5 -44q0 -43 23.5 -68.5t130.5 -29.5 q6 0 8 -17.5t2 -27.5q0 -14 -5 -29.5t-12 -15.5q-88 0 -137 5t-131 5q-68 0 -119 -5t-120 -5q-6 0 -10.5 17.5t-4.5 27.5t9.5 26.5t15.5 18.5q88 8 137 53t100 152l508 1145q2 6 22.5 11t39.5 5q18 0 38.5 -5t22.5 -11l455 -1145q37 -102 88 -148.5t153 -56.5 q6 0 13.5 -17.5t7.5 -27.5zM852 494l-172 450l-180 -450h352zM1258 1589q0 -10 -7.5 -22.5t-15.5 -18.5t-16.5 -10t-16.5 -4t-15 3t-13 7l-332 146l-332 -146q-6 -2 -14.5 -6t-14.5 -4q-8 0 -16 3t-18 11t-16.5 19.5t-6.5 21.5q0 4 3 10l5 11l365 340q6 8 19.5 14t25.5 6 q16 0 26.5 -6t16.5 -14l364 -340q2 -2 5.5 -9.5t3.5 -11.5z" />
<glyph unicode="&#xc3;" horiz-adv-x="1632" d="M1620 35q0 -12 -5 -28.5t-11 -16.5q-98 0 -198.5 5t-184.5 5q-94 0 -202 -5t-208 -5q-6 0 -11 15t-5 30q0 10 3 26.5t9 18.5q98 6 130 25.5t32 60.5q0 16 -7.5 40.5t-15.5 45.5l-55 143h-430l-49 -119q-12 -29 -19.5 -54t-7.5 -44q0 -43 23.5 -68.5t130.5 -29.5 q6 0 8 -17.5t2 -27.5q0 -14 -5 -29.5t-12 -15.5q-88 0 -137 5t-131 5q-68 0 -119 -5t-120 -5q-6 0 -10.5 17.5t-4.5 27.5t9.5 26.5t15.5 18.5q88 8 137 53t100 152l508 1145q2 6 22.5 11t39.5 5q18 0 38.5 -5t22.5 -11l455 -1145q37 -102 88 -148.5t153 -56.5 q6 0 13.5 -17.5t7.5 -27.5zM852 494l-172 450l-180 -450h352zM1295 1980q12 -6 23.5 -23.5t7.5 -37.5q-29 -186 -95.5 -256t-174.5 -53l-406 57q-61 8 -109 -18.5t-89 -102.5q-10 -18 -47 -5t-29 63q33 168 113.5 253t214.5 64l366 -57q63 -8 107.5 17.5t72.5 94.5 q4 8 17.5 9t27.5 -5z" />
<glyph unicode="&#xc4;" horiz-adv-x="1632" d="M1620 35q0 -12 -5 -28.5t-11 -16.5q-98 0 -198.5 5t-184.5 5q-94 0 -202 -5t-208 -5q-6 0 -11 15t-5 30q0 10 3 26.5t9 18.5q98 6 130 25.5t32 60.5q0 16 -7.5 40.5t-15.5 45.5l-55 143h-430l-49 -119q-12 -29 -19.5 -54t-7.5 -44q0 -43 23.5 -68.5t130.5 -29.5 q6 0 8 -17.5t2 -27.5q0 -14 -5 -29.5t-12 -15.5q-88 0 -137 5t-131 5q-68 0 -119 -5t-120 -5q-6 0 -10.5 17.5t-4.5 27.5t9.5 26.5t15.5 18.5q88 8 137 53t100 152l508 1145q2 6 22.5 11t39.5 5q18 0 38.5 -5t22.5 -11l455 -1145q37 -102 88 -148.5t153 -56.5 q6 0 13.5 -17.5t7.5 -27.5zM852 494l-172 450l-180 -450h352zM1296 1743q0 -76 -57 -133.5t-133 -57.5q-78 0 -134.5 57.5t-56.5 133.5t56.5 133t134.5 57q76 0 133 -57t57 -133zM780 1743q0 -76 -57 -133.5t-133 -57.5q-78 0 -134.5 57.5t-56.5 133.5t56.5 133t134.5 57 q76 0 133 -57t57 -133z" />
<glyph unicode="&#xc5;" horiz-adv-x="1632" d="M922 494l-172 450l-181 -450h353zM1040 1577q0 57 -35.5 99t-93.5 42q-51 0 -90 -42t-39 -99q0 -63 37 -103t92 -40q59 0 94 38.5t35 104.5zM819 1360q-68 27 -110.5 86t-42.5 131q0 88 69.5 159.5t175.5 71.5t176 -71.5t70 -159.5q0 -72 -43 -133.5t-115 -85.5 l428 -1073q37 -102 89.5 -149.5t152.5 -55.5q6 0 13.5 -19.5t7.5 -27.5q0 -10 -5.5 -27.5t-11.5 -17.5q-94 0 -196.5 6t-186.5 6q-92 0 -200.5 -6t-208.5 -6l-9 17q-8 17 -8 28q0 12 6 29l7 18q98 0 129.5 22.5t31.5 63.5q0 14 -7 39.5t-15 46.5l-55 143h-431l-49 -119 q-8 -31 -17 -57t-9 -41q0 -43 29.5 -70.5t123.5 -27.5q6 0 8 -19.5t2 -27.5q0 -10 -5 -27.5t-11 -17.5q-86 0 -136 6t-132 6q-63 0 -116.5 -6t-123.5 -6l-7 17q-7 17 -7 28q0 8 12 27l12 20q88 6 138.5 51t99.5 154z" />
<glyph unicode="&#xc6;" horiz-adv-x="2326" d="M2214 469q-14 -115 -27.5 -243t-19.5 -236q-129 4 -323.5 7t-313.5 3t-338 -4l-328 -6q-6 0 -11 16.5t-5 28.5q0 10 5 26.5t11 18.5q121 14 159 51t38 121v209h-475l-113 -176q-31 -49 -43 -80t-12 -49q0 -29 25.5 -51.5t113.5 -24.5q6 0 9 -17.5t3 -27.5q0 -14 -5 -29.5 t-11 -15.5q-88 0 -145.5 5t-141.5 5q-68 0 -125 -5t-129 -5q-6 0 -10 15t-4 30q0 10 9 26.5t16 18.5q88 8 152.5 53t137.5 152l568 850q49 74 16 127t-178 61q-6 2 -11.5 18.5t-5.5 26.5q0 14 5.5 29.5t11.5 15.5q49 0 159.5 -3t233.5 -3q86 0 210 -2t187 -2q113 0 317 3 t322 7q-2 -84 5.5 -224t11.5 -233q0 -8 -16.5 -17t-41.5 -9q-14 0 -24 4t-10 8q-16 129 -107.5 245t-257.5 116h-123q-41 0 -80 -20.5t-39 -100.5v-424h70q102 0 164.5 61.5t73.5 161.5q0 6 17 11t28 5q14 0 29.5 -5t15.5 -11q0 -76 -5.5 -141.5t-5.5 -134.5 q0 -72 5.5 -134.5t5.5 -136.5q0 -6 -15.5 -11t-29.5 -5q-10 0 -26.5 5t-18.5 11q-12 106 -68.5 164.5t-169.5 58.5h-70v-436q0 -74 39 -97.5t80 -23.5h107q156 0 276.5 113t151.5 276q0 4 9 6.5t21 2.5q23 0 44.5 -8.5t19.5 -20.5zM1061 559v651l-416 -651h416z" />
<glyph unicode="&#xc7;" horiz-adv-x="1624" d="M1509 492l-29 -235l-26 -212q-92 0 -228 -44t-292 -44q-209 0 -370 62.5t-267 164.5t-158.5 234.5t-52.5 275.5q0 297 234.5 524.5t629.5 227.5q174 0 287 -31t207 -31q4 -98 12 -221t17 -225q0 -6 -18.5 -11t-33.5 -5q-10 0 -23.5 4t-17.5 12q-27 150 -152.5 280 t-285.5 130q-242 0 -338 -185.5t-96 -468.5q0 -276 95 -457.5t331 -181.5q188 0 307 131t178 306q2 8 17.5 12t25.5 4t28.5 -5t18.5 -11zM1096 -291q0 -86 -88 -135t-174 -49q-76 0 -111.5 25.5t-35.5 56.5q0 25 14 44t47 19q39 0 67.5 -30.5t61.5 -30.5q25 0 36 14.5 t11 50.5q0 37 -45 69t-82 50q-8 4 -14 12.5t-6 18.5q0 4 2 9t4 9l127 187h114l-57 -101q-4 -4 -5 -9t-1 -9q0 -8 4 -15.5t16 -15.5q49 -31 82 -64.5t33 -105.5z" />
<glyph unicode="&#xc8;" horiz-adv-x="1566" d="M1426 226q-13 -128 -19 -236q-129 4 -323.5 7t-313.5 3t-338 -4l-328 -6q-6 0 -11 16.5t-5 28.5q0 10 5 26.5t11 18.5q121 14 159 51t38 121v899q0 84 -38 121t-159 51q-6 2 -11 18.5t-5 26.5q0 12 5 28.5t11 16.5l312 -6q203 -4 334 -4q111 0 313.5 3t327.5 7 q-1 -31 -2 -67q0 -65 5 -150q7 -133 11 -240q0 -8 -15.5 -17t-41.5 -9q-14 0 -24.5 4t-10.5 8q-16 129 -107.5 245t-257.5 116h-123q-41 0 -79.5 -20.5t-38.5 -100.5v-424h69q102 0 165 61.5t73 161.5q0 6 17.5 11t27.5 5q14 0 29.5 -5t15.5 -11q0 -76 -5 -141.5t-5 -134.5 q0 -72 5 -134.5t5 -136.5q0 -6 -15.5 -11t-29.5 -5q-10 0 -26.5 5t-18.5 11q-12 106 -68.5 164.5t-169.5 58.5h-69v-436q0 -74 38.5 -97.5t79.5 -23.5h107q156 0 276.5 113t151.5 276q0 4 9 6.5t22 2.5q23 0 44 -9q20 -7 19 -18q0 -45 -13 -136t-15 -109zM1029 1597 q0 -12 -5 -23t-9 -18q-8 -8 -22.5 -16t-20.5 -8h-8q-2 0 -4 2l-404 192q-25 10 -37 34t-12 50q0 31 10.5 58.5t26.5 52.5q16 23 58 45.5t73 22.5q18 0 35.5 -6.5t27.5 -20.5l285 -346q2 -2 4 -8.5t2 -10.5z" />
<glyph unicode="&#xc9;" horiz-adv-x="1566" d="M1426 226q-13 -128 -19 -236q-129 4 -323.5 7t-313.5 3t-338 -4l-328 -6q-6 0 -11 16.5t-5 28.5q0 10 5 26.5t11 18.5q121 14 159 51t38 121v899q0 84 -38 121t-159 51q-6 2 -11 18.5t-5 26.5q0 12 5 28.5t11 16.5l312 -6q203 -4 334 -4q111 0 313.5 3t327.5 7 q-1 -31 -2 -67q0 -65 5 -150q7 -133 11 -240q0 -8 -15.5 -17t-41.5 -9q-14 0 -24.5 4t-10.5 8q-16 129 -107.5 245t-257.5 116h-123q-41 0 -79.5 -20.5t-38.5 -100.5v-424h69q102 0 165 61.5t73 161.5q0 6 17.5 11t27.5 5q14 0 29.5 -5t15.5 -11q0 -76 -5 -141.5t-5 -134.5 q0 -72 5 -134.5t5 -136.5q0 -6 -15.5 -11t-29.5 -5q-10 0 -26.5 5t-18.5 11q-12 106 -68.5 164.5t-169.5 58.5h-69v-436q0 -74 38.5 -97.5t79.5 -23.5h107q156 0 276.5 113t151.5 276q0 4 9 6.5t22 2.5q23 0 44 -9q20 -7 19 -18q0 -45 -13 -136t-15 -109zM1085 1812 q0 -25 -10 -48t-35 -35l-405 -195q-2 0 -5.5 -1t-7.5 -1q-6 0 -20 7t-23 17q-4 6 -9 17.5t-5 21.5q0 4 2 10.5t4 10.5l291 346q8 12 26.5 19.5t34.5 7.5q33 0 70 -20.5t57 -47.5q18 -25 26.5 -54.5t8.5 -54.5z" />
<glyph unicode="&#xca;" horiz-adv-x="1566" d="M1201 1589q0 -10 -7.5 -22.5t-15.5 -18.5t-16.5 -10t-16.5 -4t-15 3t-13 7l-332 146l-332 -146q-6 -2 -14.5 -6t-14.5 -4q-8 0 -16 3t-18 11t-16.5 19.5t-6.5 21.5q0 4 3 10l5 11l365 340q6 8 19.5 14t25.5 6q16 0 26.5 -6t16.5 -14l364 -340q2 -2 5.5 -9.5t3.5 -11.5z M1426 226q-13 -128 -19 -236q-129 4 -323.5 7t-313.5 3t-338 -4l-328 -6q-6 0 -11 16.5t-5 28.5q0 10 5 26.5t11 18.5q121 14 159 51t38 121v899q0 84 -38 121t-159 51q-6 2 -11 18.5t-5 26.5q0 12 5 28.5t11 16.5l312 -6q203 -4 334 -4q111 0 313.5 3t327.5 7 q-1 -31 -2 -67q0 -65 5 -150q7 -133 11 -240q0 -8 -15.5 -17t-41.5 -9q-14 0 -24.5 4t-10.5 8q-16 129 -107.5 245t-257.5 116h-123q-41 0 -79.5 -20.5t-38.5 -100.5v-424h69q102 0 165 61.5t73 161.5q0 6 17.5 11t27.5 5q14 0 29.5 -5t15.5 -11q0 -76 -5 -141.5t-5 -134.5 q0 -72 5 -134.5t5 -136.5q0 -6 -15.5 -11t-29.5 -5q-10 0 -26.5 5t-18.5 11q-12 106 -68.5 164.5t-169.5 58.5h-69v-436q0 -74 38.5 -97.5t79.5 -23.5h107q156 0 276.5 113t151.5 276q0 4 9 6.5t22 2.5q23 0 44 -9q20 -7 19 -18q0 -45 -13 -136t-15 -109z" />
<glyph unicode="&#xcb;" horiz-adv-x="1566" d="M1426 226q-13 -128 -19 -236q-129 4 -323.5 7t-313.5 3t-338 -4l-328 -6q-6 0 -11 16.5t-5 28.5q0 10 5 26.5t11 18.5q121 14 159 51t38 121v899q0 84 -38 121t-159 51q-6 2 -11 18.5t-5 26.5q0 12 5 28.5t11 16.5l312 -6q203 -4 334 -4q111 0 313.5 3t327.5 7 q-1 -31 -2 -67q0 -65 5 -150q7 -133 11 -240q0 -8 -15.5 -17t-41.5 -9q-14 0 -24.5 4t-10.5 8q-16 129 -107.5 245t-257.5 116h-123q-41 0 -79.5 -20.5t-38.5 -100.5v-424h69q102 0 165 61.5t73 161.5q0 6 17.5 11t27.5 5q14 0 29.5 -5t15.5 -11q0 -76 -5 -141.5t-5 -134.5 q0 -72 5 -134.5t5 -136.5q0 -6 -15.5 -11t-29.5 -5q-10 0 -26.5 5t-18.5 11q-12 106 -68.5 164.5t-169.5 58.5h-69v-436q0 -74 38.5 -97.5t79.5 -23.5h107q156 0 276.5 113t151.5 276q0 4 9 6.5t22 2.5q23 0 44 -9q20 -7 19 -18q0 -45 -13 -136t-15 -109zM1267 1743 q0 -76 -57 -133.5t-133 -57.5q-78 0 -134.5 57.5t-56.5 133.5t56.5 133t134.5 57q76 0 133 -57t57 -133zM751 1743q0 -76 -57 -133.5t-133 -57.5q-78 0 -134.5 57.5t-56.5 133.5t56.5 133t134.5 57q76 0 133 -57t57 -133z" />
<glyph unicode="&#xcc;" horiz-adv-x="1007" d="M918 35q0 -14 -5.5 -29.5t-11.5 -15.5q-100 0 -201.5 5t-195.5 5t-196.5 -5t-203.5 -5q-6 0 -11 16.5t-5 28.5q0 10 5 26.5t11 18.5q121 14 159 51t38 121v899q0 84 -38 121t-159 51q-6 2 -11 18.5t-5 26.5q0 12 5 28.5t11 16.5q100 0 203 -5t197 -5t195.5 5t201.5 5 q6 0 11.5 -15.5t5.5 -29.5q0 -10 -5.5 -27.5t-11.5 -17.5q-117 -12 -155.5 -51t-38.5 -121v-899q0 -82 38.5 -121t155.5 -51q6 0 11.5 -17.5t5.5 -27.5zM743 1597q0 -12 -5 -23t-9 -18q-8 -8 -22.5 -16t-20.5 -8h-8q-2 0 -4 2l-404 192q-25 10 -37 34t-12 50q0 31 10.5 58.5 t26.5 52.5q16 23 58 45.5t73 22.5q18 0 35.5 -6.5t27.5 -20.5l285 -346q2 -2 4 -8.5t2 -10.5z" />
<glyph unicode="&#xcd;" horiz-adv-x="1007" d="M918 35q0 -14 -5.5 -29.5t-11.5 -15.5q-100 0 -201.5 5t-195.5 5t-196.5 -5t-203.5 -5q-6 0 -11 16.5t-5 28.5q0 10 5 26.5t11 18.5q121 14 159 51t38 121v899q0 84 -38 121t-159 51q-6 2 -11 18.5t-5 26.5q0 12 5 28.5t11 16.5q100 0 203 -5t197 -5t195.5 5t201.5 5 q6 0 11.5 -15.5t5.5 -29.5q0 -10 -5.5 -27.5t-11.5 -17.5q-117 -12 -155.5 -51t-38.5 -121v-899q0 -82 38.5 -121t155.5 -51q6 0 11.5 -17.5t5.5 -27.5zM879 1812q0 -25 -10 -48t-35 -35l-405 -195q-2 0 -5.5 -1t-7.5 -1q-6 0 -20 7t-23 17q-4 6 -9 17.5t-5 21.5q0 4 2 10.5 t4 10.5l291 346q8 12 26.5 19.5t34.5 7.5q33 0 70 -20.5t57 -47.5q18 -25 26.5 -54.5t8.5 -54.5z" />
<glyph unicode="&#xce;" horiz-adv-x="1007" d="M918 35q0 -14 -5.5 -29.5t-11.5 -15.5q-100 0 -201.5 5t-195.5 5t-196.5 -5t-203.5 -5q-6 0 -11 16.5t-5 28.5q0 10 5 26.5t11 18.5q121 14 159 51t38 121v899q0 84 -38 121t-159 51q-6 2 -11 18.5t-5 26.5q0 12 5 28.5t11 16.5q100 0 203 -5t197 -5t195.5 5t201.5 5 q6 0 11.5 -15.5t5.5 -29.5q0 -10 -5.5 -27.5t-11.5 -17.5q-117 -12 -155.5 -51t-38.5 -121v-899q0 -82 38.5 -121t155.5 -51q6 0 11.5 -17.5t5.5 -27.5zM919 1589q0 -10 -7.5 -22.5t-15.5 -18.5t-16.5 -10t-16.5 -4t-15 3t-13 7l-332 146l-332 -146q-6 -2 -14.5 -6t-14.5 -4 q-8 0 -16 3t-18 11t-16.5 19.5t-6.5 21.5q0 4 3 10l5 11l365 340q6 8 19.5 14t25.5 6q16 0 26.5 -6t16.5 -14l364 -340q2 -2 5.5 -9.5t3.5 -11.5z" />
<glyph unicode="&#xcf;" horiz-adv-x="1007" d="M918 35q0 -14 -5.5 -29.5t-11.5 -15.5q-100 0 -201.5 5t-195.5 5t-196.5 -5t-203.5 -5q-6 0 -11 16.5t-5 28.5q0 10 5 26.5t11 18.5q121 14 159 51t38 121v899q0 84 -38 121t-159 51q-6 2 -11 18.5t-5 26.5q0 12 5 28.5t11 16.5q100 0 203 -5t197 -5t195.5 5t201.5 5 q6 0 11.5 -15.5t5.5 -29.5q0 -10 -5.5 -27.5t-11.5 -17.5q-117 -12 -155.5 -51t-38.5 -121v-899q0 -82 38.5 -121t155.5 -51q6 0 11.5 -17.5t5.5 -27.5zM975 1743q0 -76 -57 -133.5t-133 -57.5q-78 0 -134.5 57.5t-56.5 133.5t56.5 133t134.5 57q76 0 133 -57t57 -133z M459 1743q0 -76 -57 -133.5t-133 -57.5q-78 0 -134.5 57.5t-56.5 133.5t56.5 133t134.5 57q76 0 133 -57t57 -133z" />
<glyph unicode="&#xd0;" horiz-adv-x="1832" d="M707 741h200q10 0 17.5 -25.5t7.5 -45.5q0 -25 -7 -49.5t-18 -24.5l-200 8v-391q0 -74 38.5 -96.5t79.5 -22.5l80 -4q231 0 324.5 161t93.5 443q0 287 -87 454t-331 165l-80 -4q-41 0 -79.5 -22.5t-38.5 -96.5v-449zM301 604l-219 -8q-10 0 -17.5 24.5t-7.5 49.5 q0 20 7.5 45.5t17.5 25.5h219v410q0 84 -38 121t-159 51q-6 2 -11 18.5t-5 26.5q0 12 5 28.5t11 16.5q72 -2 203 -4t219 -2q78 0 195 3t192 3q209 0 369 -54t264 -155q102 -100 150.5 -228t48.5 -282q0 -137 -43 -267t-143 -226q-106 -102 -253 -156.5t-393 -54.5 q-78 0 -193.5 3t-193.5 3q-88 0 -219 -2t-203 -4q-6 0 -11 16.5t-5 28.5q0 10 5 26.5t11 18.5q121 14 159 51t38 121v352z" />
<glyph unicode="&#xd1;" horiz-adv-x="1808" d="M1808 1368q0 -10 -5 -27.5t-11 -17.5q-115 -12 -161 -50t-48 -122l-22 -1169q0 -6 -13.5 -13.5t-44.5 -7.5q-23 0 -39 3t-24 13l-996 1006l-12 -731v-13q0 -71 43 -107q47 -40 166 -52q6 0 11 -15.5t5 -29.5q0 -12 -5 -28.5t-11 -16.5q-78 0 -143.5 5t-137.5 5 q-74 0 -136 -5t-132 -5q-6 0 -11 16.5t-5 28.5q0 14 6 28.5t12 16.5q117 12 162 51t45 121l33 833v10q0 104 -45 157q-47 56 -178 71q-6 2 -10.5 18.5t-4.5 26.5q0 14 5 29.5t12 15.5q49 0 116.5 -5t110.5 -5q55 0 104.5 5t126.5 5l889 -926v664q0 84 -49 121t-168 51 q-6 2 -11 16.5t-5 28.5q0 12 5 28.5t11 16.5q80 0 136.5 -6t127.5 -6q74 0 145.5 6t139.5 6q6 0 11 -15.5t5 -29.5zM1396 1980q12 -6 23.5 -23.5t7.5 -37.5q-29 -186 -95.5 -256t-174.5 -53l-406 57q-61 8 -109 -18.5t-89 -102.5q-10 -18 -47 -5t-29 63q33 168 113.5 253 t214.5 64l366 -57q63 -8 107.5 17.5t72.5 94.5q4 8 17.5 9t27.5 -5z" />
<glyph unicode="&#xd2;" horiz-adv-x="1781" d="M1694 694q0 -307 -210 -522t-593 -215t-594 216t-211 521t211 528.5t594 223.5q375 0 589 -220.5t214 -531.5zM1272 694q0 283 -82 468.5t-299 185.5q-219 0 -300 -187.5t-81 -466.5q0 -285 81 -462t300 -177q217 0 299 178t82 461zM1110 1597q0 -12 -5 -23t-9 -18 q-8 -8 -22.5 -16t-20.5 -8h-8q-2 0 -4 2l-404 192q-25 10 -37 34t-12 50q0 31 10.5 58.5t26.5 52.5q16 23 58 45.5t73 22.5q18 0 35.5 -6.5t27.5 -20.5l285 -346q2 -2 4 -8.5t2 -10.5z" />
<glyph unicode="&#xd3;" horiz-adv-x="1781" d="M1694 694q0 -307 -210 -522t-593 -215t-594 216t-211 521t211 528.5t594 223.5q375 0 589 -220.5t214 -531.5zM1272 694q0 283 -82 468.5t-299 185.5q-219 0 -300 -187.5t-81 -466.5q0 -285 81 -462t300 -177q217 0 299 178t82 461zM1303 1812q0 -25 -10 -48t-35 -35 l-405 -195q-2 0 -5.5 -1t-7.5 -1q-6 0 -20 7t-23 17q-4 6 -9 17.5t-5 21.5q0 4 2 10.5t4 10.5l291 346q8 12 26.5 19.5t34.5 7.5q33 0 70 -20.5t57 -47.5q18 -25 26.5 -54.5t8.5 -54.5z" />
<glyph unicode="&#xd4;" horiz-adv-x="1781" d="M1694 694q0 -307 -210 -522t-593 -215t-594 216t-211 521t211 528.5t594 223.5q375 0 589 -220.5t214 -531.5zM1272 694q0 283 -82 468.5t-299 185.5q-219 0 -300 -187.5t-81 -466.5q0 -285 81 -462t300 -177q217 0 299 178t82 461zM1305 1589q0 -10 -7.5 -22.5 t-15.5 -18.5t-16.5 -10t-16.5 -4t-15 3t-13 7l-332 146l-332 -146q-6 -2 -14.5 -6t-14.5 -4q-8 0 -16 3t-18 11t-16.5 19.5t-6.5 21.5q0 4 3 10l5 11l365 340q6 8 19.5 14t25.5 6q16 0 26.5 -6t16.5 -14l364 -340q2 -2 5.5 -9.5t3.5 -11.5z" />
<glyph unicode="&#xd5;" horiz-adv-x="1781" d="M1331 1980q12 -6 23.5 -23.5t7.5 -37.5q-29 -186 -95.5 -256t-174.5 -53l-406 57q-61 8 -109 -18.5t-89 -102.5q-10 -18 -47 -5t-29 63q33 168 113.5 253t214.5 64l366 -57q63 -8 107.5 17.5t72.5 94.5q4 8 17.5 9t27.5 -5zM1694 694q0 -307 -210 -522t-593 -215 t-594 216t-211 521t211 528.5t594 223.5q375 0 589 -220.5t214 -531.5zM1272 694q0 283 -82 468.5t-299 185.5q-219 0 -300 -187.5t-81 -466.5q0 -285 81 -462t300 -177q217 0 299 178t82 461z" />
<glyph unicode="&#xd6;" horiz-adv-x="1781" d="M1694 694q0 -307 -210 -522t-593 -215t-594 216t-211 521t211 528.5t594 223.5q375 0 589 -220.5t214 -531.5zM1272 694q0 283 -82 468.5t-299 185.5q-219 0 -300 -187.5t-81 -466.5q0 -285 81 -462t300 -177q217 0 299 178t82 461zM1347 1743q0 -76 -57 -133.5 t-133 -57.5q-78 0 -134.5 57.5t-56.5 133.5t56.5 133t134.5 57q76 0 133 -57t57 -133zM831 1743q0 -76 -57 -133.5t-133 -57.5q-78 0 -134.5 57.5t-56.5 133.5t56.5 133t134.5 57q76 0 133 -57t57 -133z" />
<glyph unicode="&#xd7;" horiz-adv-x="786" d="M694 246q0 -8 -13 -27.5t-24 -28.5q-12 -12 -28.5 -24t-24.5 -12q-4 0 -8 2l-4 2l-199 202l-198 -202l-5 -2q-4 -2 -8 -2q-8 0 -24.5 11t-30.5 25q-12 12 -23.5 30t-11.5 26q0 2 2 6l2 4l201 199l-201 198l-2 4q-2 4 -2 9q0 8 13.5 26.5t21.5 28.5q10 10 28.5 22.5 t26.5 12.5q4 0 8.5 -1t4.5 -3l198 -201l199 201q0 2 4 3t8 1q8 0 25.5 -12.5t27.5 -22.5q12 -12 24.5 -29.5t12.5 -25.5q0 -4 -2 -9l-2 -4l-203 -198l203 -199l2 -4q2 -4 2 -6z" />
<glyph unicode="&#xd8;" horiz-adv-x="1781" d="M1221 1092l-99 -139l-215 -296l-215 -298l-98 -136q47 -84 114.5 -126t182.5 -42q217 0 299 178.5t82 460.5q0 113 -12 217.5t-39 180.5zM559 305l625 869q-45 84 -115 129t-178 45q-219 0 -300 -187.5t-81 -466.5q0 -131 10 -216t39 -173zM401 86q-154 100 -234.5 259 t-80.5 349q0 305 211 528.5t594 223.5q127 0 228.5 -24.5t191.5 -71.5l98 137q4 10 18.5 6t24.5 -12q12 -8 19.5 -17.5t-1.5 -21.5l-27 -39l-67 -92q154 -102 236 -264t82 -353q0 -307 -210 -522t-593 -215q-121 0 -227.5 23.5t-194.5 68.5l-68 -95l-26 -38q-6 -10 -17.5 -8 t-25.5 14q-14 8 -19.5 17.5t-1.5 19.5z" />
<glyph unicode="&#xd9;" horiz-adv-x="1703" d="M1702 1368q0 -10 -5 -27.5t-11 -17.5q-119 -12 -160 -49t-41 -123v-645q0 -223 -137.5 -386t-417.5 -163q-340 0 -517 150.5t-177 463.5v580q0 84 -38 121t-159 51q-6 2 -11 18.5t-5 26.5q0 12 5 28.5t11 16.5q100 0 202.5 -5t196.5 -5q92 0 195.5 5t202.5 5 q6 0 11 -16.5t5 -28.5q0 -10 -5 -27.5t-11 -17.5q-119 -12 -158 -51t-39 -121v-649q0 -209 78 -307.5t278 -98.5q182 0 269.5 115t87.5 315v625q0 84 -40 121t-159 51q-6 2 -11 18.5t-5 26.5q0 14 5 29.5t11 15.5q68 0 131.5 -5t134.5 -5q72 0 132.5 5t134.5 5q6 0 11 -16.5 t5 -28.5zM1102 1597q0 -12 -5 -23t-9 -18q-8 -8 -22.5 -16t-20.5 -8h-8q-2 0 -4 2l-404 192q-25 10 -37 34t-12 50q0 31 10.5 58.5t26.5 52.5q16 23 58 45.5t73 22.5q18 0 35.5 -6.5t27.5 -20.5l285 -346q2 -2 4 -8.5t2 -10.5z" />
<glyph unicode="&#xda;" horiz-adv-x="1703" d="M1702 1368q0 -10 -5 -27.5t-11 -17.5q-119 -12 -160 -49t-41 -123v-645q0 -223 -137.5 -386t-417.5 -163q-340 0 -517 150.5t-177 463.5v580q0 84 -38 121t-159 51q-6 2 -11 18.5t-5 26.5q0 12 5 28.5t11 16.5q100 0 202.5 -5t196.5 -5q92 0 195.5 5t202.5 5 q6 0 11 -16.5t5 -28.5q0 -10 -5 -27.5t-11 -17.5q-119 -12 -158 -51t-39 -121v-649q0 -209 78 -307.5t278 -98.5q182 0 269.5 115t87.5 315v625q0 84 -40 121t-159 51q-6 2 -11 18.5t-5 26.5q0 14 5 29.5t11 15.5q68 0 131.5 -5t134.5 -5q72 0 132.5 5t134.5 5q6 0 11 -16.5 t5 -28.5zM1396 1812q0 -25 -10 -48t-35 -35l-405 -195q-2 0 -5.5 -1t-7.5 -1q-6 0 -20 7t-23 17q-4 6 -9 17.5t-5 21.5q0 4 2 10.5t4 10.5l291 346q8 12 26.5 19.5t34.5 7.5q33 0 70 -20.5t57 -47.5q18 -25 26.5 -54.5t8.5 -54.5z" />
<glyph unicode="&#xdb;" horiz-adv-x="1703" d="M1702 1368q0 -10 -5 -27.5t-11 -17.5q-119 -12 -160 -49t-41 -123v-645q0 -223 -137.5 -386t-417.5 -163q-340 0 -517 150.5t-177 463.5v580q0 84 -38 121t-159 51q-6 2 -11 18.5t-5 26.5q0 12 5 28.5t11 16.5q100 0 202.5 -5t196.5 -5q92 0 195.5 5t202.5 5 q6 0 11 -16.5t5 -28.5q0 -10 -5 -27.5t-11 -17.5q-119 -12 -158 -51t-39 -121v-649q0 -209 78 -307.5t278 -98.5q182 0 269.5 115t87.5 315v625q0 84 -40 121t-159 51q-6 2 -11 18.5t-5 26.5q0 14 5 29.5t11 15.5q68 0 131.5 -5t134.5 -5q72 0 132.5 5t134.5 5q6 0 11 -16.5 t5 -28.5zM1419 1589q0 -10 -7.5 -22.5t-15.5 -18.5t-16.5 -10t-16.5 -4t-15 3t-13 7l-332 146l-332 -146q-6 -2 -14.5 -6t-14.5 -4q-8 0 -16 3t-18 11t-16.5 19.5t-6.5 21.5q0 4 3 10l5 11l365 340q6 8 19.5 14t25.5 6q16 0 26.5 -6t16.5 -14l364 -340q2 -2 5.5 -9.5 t3.5 -11.5z" />
<glyph unicode="&#xdc;" horiz-adv-x="1703" d="M1702 1368q0 -10 -5 -27.5t-11 -17.5q-119 -12 -160 -49t-41 -123v-645q0 -223 -137.5 -386t-417.5 -163q-340 0 -517 150.5t-177 463.5v580q0 84 -38 121t-159 51q-6 2 -11 18.5t-5 26.5q0 12 5 28.5t11 16.5q100 0 202.5 -5t196.5 -5q92 0 195.5 5t202.5 5 q6 0 11 -16.5t5 -28.5q0 -10 -5 -27.5t-11 -17.5q-119 -12 -158 -51t-39 -121v-649q0 -209 78 -307.5t278 -98.5q182 0 269.5 115t87.5 315v625q0 84 -40 121t-159 51q-6 2 -11 18.5t-5 26.5q0 14 5 29.5t11 15.5q68 0 131.5 -5t134.5 -5q72 0 132.5 5t134.5 5q6 0 11 -16.5 t5 -28.5zM1386 1743q0 -76 -57 -133.5t-133 -57.5q-78 0 -134.5 57.5t-56.5 133.5t56.5 133t134.5 57q76 0 133 -57t57 -133zM870 1743q0 -76 -57 -133.5t-133 -57.5q-78 0 -134.5 57.5t-56.5 133.5t56.5 133t134.5 57q76 0 133 -57t57 -133z" />
<glyph unicode="&#xdd;" horiz-adv-x="1595" d="M1665 1368q0 -10 -8 -27.5t-15 -17.5q-84 -8 -144 -47t-122 -125l-360 -522v-377q0 -82 30.5 -121t149.5 -51q6 0 11 -17.5t5 -27.5q0 -12 -5 -28.5t-11 -16.5q-100 0 -194.5 5t-188.5 5t-195.5 -5t-201.5 -5q-6 0 -11.5 15t-5.5 30q0 10 5.5 26.5t11.5 18.5 q119 14 156.5 51t37.5 121v375l-331 524q-55 86 -111.5 123t-169.5 49q-6 2 -11 18.5t-5 26.5q0 12 5 28.5t11 16.5q72 0 175 -5t183 -5q82 0 212 5t231 5q6 0 11 -15.5t5 -29.5q0 -10 -5 -27.5t-11 -17.5q-74 -8 -104.5 -27.5t-30.5 -46.5q0 -20 12 -44.5t31 -53.5 l260 -403l270 403q16 25 26.5 46.5t10.5 41.5q0 31 -28.5 52.5t-115.5 31.5q-6 2 -8 18.5t-2 26.5q0 14 5 29.5t12 15.5q88 0 145 -5t141 -5q63 0 116.5 5t109.5 5q6 0 11 -16.5t5 -28.5zM1379 1812q0 -25 -10 -48t-35 -35l-405 -195q-2 0 -5.5 -1t-7.5 -1q-6 0 -20 7 t-23 17q-4 6 -9 17.5t-5 21.5q0 4 2 10.5t4 10.5l291 346q8 12 26.5 19.5t34.5 7.5q33 0 70 -20.5t57 -47.5q18 -25 26.5 -54.5t8.5 -54.5z" />
<glyph unicode="&#xde;" horiz-adv-x="1513" d="M1444 711q0 -197 -163 -305.5t-452 -108.5q-41 0 -74.5 4t-68.5 12v-61q0 -82 39 -121t158 -51q6 0 11 -17.5t5 -27.5q0 -12 -5 -28.5t-11 -16.5q-100 0 -202.5 5t-197.5 5q-94 0 -195.5 -5t-201.5 -5q-6 0 -11 15t-5 30q0 10 5 26.5t11 18.5q119 14 157 51t38 121v899 q0 84 -38 121t-157 51q-6 2 -11 18.5t-5 26.5q0 14 5 29.5t11 15.5q100 0 201.5 -5t195.5 -5t196.5 5t203.5 5q6 0 11 -16.5t5 -28.5q0 -10 -5 -27.5t-11 -17.5q-119 -12 -158 -51t-39 -121v-16q37 2 75 3t73 1q332 0 471 -110.5t139 -317.5zM1022 739q0 178 -55.5 238.5 t-157.5 60.5q-66 0 -94.5 -30.5t-28.5 -98.5v-438q0 -47 42 -60.5t58 -13.5q123 0 179.5 81t56.5 261z" />
<glyph unicode="&#xdf;" horiz-adv-x="1419" d="M1354 434q0 -182 -126 -328.5t-335 -146.5q-98 0 -158.5 61.5t-60.5 153.5q0 70 39 117t94 47q45 0 74.5 -27.5t29.5 -70.5q0 -55 -37.5 -65.5t-37.5 -47.5q0 -27 14 -48.5t35 -21.5q16 0 39.5 9.5t36.5 37.5q18 41 28 97.5t10 199.5q0 166 -75.5 297t-231.5 131 q-6 0 -11 17.5t-5 27.5q0 14 5 30t11 16q109 0 165 61t56 170q0 111 -36.5 166t-108.5 55q-86 0 -150.5 -72.5t-64.5 -224.5v-856q0 -76 23.5 -105.5t64.5 -33.5q6 0 11 -17.5t5 -27.5q0 -14 -5 -29.5t-11 -15.5q-63 0 -126.5 5t-135.5 5t-161 -5t-152 -5q-6 0 -11.5 16.5 t-5.5 28.5q0 10 5 26.5t12 18.5q92 10 115.5 40t23.5 132v473q0 10 -6 19.5t-19 9.5h-112q-8 0 -14.5 17t-6.5 26q0 8 6 26.5t13 20.5q33 8 86 24.5t53 32.5q0 240 160.5 409t404.5 169q207 0 332 -96.5t125 -208.5q0 -113 -68.5 -181.5t-240.5 -103.5q225 -35 330.5 -164 t105.5 -291z" />
<glyph unicode="&#xe0;" horiz-adv-x="1093" d="M1120 88q-2 -6 -2 -10t-6 -8q-39 -45 -121 -74t-168 -29q-84 0 -136 38t-69 101q-47 -72 -119.5 -105.5t-179.5 -33.5q-117 0 -197.5 53.5t-80.5 161.5q0 121 133 197t447 145l6 201q0 63 -18.5 83.5t-61.5 20.5t-79 -16t-40 -68q-10 -127 -53 -176t-127 -49 q-76 0 -116 44t-40 106q0 102 167 188t374 86q188 0 257 -94q63 -86 63 -230q0 -13 -1 -26l-10 -356q-1 -10 -1 -20q0 -55 22 -74q25 -22 47 -21q18 0 34.5 6t28.5 16q8 6 27.5 -15.5t19.5 -41.5zM616 449q-121 -29 -174 -78t-53 -142q0 -51 27.5 -81.5t77.5 -30.5 q41 0 74.5 25.5t41.5 97.5zM666 1151q0 -10 -4 -22.5t-10 -16.5q-6 -8 -20.5 -16.5t-20.5 -8.5q-4 0 -7 2l-3 1l-385 184q-25 11 -35 33t-10 47q0 29 9.5 55t25.5 49q16 25 55 45.5t68 20.5q18 0 33 -6t26 -19l272 -330q3 -3 4.5 -8.5t1.5 -9.5z" />
<glyph unicode="&#xe1;" horiz-adv-x="1093" d="M1120 88q-2 -6 -2 -10t-6 -8q-39 -45 -121 -74t-168 -29q-84 0 -136 38t-69 101q-47 -72 -119.5 -105.5t-179.5 -33.5q-117 0 -197.5 53.5t-80.5 161.5q0 121 133 197t447 145l6 201q0 63 -18.5 83.5t-61.5 20.5t-79 -16t-40 -68q-10 -127 -53 -176t-127 -49 q-76 0 -116 44t-40 106q0 102 167 188t374 86q188 0 257 -94q63 -86 63 -230q0 -13 -1 -26l-10 -356q-1 -10 -1 -20q0 -55 22 -74q25 -22 47 -21q18 0 34.5 6t28.5 16q8 6 27.5 -15.5t19.5 -41.5zM616 449q-121 -29 -174 -78t-53 -142q0 -51 27.5 -81.5t77.5 -30.5 q41 0 74.5 25.5t41.5 97.5zM971 1356q0 -20 -12 -45.5t-31 -34.5l-387 -184q-2 -1 -4 -3t-9 -2l-6 3q-6 2 -12 6t-11 8t-9 8q-4 6 -9.5 16.5t-5.5 20.5q0 4 1.5 9.5t4.5 8.5l277 330q9 11 26 19t31 8q29 0 66 -19.5t55 -46.5q15 -23 25 -52.5t10 -49.5z" />
<glyph unicode="&#xe2;" horiz-adv-x="1093" d="M1120 88q-2 -6 -2 -10t-6 -8q-39 -45 -121 -74t-168 -29q-84 0 -136 38t-69 101q-47 -72 -119.5 -105.5t-179.5 -33.5q-117 0 -197.5 53.5t-80.5 161.5q0 121 133 197t447 145l6 201q0 63 -18.5 83.5t-61.5 20.5t-79 -16t-40 -68q-10 -127 -53 -176t-127 -49 q-76 0 -116 44t-40 106q0 102 167 188t374 86q188 0 257 -94q63 -86 63 -230q0 -13 -1 -26l-10 -356q-1 -10 -1 -20q0 -55 22 -74q25 -22 47 -21q18 0 34.5 6t28.5 16q8 6 27.5 -15.5t19.5 -41.5zM616 449q-121 -29 -174 -78t-53 -142q0 -51 27.5 -81.5t77.5 -30.5 q41 0 74.5 25.5t41.5 97.5zM907 1149q0 -8 -7 -20.5t-15 -18.5t-16.5 -10t-14.5 -4t-14 3t-14 7l-252 156l-254 -156q-5 -3 -14 -6.5t-15 -3.5t-14 3.5t-17 10.5q-10 8 -16 19.5t-6 19.5q0 6 2.5 11.5t5.5 8.5l285 340q7 8 19.5 13.5t23.5 5.5q12 0 23 -5t18 -14l284 -340 q3 -3 5.5 -8.5t2.5 -11.5z" />
<glyph unicode="&#xe3;" horiz-adv-x="1093" d="M1120 88q-2 -6 -2 -10t-6 -8q-39 -45 -121 -74t-168 -29q-84 0 -136 38t-69 101q-47 -72 -119.5 -105.5t-179.5 -33.5q-117 0 -197.5 53.5t-80.5 161.5q0 121 133 197t447 145l6 201q0 63 -18.5 83.5t-61.5 20.5t-79 -16t-40 -68q-10 -127 -53 -176t-127 -49 q-76 0 -116 44t-40 106q0 102 167 188t374 86q188 0 257 -94q63 -86 63 -230q0 -13 -1 -26l-10 -356q-1 -10 -1 -20q0 -55 22 -74q25 -22 47 -21q18 0 34.5 6t28.5 16q8 6 27.5 -15.5t19.5 -41.5zM616 449q-121 -29 -174 -78t-53 -142q0 -51 27.5 -81.5t77.5 -30.5 q41 0 74.5 25.5t41.5 97.5zM963 1450q-29 -184 -92.5 -244t-163.5 -51l-277 27q-66 6 -110.5 -25t-77.5 -90q-2 -4 -6 -6t-13 -2q-20 0 -39.5 14t-13.5 49q29 152 101.5 234.5t210.5 66.5l237 -26q74 -8 112 21.5t60 86.5q1 4 7.5 6t13.5 2q16 0 36 -16t15 -47z" />
<glyph unicode="&#xe4;" horiz-adv-x="1093" d="M1120 88q-2 -6 -2 -10t-6 -8q-39 -45 -121 -74t-168 -29q-84 0 -136 38t-69 101q-47 -72 -119.5 -105.5t-179.5 -33.5q-117 0 -197.5 53.5t-80.5 161.5q0 121 133 197t447 145l6 201q0 63 -18.5 83.5t-61.5 20.5t-79 -16t-40 -68q-10 -127 -53 -176t-127 -49 q-76 0 -116 44t-40 106q0 102 167 188t374 86q188 0 257 -94q63 -86 63 -230q0 -13 -1 -26l-10 -356q-1 -10 -1 -20q0 -55 22 -74q25 -22 47 -21q18 0 34.5 6t28.5 16q8 6 27.5 -15.5t19.5 -41.5zM616 449q-121 -29 -174 -78t-53 -142q0 -51 27.5 -81.5t77.5 -30.5 q41 0 74.5 25.5t41.5 97.5zM976 1227q0 -74 -53 -127t-127 -53t-123 53t-49 127t49 128t123 54t127 -54t53 -128zM526 1227q0 -72 -57.5 -126t-133.5 -54q-74 0 -128 53t-54 127t54 128t128 54t132.5 -55t58.5 -127z" />
<glyph unicode="&#xe5;" horiz-adv-x="1093" d="M1120 88q-2 -6 -2 -10t-6 -8q-39 -45 -121 -74t-168 -29q-84 0 -136 38t-69 101q-47 -72 -119.5 -105.5t-179.5 -33.5q-117 0 -197.5 53.5t-80.5 161.5q0 121 133 197t447 145l6 201q0 63 -18.5 83.5t-61.5 20.5t-79 -16t-40 -68q-10 -127 -53 -176t-127 -49 q-76 0 -116 44t-40 106q0 102 167 188t374 86q188 0 257 -94q63 -86 63 -230q0 -13 -1 -26l-10 -356q-1 -10 -1 -20q0 -55 22 -74q25 -22 47 -21q18 0 34.5 6t28.5 16q8 6 27.5 -15.5t19.5 -41.5zM616 449q-121 -29 -174 -78t-53 -142q0 -51 27.5 -81.5t77.5 -30.5 q41 0 74.5 25.5t41.5 97.5zM816 1260q0 -88 -63.5 -156t-169.5 -68q-102 0 -169 69t-67 155t66.5 153.5t169.5 67.5q100 0 166.5 -67.5t66.5 -153.5zM705 1260q0 57 -33.5 96t-88.5 39q-49 0 -86 -39t-37 -96q0 -59 34.5 -98.5t88.5 -39.5q53 0 87.5 39.5t34.5 98.5z" />
<glyph unicode="&#xe6;" horiz-adv-x="1628" d="M1573 582q0 -14 -11.5 -24.5t-25.5 -12.5l-545 -86q-2 -10 -3 -14.5t-1 -18.5q0 -172 57.5 -239.5t161.5 -67.5q74 0 166 37t133 92q2 4 13 -3l18 -14q10 -10 17.5 -21t7.5 -22v-8q0 -4 -5 -8q-59 -82 -146 -147.5t-275 -65.5q-145 0 -254 64.5t-164 173.5 q-41 -121 -130 -179.5t-233 -58.5q-150 0 -231.5 54.5t-81.5 160.5q0 123 116.5 200t463.5 142l6 201q0 63 -18.5 83.5t-61.5 20.5q-39 0 -77 -18.5t-42 -65.5q-10 -123 -52 -174t-128 -51q-76 0 -116 44t-40 106q0 102 166 188t346 86q104 0 151.5 -24.5t86.5 -94.5 q59 55 144 87t165 32q188 0 296.5 -103.5t123.5 -211.5q0 -10 1 -20.5t1 -18.5zM1243 678q0 59 -23.5 110.5t-76.5 51.5q-63 0 -98 -82t-46 -207l158 29q49 10 67.5 32.5t18.5 65.5zM616 432q-127 -25 -176 -74t-49 -137q0 -51 26.5 -81.5t76.5 -30.5q41 0 74.5 25.5 t41.5 96.5z" />
<glyph unicode="&#xe7;" horiz-adv-x="1067" d="M1020 692q0 -55 -35 -101t-102 -46q-78 0 -110 45t-48 102q-14 51 -36.5 99.5t-80.5 48.5q-80 0 -126 -75t-46 -298q0 -156 45 -252t191 -96q80 0 159.5 31.5t120.5 72.5q2 4 13.5 -3t17.5 -15q10 -10 17.5 -21.5t7.5 -19.5q0 -4 -1 -8t-3 -9q-55 -78 -166 -133t-250 -55 q-207 0 -364.5 133t-157.5 359q0 225 156.5 355t385.5 130q152 0 282 -71t130 -173zM764 -291q0 -86 -88 -135t-174 -49q-76 0 -111.5 25.5t-35.5 56.5q0 25 14 44t47 19q39 0 67.5 -30.5t61.5 -30.5q25 0 36 14.5t11 50.5q0 37 -45 69t-82 50q-8 4 -14 12.5t-6 18.5 q0 4 2 9t4 9l127 187h114l-57 -101q-4 -4 -5 -9t-1 -9q0 -8 4 -15.5t16 -15.5q49 -31 82 -64.5t33 -105.5z" />
<glyph unicode="&#xe8;" horiz-adv-x="1103" d="M1049 539q0 -14 -10.5 -22.5t-28.5 -8.5h-566q-2 -14 -2 -38v-44q0 -172 56.5 -239.5t163.5 -67.5q74 0 166 37t133 92q2 4 12 -3l18 -14q10 -10 17.5 -21t7.5 -22q0 -4 -1 -8t-5 -8q-51 -74 -151.5 -143.5t-268.5 -69.5q-219 0 -368.5 141.5t-149.5 333.5 q0 217 142 359.5t376 142.5q213 0 336 -114.5t123 -282.5zM709 692q0 61 -28 104.5t-83 43.5q-68 0 -100.5 -65.5t-42.5 -172.5l168 4q45 2 65.5 17.5t20.5 68.5zM710 1151q0 -10 -4 -22.5t-10 -16.5q-6 -8 -20.5 -16.5t-20.5 -8.5q-4 0 -7 2l-3 1l-385 184q-25 11 -35 33 t-10 47q0 29 9.5 55t25.5 49q16 25 55 45.5t68 20.5q18 0 33 -6t26 -19l272 -330q3 -3 4.5 -8.5t1.5 -9.5z" />
<glyph unicode="&#xe9;" horiz-adv-x="1103" d="M1049 539q0 -14 -10.5 -22.5t-28.5 -8.5h-566q-2 -14 -2 -38v-44q0 -172 56.5 -239.5t163.5 -67.5q74 0 166 37t133 92q2 4 12 -3l18 -14q10 -10 17.5 -21t7.5 -22q0 -4 -1 -8t-5 -8q-51 -74 -151.5 -143.5t-268.5 -69.5q-219 0 -368.5 141.5t-149.5 333.5 q0 217 142 359.5t376 142.5q213 0 336 -114.5t123 -282.5zM709 692q0 61 -28 104.5t-83 43.5q-68 0 -100.5 -65.5t-42.5 -172.5l168 4q45 2 65.5 17.5t20.5 68.5zM942 1356q0 -20 -12 -45.5t-31 -34.5l-387 -184q-2 -1 -4 -3t-9 -2l-6 3q-6 2 -12 6t-11 8t-9 8 q-4 6 -9.5 16.5t-5.5 20.5q0 4 1.5 9.5t4.5 8.5l277 330q9 11 26 19t31 8q29 0 66 -19.5t55 -46.5q15 -23 25 -52.5t10 -49.5z" />
<glyph unicode="&#xea;" horiz-adv-x="1103" d="M1049 539q0 -14 -10.5 -22.5t-28.5 -8.5h-566q-2 -14 -2 -38v-44q0 -172 56.5 -239.5t163.5 -67.5q74 0 166 37t133 92q2 4 12 -3l18 -14q10 -10 17.5 -21t7.5 -22q0 -4 -1 -8t-5 -8q-51 -74 -151.5 -143.5t-268.5 -69.5q-219 0 -368.5 141.5t-149.5 333.5 q0 217 142 359.5t376 142.5q213 0 336 -114.5t123 -282.5zM709 692q0 61 -28 104.5t-83 43.5q-68 0 -100.5 -65.5t-42.5 -172.5l168 4q45 2 65.5 17.5t20.5 68.5zM961 1149q0 -8 -7 -20.5t-15 -18.5t-16.5 -10t-14.5 -4t-14 3t-14 7l-252 156l-254 -156q-5 -3 -14 -6.5 t-15 -3.5t-14 3.5t-17 10.5q-10 8 -16 19.5t-6 19.5q0 6 2.5 11.5t5.5 8.5l285 340q7 8 19.5 13.5t23.5 5.5q12 0 23 -5t18 -14l284 -340q3 -3 5.5 -8.5t2.5 -11.5z" />
<glyph unicode="&#xeb;" horiz-adv-x="1103" d="M1049 539q0 -14 -10.5 -22.5t-28.5 -8.5h-566q-2 -14 -2 -38v-44q0 -172 56.5 -239.5t163.5 -67.5q74 0 166 37t133 92q2 4 12 -3l18 -14q10 -10 17.5 -21t7.5 -22q0 -4 -1 -8t-5 -8q-51 -74 -151.5 -143.5t-268.5 -69.5q-219 0 -368.5 141.5t-149.5 333.5 q0 217 142 359.5t376 142.5q213 0 336 -114.5t123 -282.5zM709 692q0 61 -28 104.5t-83 43.5q-68 0 -100.5 -65.5t-42.5 -172.5l168 4q45 2 65.5 17.5t20.5 68.5zM1000 1227q0 -74 -53 -127t-127 -53t-123 53t-49 127t49 128t123 54t127 -54t53 -128zM550 1227 q0 -72 -57.5 -126t-133.5 -54q-74 0 -128 53t-54 127t54 128t128 54t132.5 -55t58.5 -127z" />
<glyph unicode="&#xec;" horiz-adv-x="673" d="M690 35q0 -12 -5 -28.5t-11 -16.5q-63 0 -158.5 5t-167.5 5q-70 0 -153.5 -5t-145.5 -5q-6 0 -11 16.5t-5 28.5q0 10 5 26.5t11 18.5q76 8 107.5 41t31.5 131v307q0 82 -31.5 106.5t-107.5 32.5q-6 2 -11 17.5t-5 25.5t5 26.5t11 16.5q98 20 221 66.5t191 79.5 q6 4 20.5 10t24.5 6q25 0 36 -8t9 -18l-10 -175q-6 -102 -6 -172v-321q0 -96 32.5 -131t106.5 -41q6 0 11 -17.5t5 -27.5zM562 1151q0 -10 -4 -22.5t-10 -16.5q-6 -8 -20.5 -16.5t-20.5 -8.5q-4 0 -7 2l-3 1l-385 184q-25 11 -35 33t-10 47q0 29 9.5 55t25.5 49 q16 25 55 45.5t68 20.5q18 0 33 -6t26 -19l272 -330q3 -3 4.5 -8.5t1.5 -9.5z" />
<glyph unicode="&#xed;" horiz-adv-x="673" d="M690 35q0 -12 -5 -28.5t-11 -16.5q-63 0 -158.5 5t-167.5 5q-70 0 -153.5 -5t-145.5 -5q-6 0 -11 16.5t-5 28.5q0 10 5 26.5t11 18.5q76 8 107.5 41t31.5 131v307q0 82 -31.5 106.5t-107.5 32.5q-6 2 -11 17.5t-5 25.5t5 26.5t11 16.5q98 20 221 66.5t191 79.5 q6 4 20.5 10t24.5 6q25 0 36 -8t9 -18l-10 -175q-6 -102 -6 -172v-321q0 -96 32.5 -131t106.5 -41q6 0 11 -17.5t5 -27.5zM718 1356q0 -20 -12 -45.5t-31 -34.5l-387 -184q-2 -1 -4 -3t-9 -2l-6 3q-6 2 -12 6t-11 8t-9 8q-4 6 -9.5 16.5t-5.5 20.5q0 4 1.5 9.5t4.5 8.5 l277 330q9 11 26 19t31 8q29 0 66 -19.5t55 -46.5q15 -23 25 -52.5t10 -49.5z" />
<glyph unicode="&#xee;" horiz-adv-x="673" d="M690 35q0 -12 -5 -28.5t-11 -16.5q-63 0 -158.5 5t-167.5 5q-70 0 -153.5 -5t-145.5 -5q-6 0 -11 16.5t-5 28.5q0 10 5 26.5t11 18.5q76 8 107.5 41t31.5 131v307q0 82 -31.5 106.5t-107.5 32.5q-6 2 -11 17.5t-5 25.5t5 26.5t11 16.5q98 20 221 66.5t191 79.5 q6 4 20.5 10t24.5 6q25 0 36 -8t9 -18l-10 -175q-6 -102 -6 -172v-321q0 -96 32.5 -131t106.5 -41q6 0 11 -17.5t5 -27.5zM696 1149q0 -8 -7 -20.5t-15 -18.5t-16.5 -10t-14.5 -4t-14 3t-14 7l-252 156l-254 -156q-5 -3 -14 -6.5t-15 -3.5t-14 3.5t-17 10.5q-10 8 -16 19.5 t-6 19.5q0 6 2.5 11.5t5.5 8.5l285 340q7 8 19.5 13.5t23.5 5.5q12 0 23 -5t18 -14l284 -340q3 -3 5.5 -8.5t2.5 -11.5z" />
<glyph unicode="&#xef;" horiz-adv-x="673" d="M690 35q0 -12 -5 -28.5t-11 -16.5q-63 0 -158.5 5t-167.5 5q-70 0 -153.5 -5t-145.5 -5q-6 0 -11 16.5t-5 28.5q0 10 5 26.5t11 18.5q76 8 107.5 41t31.5 131v307q0 82 -31.5 106.5t-107.5 32.5q-6 2 -11 17.5t-5 25.5t5 26.5t11 16.5q98 20 221 66.5t191 79.5 q6 4 20.5 10t24.5 6q25 0 36 -8t9 -18l-10 -175q-6 -102 -6 -172v-321q0 -96 32.5 -131t106.5 -41q6 0 11 -17.5t5 -27.5zM774 1227q0 -74 -53 -127t-127 -53t-123 53t-49 127t49 128t123 54t127 -54t53 -128zM324 1227q0 -72 -57.5 -126t-133.5 -54q-74 0 -128 53t-54 127 t54 128t128 54t132.5 -55t58.5 -127z" />
<glyph unicode="&#xf0;" horiz-adv-x="1214" d="M1151 551q0 -291 -142.5 -442.5t-433.5 -151.5q-244 0 -376.5 138t-132.5 323q0 236 153.5 376t405.5 140q33 0 59.5 -7t46.5 -16q-33 74 -55.5 118t-59.5 97l-227 -133q-2 0 -6 -2t-6 -2q-10 0 -23.5 11.5t-25.5 29.5q-10 18 -12.5 30.5t-2.5 24.5q0 6 3 10.5t8 8.5 l213 123q-45 47 -95.5 87t-117.5 87q-6 4 -4 20.5t6 26.5t15 22.5t17 12.5q106 -33 188.5 -71t158.5 -89l213 125l4 2q4 2 6 2q10 0 24.5 -12.5t24.5 -28.5q10 -18 12 -30.5t2 -24.5q0 -6 -2 -11.5t-8 -7.5l-170 -96q172 -147 256 -330.5t84 -359.5zM778 440 q0 205 -21.5 299.5t-123.5 94.5q-104 0 -149.5 -100.5t-45.5 -315.5q0 -184 43 -274.5t115 -90.5q109 0 145.5 96t36.5 291z" />
<glyph unicode="&#xf1;" d="M1317 33q0 -12 -5 -28.5t-12 -16.5q-63 0 -146 6t-155 6q-70 0 -137 -6t-129 -6q-6 0 -11 16t-5 29q0 12 5 27.5t11 17.5q41 6 61.5 40t20.5 132v325q0 102 -23.5 145.5t-95.5 43.5q-59 0 -96 -40t-74 -128v-346q0 -90 19.5 -129t60.5 -43q6 0 11.5 -15.5t5.5 -29.5 t-5.5 -29.5t-11.5 -15.5q-63 0 -128.5 6t-137.5 6t-155 -6t-144 -6q-6 0 -11 15t-5 30q0 14 5 28.5t11 16.5q90 12 113.5 42t23.5 130v321q0 86 -18.5 110t-93.5 32q-6 0 -11.5 16t-5.5 27q0 10 5 25.5t12 15.5q70 18 191.5 64t178.5 75q6 4 20.5 10t24.5 6q25 0 36 -9 t9 -17l-8 -197q41 100 130 153.5t188 53.5q154 0 239.5 -96.5t85.5 -214.5v-375q0 -98 24.5 -130t114.5 -42q6 0 11.5 -17.5t5.5 -27.5zM1062 1450q-29 -184 -92.5 -244t-163.5 -51l-277 27q-66 6 -110.5 -25t-77.5 -90q-2 -4 -6 -6t-13 -2q-20 0 -39.5 14t-13.5 49 q29 152 101.5 234.5t210.5 66.5l237 -26q74 -8 112 21.5t60 86.5q1 4 7.5 6t13.5 2q16 0 36 -16t15 -47z" />
<glyph unicode="&#xf2;" horiz-adv-x="1218" d="M1153 440q0 -195 -138 -339t-405 -144q-264 0 -404 143.5t-140 339.5q0 195 139 345.5t405 150.5q260 0 401.5 -148.5t141.5 -347.5zM780 442q0 197 -32.5 296.5t-137.5 99.5q-104 0 -138 -101.5t-34 -294.5q0 -199 34 -293t138 -94q102 0 136 95t34 292zM719 1151 q0 -10 -4 -22.5t-10 -16.5q-6 -8 -20.5 -16.5t-20.5 -8.5q-4 0 -7 2l-3 1l-385 184q-25 11 -35 33t-10 47q0 29 9.5 55t25.5 49q16 25 55 45.5t68 20.5q18 0 33 -6t26 -19l272 -330q3 -3 4.5 -8.5t1.5 -9.5z" />
<glyph unicode="&#xf3;" horiz-adv-x="1218" d="M1153 440q0 -195 -138 -339t-405 -144q-264 0 -404 143.5t-140 339.5q0 195 139 345.5t405 150.5q260 0 401.5 -148.5t141.5 -347.5zM780 442q0 197 -32.5 296.5t-137.5 99.5q-104 0 -138 -101.5t-34 -294.5q0 -199 34 -293t138 -94q102 0 136 95t34 292zM1020 1356 q0 -20 -12 -45.5t-31 -34.5l-387 -184q-2 -1 -4 -3t-9 -2l-6 3q-6 2 -12 6t-11 8t-9 8q-4 6 -9.5 16.5t-5.5 20.5q0 4 1.5 9.5t4.5 8.5l277 330q9 11 26 19t31 8q29 0 66 -19.5t55 -46.5q15 -23 25 -52.5t10 -49.5z" />
<glyph unicode="&#xf4;" horiz-adv-x="1218" d="M1153 440q0 -195 -138 -339t-405 -144q-264 0 -404 143.5t-140 339.5q0 195 139 345.5t405 150.5q260 0 401.5 -148.5t141.5 -347.5zM780 442q0 197 -32.5 296.5t-137.5 99.5q-104 0 -138 -101.5t-34 -294.5q0 -199 34 -293t138 -94q102 0 136 95t34 292zM944 1149 q0 -8 -7 -20.5t-15 -18.5t-16.5 -10t-14.5 -4t-14 3t-14 7l-252 156l-254 -156q-5 -3 -14 -6.5t-15 -3.5t-14 3.5t-17 10.5q-10 8 -16 19.5t-6 19.5q0 6 2.5 11.5t5.5 8.5l285 340q7 8 19.5 13.5t23.5 5.5q12 0 23 -5t18 -14l284 -340q3 -3 5.5 -8.5t2.5 -11.5z" />
<glyph unicode="&#xf5;" horiz-adv-x="1218" d="M1153 440q0 -195 -138 -339t-405 -144q-264 0 -404 143.5t-140 339.5q0 195 139 345.5t405 150.5q260 0 401.5 -148.5t141.5 -347.5zM780 442q0 197 -32.5 296.5t-137.5 99.5q-104 0 -138 -101.5t-34 -294.5q0 -199 34 -293t138 -94q102 0 136 95t34 292zM1011 1450 q-29 -184 -92.5 -244t-163.5 -51l-277 27q-66 6 -110.5 -25t-77.5 -90q-2 -4 -6 -6t-13 -2q-20 0 -39.5 14t-13.5 49q29 152 101.5 234.5t210.5 66.5l237 -26q74 -8 112 21.5t60 86.5q1 4 7.5 6t13.5 2q16 0 36 -16t15 -47z" />
<glyph unicode="&#xf6;" horiz-adv-x="1218" d="M1153 440q0 -195 -138 -339t-405 -144q-264 0 -404 143.5t-140 339.5q0 195 139 345.5t405 150.5q260 0 401.5 -148.5t141.5 -347.5zM780 442q0 197 -32.5 296.5t-137.5 99.5q-104 0 -138 -101.5t-34 -294.5q0 -199 34 -293t138 -94q102 0 136 95t34 292zM1025 1227 q0 -74 -53 -127t-127 -53t-123 53t-49 127t49 128t123 54t127 -54t53 -128zM575 1227q0 -72 -57.5 -126t-133.5 -54q-74 0 -128 53t-54 127t54 128t128 54t132.5 -55t58.5 -127z" />
<glyph unicode="&#xf7;" horiz-adv-x="804" d="M492 707q0 -37 -27 -63t-64 -26q-35 0 -61.5 26t-26.5 63t27 62.5t61 25.5q37 0 64 -25.5t27 -62.5zM764 455q0 -29 -6 -50.5t-21 -21.5h-671q-12 0 -18.5 23.5t-6.5 48.5t7 48t18 23h673q10 0 17.5 -23t7.5 -48zM492 203q0 -35 -27 -61.5t-64 -26.5q-35 0 -61.5 26.5 t-26.5 61.5q0 37 27 62.5t61 25.5q37 0 64 -25.5t27 -62.5z" />
<glyph unicode="&#xf8;" horiz-adv-x="1218" d="M774 606l-49 -68l-104 -147l-113 -158l-43 -61q18 -59 52 -88t93 -29q102 0 136 95.5t34 291.5q0 37 -1 80t-5 84zM444 279l312 434q-18 61 -53 93t-93 32q-104 0 -138 -101.5t-34 -294.5q0 -53 2 -93.5t4 -69.5zM276 43q-104 68 -157 171t-53 226q0 195 139 345.5 t405 150.5q70 0 139.5 -13.5t127.5 -39.5l65 92q4 10 18.5 6t24.5 -12q12 -8 19.5 -17.5t-0.5 -21.5l-18 -25l-42 -59q102 -68 155.5 -177.5t53.5 -228.5q0 -195 -138 -339t-405 -144q-76 0 -142.5 13.5t-121.5 37.5l-45 -63l-20 -29q-6 -10 -17.5 -8t-25.5 14 q-14 8 -19.5 17.5t-1.5 19.5z" />
<glyph unicode="&#xf9;" d="M1280 82q0 -14 -5 -26.5t-11 -12.5q-63 -6 -186.5 -28.5t-188.5 -43.5q-6 0 -20.5 -5t-28.5 -5q-16 0 -25.5 9.5t-9.5 15.5l-10 143q-47 -84 -125 -126t-189 -42q-160 0 -245.5 92t-85.5 260v330q0 92 -32 122q-30 28 -104 28h-10q-6 0 -11 14t-5 29q0 14 5 30.5t11 16.5 q70 0 219.5 14t227.5 33q6 2 10 2q12 0 22 -10q14 -14 15 -21v-629q0 -80 33.5 -119.5t103.5 -39.5q49 0 88 38.5t63 100.5v391q0 88 -31 120q-30 30 -106 30h-10q-6 0 -11 15t-5 28q0 14 5 30.5t11 16.5q68 0 219.5 12t228.5 31q18 6 32 -8.5t14 -20.5v-625 q0 -88 23.5 -113.5t107.5 -31.5q6 0 11 -17.5t5 -27.5zM744 1151q0 -10 -4 -22.5t-10 -16.5q-6 -8 -20.5 -16.5t-20.5 -8.5q-4 0 -7 2l-3 1l-385 184q-25 11 -35 33t-10 47q0 29 9.5 55t25.5 49q16 25 55 45.5t68 20.5q18 0 33 -6t26 -19l272 -330q3 -3 4.5 -8.5t1.5 -9.5z " />
<glyph unicode="&#xfa;" d="M1280 82q0 -14 -5 -26.5t-11 -12.5q-63 -6 -186.5 -28.5t-188.5 -43.5q-6 0 -20.5 -5t-28.5 -5q-16 0 -25.5 9.5t-9.5 15.5l-10 143q-47 -84 -125 -126t-189 -42q-160 0 -245.5 92t-85.5 260v330q0 92 -32 122q-30 28 -104 28h-10q-6 0 -11 14t-5 29q0 14 5 30.5t11 16.5 q70 0 219.5 14t227.5 33q6 2 10 2q12 0 22 -10q14 -14 15 -21v-629q0 -80 33.5 -119.5t103.5 -39.5q49 0 88 38.5t63 100.5v391q0 88 -31 120q-30 30 -106 30h-10q-6 0 -11 15t-5 28q0 14 5 30.5t11 16.5q68 0 219.5 12t228.5 31q18 6 32 -8.5t14 -20.5v-625 q0 -88 23.5 -113.5t107.5 -31.5q6 0 11 -17.5t5 -27.5zM1014 1356q0 -20 -12 -45.5t-31 -34.5l-387 -184q-2 -1 -4 -3t-9 -2l-6 3q-6 2 -12 6t-11 8t-9 8q-4 6 -9.5 16.5t-5.5 20.5q0 4 1.5 9.5t4.5 8.5l277 330q9 11 26 19t31 8q29 0 66 -19.5t55 -46.5q15 -23 25 -52.5 t10 -49.5z" />
<glyph unicode="&#xfb;" d="M1280 82q0 -14 -5 -26.5t-11 -12.5q-63 -6 -186.5 -28.5t-188.5 -43.5q-6 0 -20.5 -5t-28.5 -5q-16 0 -25.5 9.5t-9.5 15.5l-10 143q-47 -84 -125 -126t-189 -42q-160 0 -245.5 92t-85.5 260v330q0 92 -32 122q-30 28 -104 28h-10q-6 0 -11 14t-5 29q0 14 5 30.5t11 16.5 q70 0 219.5 14t227.5 33q6 2 10 2q12 0 22 -10q14 -14 15 -21v-629q0 -80 33.5 -119.5t103.5 -39.5q49 0 88 38.5t63 100.5v391q0 88 -31 120q-30 30 -106 30h-10q-6 0 -11 15t-5 28q0 14 5 30.5t11 16.5q68 0 219.5 12t228.5 31q18 6 32 -8.5t14 -20.5v-625 q0 -88 23.5 -113.5t107.5 -31.5q6 0 11 -17.5t5 -27.5zM962 1149q0 -8 -7 -20.5t-15 -18.5t-16.5 -10t-14.5 -4t-14 3t-14 7l-252 156l-254 -156q-5 -3 -14 -6.5t-15 -3.5t-14 3.5t-17 10.5q-10 8 -16 19.5t-6 19.5q0 6 2.5 11.5t5.5 8.5l285 340q7 8 19.5 13.5t23.5 5.5 q12 0 23 -5t18 -14l284 -340q3 -3 5.5 -8.5t2.5 -11.5z" />
<glyph unicode="&#xfc;" d="M1280 82q0 -14 -5 -26.5t-11 -12.5q-63 -6 -186.5 -28.5t-188.5 -43.5q-6 0 -20.5 -5t-28.5 -5q-16 0 -25.5 9.5t-9.5 15.5l-10 143q-47 -84 -125 -126t-189 -42q-160 0 -245.5 92t-85.5 260v330q0 92 -32 122q-30 28 -104 28h-10q-6 0 -11 14t-5 29q0 14 5 30.5t11 16.5 q70 0 219.5 14t227.5 33q6 2 10 2q12 0 22 -10q14 -14 15 -21v-629q0 -80 33.5 -119.5t103.5 -39.5q49 0 88 38.5t63 100.5v391q0 88 -31 120q-30 30 -106 30h-10q-6 0 -11 15t-5 28q0 14 5 30.5t11 16.5q68 0 219.5 12t228.5 31q18 6 32 -8.5t14 -20.5v-625 q0 -88 23.5 -113.5t107.5 -31.5q6 0 11 -17.5t5 -27.5zM1057 1227q0 -74 -53 -127t-127 -53t-123 53t-49 127t49 128t123 54t127 -54t53 -128zM607 1227q0 -72 -57.5 -126t-133.5 -54q-74 0 -128 53t-54 127t54 128t128 54t132.5 -55t58.5 -127z" />
<glyph unicode="&#xfd;" horiz-adv-x="1116" d="M1145 860q0 -14 -5 -29.5t-12 -15.5q-70 -6 -114.5 -42t-73.5 -99l-385 -828q-111 -233 -180.5 -324t-184.5 -91q-80 0 -125 38.5t-45 104.5q0 63 45.5 107.5t112.5 44.5q53 0 85 -19.5t59 -19.5q25 0 56.5 37.5t90.5 177.5l29 65l-357 707q-33 68 -66.5 99.5 t-113.5 41.5q-6 2 -11 16.5t-5 28.5t5 29.5t11 15.5q63 0 147.5 -6t155.5 -6q72 0 161 6t153 6q6 0 11 -16.5t5 -28.5q0 -10 -5 -27.5t-11 -17.5q-47 -4 -75 -18.5t-28 -44.5q0 -23 7 -41.5t16 -36.5l164 -346l153 346q8 20 11 30.5t3 28.5q0 33 -22.5 53.5t-81.5 28.5 q-6 2 -11 16.5t-5 28.5t5 29.5t11 15.5q63 0 111.5 -6t107.5 -6q35 0 84 6t100 6q6 0 11.5 -15.5t5.5 -29.5zM1002 1356q0 -20 -12 -45.5t-31 -34.5l-387 -184q-2 -1 -4 -3t-9 -2l-6 3q-6 2 -12 6t-11 8t-9 8q-4 6 -9.5 16.5t-5.5 20.5q0 4 1.5 9.5t4.5 8.5l277 330 q9 11 26 19t31 8q29 0 66 -19.5t55 -46.5q15 -23 25 -52.5t10 -49.5z" />
<glyph unicode="&#xfe;" horiz-adv-x="1269" d="M1206 469q0 -186 -142 -349t-415 -163q-47 0 -86 11.5t-67 27.5v-275q0 -98 32.5 -130.5t122.5 -41.5q6 0 11.5 -18t5.5 -29q0 -10 -5.5 -27.5t-11.5 -17.5q-66 0 -162 6.5t-167 6.5q-72 0 -161 -6.5t-151 -6.5q-6 0 -11 17.5t-5 27.5q0 14 5 29.5t11 17.5 q90 10 113.5 40t23.5 132v1375q0 80 -30.5 106.5t-106.5 34.5q-6 0 -11 15.5t-5 25.5t5 26.5t11 16.5q96 23 220 68t190 77q6 4 20.5 10.5t24.5 6.5q27 0 37 -8.5t10 -18.5q-6 -78 -11 -180t-5 -166v-287q37 51 105.5 82t154.5 31q186 0 318 -113.5t132 -353.5zM836 461 q0 178 -40 257t-147 79q-74 0 -113.5 -47.5t-39.5 -100.5v-456q0 -59 30.5 -97.5t98.5 -38.5q121 0 166 124t45 280z" />
<glyph unicode="&#xff;" horiz-adv-x="1116" d="M1041 1227q0 -74 -53 -127t-127 -53t-123 53t-49 127t49 128t123 54t127 -54t53 -128zM591 1227q0 -72 -57.5 -126t-133.5 -54q-74 0 -128 53t-54 127t54 128t128 54t132.5 -55t58.5 -127zM1145 860q0 -14 -5 -29.5t-12 -15.5q-70 -6 -114.5 -42t-73.5 -99l-385 -828 q-111 -233 -180.5 -324t-184.5 -91q-80 0 -125 38.5t-45 104.5q0 63 45.5 107.5t112.5 44.5q53 0 85 -19.5t59 -19.5q25 0 56.5 37.5t90.5 177.5l29 65l-357 707q-33 68 -66.5 99.5t-113.5 41.5q-6 2 -11 16.5t-5 28.5t5 29.5t11 15.5q63 0 147.5 -6t155.5 -6q72 0 161 6 t153 6q6 0 11 -16.5t5 -28.5q0 -10 -5 -27.5t-11 -17.5q-47 -4 -75 -18.5t-28 -44.5q0 -23 7 -41.5t16 -36.5l164 -346l153 346q8 20 11 30.5t3 28.5q0 33 -22.5 53.5t-81.5 28.5q-6 2 -11 16.5t-5 28.5t5 29.5t11 15.5q63 0 111.5 -6t107.5 -6q35 0 84 6t100 6 q6 0 11.5 -15.5t5.5 -29.5z" />
<glyph unicode="&#x110;" horiz-adv-x="1832" d="M707 741h200q10 0 17.5 -25.5t7.5 -45.5q0 -25 -7 -49.5t-18 -24.5l-200 8v-391q0 -74 38.5 -96.5t79.5 -22.5l80 -4q231 0 324.5 161t93.5 443q0 287 -87 454t-331 165l-80 -4q-41 0 -79.5 -22.5t-38.5 -96.5v-449zM301 604l-219 -8q-10 0 -17.5 24.5t-7.5 49.5 q0 20 7.5 45.5t17.5 25.5h219v410q0 84 -38 121t-159 51q-6 2 -11 18.5t-5 26.5q0 12 5 28.5t11 16.5q72 -2 203 -4t219 -2q78 0 195 3t192 3q209 0 369 -54t264 -155q102 -100 150.5 -228t48.5 -282q0 -137 -43 -267t-143 -226q-106 -102 -253 -156.5t-393 -54.5 q-78 0 -193.5 3t-193.5 3q-88 0 -219 -2t-203 -4q-6 0 -11 16.5t-5 28.5q0 10 5 26.5t11 18.5q121 14 159 51t38 121v352z" />
<glyph unicode="&#x131;" horiz-adv-x="673" d="M690 35q0 -12 -5 -28.5t-11 -16.5q-63 0 -158.5 5t-167.5 5q-70 0 -153.5 -5t-145.5 -5q-6 0 -11 16.5t-5 28.5q0 10 5 26.5t11 18.5q76 8 107.5 41t31.5 131v307q0 82 -31.5 106.5t-107.5 32.5q-6 2 -11 17.5t-5 25.5t5 26.5t11 16.5q98 20 221 66.5t191 79.5 q6 4 20.5 10t24.5 6q25 0 36 -8t9 -18l-10 -175q-6 -102 -6 -172v-321q0 -96 32.5 -131t106.5 -41q6 0 11 -17.5t5 -27.5z" />
<glyph unicode="&#x152;" horiz-adv-x="2390" d="M2277 469q-14 -115 -27.5 -243t-19.5 -236q-129 4 -323.5 7t-313.5 3q-121 0 -336 -5t-333 -5q-213 0 -372 56t-263 155q-104 98 -153.5 224t-49.5 269q0 297 218 508t620 211q113 0 321.5 -5t327.5 -5q111 0 313.5 3t327.5 7q-4 -84 3 -217t11 -240q0 -8 -15 -17t-42 -9 q-14 0 -24.5 4t-10.5 8q-16 129 -107.5 245t-256.5 116h-123q-41 0 -80 -20.5t-39 -100.5v-424h69q102 0 165 61.5t73 161.5q0 6 17.5 11t27.5 5q14 0 29.5 -5t15.5 -11q0 -76 -5 -141.5t-5 -134.5q0 -72 5 -134.5t5 -136.5q0 -6 -15.5 -11t-29.5 -5q-10 0 -26.5 5t-18.5 11 q-12 106 -68.5 164.5t-169.5 58.5h-69v-436q0 -74 39 -97.5t80 -23.5h106q156 0 276.5 113t151.5 276q0 4 9.5 6.5t21.5 2.5q23 0 44 -8.5t19 -20.5zM1124 213v977q0 72 -42 97.5t-156 25.5q-207 0 -312.5 -168t-105.5 -451q0 -276 107.5 -440t310.5 -164q102 0 150 19.5 t48 103.5z" />
<glyph unicode="&#x153;" horiz-adv-x="1812" d="M1757 539q0 -14 -9 -22.5t-28 -8.5h-565q-2 -14 -3 -38t-1 -44q0 -172 57.5 -239.5t161.5 -67.5q74 0 166 37t133 92q2 4 13.5 -3t17.5 -14q10 -8 18 -20t8 -23q0 -4 -1 -8t-5 -8q-51 -74 -152.5 -143.5t-269.5 -69.5q-94 0 -180 41t-147 111q-66 -72 -150 -112t-213 -40 q-266 0 -404 145.5t-138 337.5q0 197 139 345.5t403 148.5q113 0 203 -38t154 -110q57 68 146 108t187 40q213 0 336 -114.5t123 -282.5zM1419 692q0 61 -28.5 104.5t-83.5 43.5q-63 0 -97 -63.5t-47 -174.5l168 4q47 2 67.5 17.5t20.5 68.5zM780 442q0 197 -33.5 297.5 t-138.5 100.5q-102 0 -137 -100.5t-35 -297.5t34 -291t138 -94t138 95t34 290z" />
<glyph unicode="&#x178;" horiz-adv-x="1595" d="M1364 1743q0 -76 -57 -133.5t-133 -57.5q-78 0 -134.5 57.5t-56.5 133.5t56.5 133t134.5 57q76 0 133 -57t57 -133zM848 1743q0 -76 -57 -133.5t-133 -57.5q-78 0 -134.5 57.5t-56.5 133.5t56.5 133t134.5 57q76 0 133 -57t57 -133zM1665 1368q0 -10 -8 -27.5t-15 -17.5 q-84 -8 -144 -47t-122 -125l-360 -522v-377q0 -82 30.5 -121t149.5 -51q6 0 11 -17.5t5 -27.5q0 -12 -5 -28.5t-11 -16.5q-100 0 -194.5 5t-188.5 5t-195.5 -5t-201.5 -5q-6 0 -11.5 15t-5.5 30q0 10 5.5 26.5t11.5 18.5q119 14 156.5 51t37.5 121v375l-331 524 q-55 86 -111.5 123t-169.5 49q-6 2 -11 18.5t-5 26.5q0 12 5 28.5t11 16.5q72 0 175 -5t183 -5q82 0 212 5t231 5q6 0 11 -15.5t5 -29.5q0 -10 -5 -27.5t-11 -17.5q-74 -8 -104.5 -27.5t-30.5 -46.5q0 -20 12 -44.5t31 -53.5l260 -403l270 403q16 25 26.5 46.5t10.5 41.5 q0 31 -28.5 52.5t-115.5 31.5q-6 2 -8 18.5t-2 26.5q0 14 5 29.5t12 15.5q88 0 145 -5t141 -5q63 0 116.5 5t109.5 5q6 0 11 -16.5t5 -28.5z" />
<glyph unicode="&#x2c6;" horiz-adv-x="819" d="M743 1149q0 -8 -7 -20.5t-15 -18.5t-16.5 -10t-14.5 -4t-14 3t-14 7l-252 156l-254 -156q-5 -3 -14 -6.5t-15 -3.5t-14 3.5t-17 10.5q-10 8 -16 19.5t-6 19.5q0 6 2.5 11.5t5.5 8.5l285 340q7 8 19.5 13.5t23.5 5.5q12 0 23 -5t18 -14l284 -340q3 -3 5.5 -8.5t2.5 -11.5z " />
<glyph unicode="&#x2da;" horiz-adv-x="819" d="M643 1178q0 -88 -63.5 -156t-169.5 -68q-102 0 -169 69t-67 155t66.5 153.5t169.5 67.5q100 0 166.5 -67.5t66.5 -153.5zM532 1178q0 57 -33.5 96t-88.5 39q-49 0 -86 -39t-37 -96q0 -59 34.5 -98.5t88.5 -39.5q53 0 87.5 39.5t34.5 98.5z" />
<glyph unicode="&#x2dc;" horiz-adv-x="819" d="M803 1450q-29 -184 -92.5 -244t-163.5 -51l-277 27q-66 6 -110.5 -25t-77.5 -90q-2 -4 -6 -6t-13 -2q-20 0 -39.5 14t-13.5 49q29 152 101.5 234.5t210.5 66.5l237 -26q74 -8 112 21.5t60 86.5q1 4 7.5 6t13.5 2q16 0 36 -16t15 -47z" />
<glyph unicode="&#x2000;" horiz-adv-x="994" />
<glyph unicode="&#x2001;" horiz-adv-x="1988" />
<glyph unicode="&#x2002;" horiz-adv-x="994" />
<glyph unicode="&#x2003;" horiz-adv-x="1988" />
<glyph unicode="&#x2004;" horiz-adv-x="662" />
<glyph unicode="&#x2005;" horiz-adv-x="496" />
<glyph unicode="&#x2006;" horiz-adv-x="330" />
<glyph unicode="&#x2007;" horiz-adv-x="330" />
<glyph unicode="&#x2008;" horiz-adv-x="247" />
<glyph unicode="&#x2009;" horiz-adv-x="397" />
<glyph unicode="&#x200a;" horiz-adv-x="109" />
<glyph unicode="&#x2010;" horiz-adv-x="843" d="M702 692q0 -41 -7 -64.5t-19 -23.5h-533q-12 0 -19 23.5t-7 64.5q0 39 7 63.5t19 24.5h533q12 0 19 -24.5t7 -63.5z" />
<glyph unicode="&#x2011;" horiz-adv-x="843" d="M702 692q0 -41 -7 -64.5t-19 -23.5h-533q-12 0 -19 23.5t-7 64.5q0 39 7 63.5t19 24.5h533q12 0 19 -24.5t7 -63.5z" />
<glyph unicode="&#x2012;" horiz-adv-x="843" d="M702 692q0 -41 -7 -64.5t-19 -23.5h-533q-12 0 -19 23.5t-7 64.5q0 39 7 63.5t19 24.5h533q12 0 19 -24.5t7 -63.5z" />
<glyph unicode="&#x2013;" horiz-adv-x="1185" d="M1178 692q0 -23 -6.5 -47t-18.5 -24h-1022q-12 0 -19.5 24.5t-7.5 46.5q0 25 7.5 48.5t17.5 23.5h1024q10 0 17.5 -23.5t7.5 -48.5z" />
<glyph unicode="&#x2014;" horiz-adv-x="2201" d="M2204 692q0 -23 -6.5 -47t-18.5 -24h-2046q-12 0 -19.5 24.5t-7.5 46.5q0 25 7.5 48.5t17.5 23.5h2048q10 0 17.5 -23.5t7.5 -48.5z" />
<glyph unicode="&#x2018;" horiz-adv-x="552" d="M100 981q0 156 82 273.5t228 201.5q6 4 20 -7t21 -19q6 -8 13 -26t1 -20q-59 -37 -114.5 -101t-55.5 -146q0 -25 3 -35t11 -10q6 0 13.5 3t17.5 3q59 0 104 -42t45 -132q0 -76 -52 -138.5t-134 -62.5q-92 0 -147.5 73.5t-55.5 184.5z" />
<glyph unicode="&#x2019;" horiz-adv-x="552" d="M479 1188q0 -156 -84 -275.5t-225 -199.5q-6 -2 -19.5 7t-21.5 19t-14 25.5t0 19.5q70 47 120 96.5t50 151.5q0 25 -3 35t-12 10q-6 0 -13 -3t-17 -3q-59 0 -104.5 42t-45.5 132q0 76 52.5 138.5t133.5 62.5q92 0 147.5 -73.5t55.5 -184.5z" />
<glyph unicode="&#x201a;" horiz-adv-x="614" d="M510 72q0 -156 -84 -276t-225 -199q-6 -2 -19.5 7t-21.5 19t-14.5 25.5t-0.5 19.5q70 47 120 96.5t50 151.5q0 25 -3 35t-11 10q-6 0 -13 -3t-18 -3q-59 0 -104 42t-45 132q0 76 52 138.5t134 62.5q92 0 147.5 -73.5t55.5 -184.5z" />
<glyph unicode="&#x201c;" horiz-adv-x="1026" d="M573 981q0 156 82 273.5t228 201.5q6 4 20.5 -7t20.5 -19t13 -26t1 -20q-59 -37 -114.5 -101t-55.5 -146q0 -25 3 -35t11 -10q6 0 13.5 3t17.5 3q59 0 104.5 -42t45.5 -132q0 -76 -52.5 -138.5t-134.5 -62.5q-92 0 -147.5 73.5t-55.5 184.5zM100 981q0 156 82 273.5 t228 201.5q6 4 20 -7t21 -19q6 -8 13 -26t1 -20q-59 -37 -114.5 -101t-55.5 -146q0 -25 3 -35t11 -10q6 0 13.5 3t17.5 3q59 0 104 -42t45 -132q0 -76 -52 -138.5t-134 -62.5q-92 0 -147.5 73.5t-55.5 184.5z" />
<glyph unicode="&#x201d;" horiz-adv-x="1026" d="M479 1188q0 -156 -84 -275.5t-225 -199.5q-6 -2 -19.5 7t-21.5 19t-14 25.5t0 19.5q70 47 120 96.5t50 151.5q0 25 -3 35t-12 10q-6 0 -13 -3t-17 -3q-59 0 -104.5 42t-45.5 132q0 76 52.5 138.5t133.5 62.5q92 0 147.5 -73.5t55.5 -184.5zM952 1188q0 -156 -84 -275.5 t-225 -199.5q-6 -2 -19.5 7t-21.5 19t-14 25.5t0 19.5q70 47 120 96.5t50 151.5q0 25 -3 35t-12 10q-6 0 -13 -3t-17 -3q-59 0 -104.5 42t-45.5 132q0 76 52.5 138.5t134.5 62.5q92 0 147 -73.5t55 -184.5z" />
<glyph unicode="&#x201e;" horiz-adv-x="1056" d="M510 72q0 -156 -84 -276t-225 -199q-6 -2 -19.5 7t-21.5 19t-14.5 25.5t-0.5 19.5q70 47 120 96.5t50 151.5q0 25 -3 35t-11 10q-6 0 -13 -3t-18 -3q-59 0 -104 42t-45 132q0 76 52 138.5t134 62.5q92 0 147.5 -73.5t55.5 -184.5zM983 72q0 -156 -84 -276t-225 -199 q-6 -2 -19.5 7t-21.5 19t-14.5 25.5t-0.5 19.5q70 47 120 96.5t50 151.5q0 25 -3 35t-11 10q-6 0 -13 -3t-18 -3q-59 0 -104 42t-45 132q0 76 52 138.5t134 62.5q92 0 147.5 -73.5t55.5 -184.5z" />
<glyph unicode="&#x2022;" horiz-adv-x="768" d="M715 694q0 -137 -96.5 -233t-233.5 -96t-234.5 97t-97.5 232q0 137 97.5 234.5t234.5 97.5q135 0 232.5 -97.5t97.5 -234.5z" />
<glyph unicode="&#x2026;" horiz-adv-x="1806" d="M487 143q0 -76 -54 -131t-132 -55q-76 0 -131 55.5t-55 130.5q0 76 55 131.5t131 55.5q78 0 132 -55.5t54 -131.5zM1090 143q0 -76 -54.5 -131t-132.5 -55q-76 0 -131 55.5t-55 130.5q0 76 55 131.5t131 55.5q78 0 132.5 -55.5t54.5 -131.5zM1692 143q0 -76 -54.5 -131 t-132.5 -55q-76 0 -131 55.5t-55 130.5q0 76 55.5 131.5t130.5 55.5q78 0 132.5 -55.5t54.5 -131.5z" />
<glyph unicode="&#x202f;" horiz-adv-x="397" />
<glyph unicode="&#x2039;" horiz-adv-x="602" d="M506 125q4 -10 -2 -26.5t-17 -24.5l-21 -16q-7 -5 -22 -5q-2 0 -5 1l-3 1l-332 328q-4 4 -9 15.5t-5 21.5q0 8 6 20l8 17l332 325l3 2q3 2 5 2q12 0 22.5 -7t20.5 -15q8 -6 16.5 -23.5t2.5 -27.5l-129 -293z" />
<glyph unicode="&#x203a;" horiz-adv-x="602" d="M551 420q0 -10 -5 -22.5t-9 -14.5l-332 -328l-3 -1q-3 -1 -5 -1q-10 0 -20.5 5t-22.5 16q-12 12 -17.5 26.5t-1.5 24.5l129 295l-129 293q-6 10 2 26.5t17 24.5q14 12 23 17t20 5q2 0 5 -2l3 -2l332 -325l8 -17q6 -12 6 -20z" />
<glyph unicode="&#x2044;" horiz-adv-x="94" d="M565 1421l-956 -1464q-6 -10 -17.5 -8t-25.5 12q-16 8 -21.5 17.5t-1.5 19.5l959 1466q4 10 17 7t26 -11q14 -8 21 -17.5t-1 -21.5z" />
<glyph unicode="&#x205f;" horiz-adv-x="496" />
<glyph unicode="&#x20ac;" horiz-adv-x="1642" d="M1552 446l-12 -92l-16 -114l-14 -116q-7 -56 -11 -93q-44 0 -96.5 -11.5l-112.5 -25.5t-126 -25.5t-136 -11.5q-156 0 -277.5 34t-212.5 92.5t-151.5 138t-95.5 169.5l-170 -2q-14 0 -20.5 21.5t-6.5 48.5q0 25 7 46t18 21l137 -2q-6 49 -6 101q0 22 1.5 45t4.5 45 l-135 -2q-11 0 -19 20.5t-8 46.5q0 25 8 47.5t17 22.5l172 -2q36 97 101.5 180.5t160 145t217.5 96.5t274 35q75 0 136.5 -8t114.5 -17l100 -17q46 -8 90 -8q2 -41 5 -96.5t7 -114.5l8 -112q4 -54 8 -92q0 -4 -5 -7t-12.5 -4.5t-16 -2.5t-13.5 -1q-11 0 -24.5 2.5 t-16.5 12.5q-11 66 -46.5 131.5t-87.5 119t-117 86.5t-138 33q-85 0 -147.5 -25.5t-106.5 -73t-71 -115t-41 -150.5l409 4q8 0 16.5 -21.5t8.5 -48.5q0 -11 -1.5 -23.5t-4.5 -22t-8 -15.5t-11 -6l-424 2q-2 -22 -2 -44v-46v-52q0 -25 2 -49l424 2q5 0 9.5 -6t8 -15.5 t5.5 -22t2 -23.5q0 -10 -1 -22t-4 -23t-8 -18t-12 -7l-405 2q15 -77 41.5 -139.5t69 -106.5t102.5 -68t141 -24q87 0 156 33.5t123 88.5t93.5 126t65.5 145q3 8 16.5 11.5t24.5 3.5t27 -4.5t18 -10.5z" />
<glyph unicode="&#x2122;" horiz-adv-x="2420" d="M2304 643q0 -6 -3 -19.5t-5 -13.5q-57 0 -118.5 4t-113.5 4q-51 0 -111.5 -4t-113.5 -4q-4 0 -7 13.5t-3 19.5q0 8 3 20.5t5 14.5q66 10 80 34.5t8 88.5l-24 391l-244 -592q-2 -6 -14.5 -9t-28.5 -3t-28.5 4t-14.5 8l-260 582l-25 -381q-6 -61 12.5 -87t98.5 -36 q4 0 6 -13.5t2 -21.5q0 -6 -4 -19.5t-6 -13.5q-43 0 -80 4t-76 4q-41 0 -90 -4t-86 -4q-4 0 -6 13.5t-2 19.5q0 8 3 20.5t7 14.5q78 12 101.5 31.5t27.5 91.5l37 422q4 59 -18.5 85.5t-90.5 37.5q-2 0 -5 13t-3 19q0 8 4 21.5t8 13.5q33 0 95.5 -5t91.5 -5q33 0 87 5t93 5 l213 -465l197 461q31 4 91 -1t97 -5q35 0 88 5t88 5q4 0 7 -13.5t3 -21.5q0 -6 -3 -19t-5 -13q-70 -8 -85 -33t-13 -76l29 -436q4 -68 21 -92.5t73 -30.5q4 0 7 -13.5t3 -21.5zM1024 1108q0 -6 -11.5 -12t-25.5 -6q-6 0 -16 3t-10 5q-29 84 -91.5 158.5t-109.5 74.5 q-33 0 -41 -13t-8 -42v-475q0 -70 17 -92.5t91 -30.5q2 0 6 -13.5t4 -21.5q0 -6 -4 -19.5t-6 -13.5q-57 0 -119.5 4t-128.5 4t-129 -4t-118 -4q-4 0 -7.5 13.5t-3.5 19.5q0 8 3 20.5t8 14.5q74 10 90 31.5t16 91.5v475q0 35 -8 45t-39 10q-43 0 -112.5 -76.5t-100.5 -156.5 q-4 -4 -13.5 -6t-15.5 -2q-10 0 -23.5 6t-13.5 12l26 162q11 70 20 153q47 -8 118.5 -14t302.5 -6q186 0 289 6t141 14q0 -61 9 -153z" />
<glyph unicode="&#xe000;" horiz-adv-x="905" d="M0 905h905v-905h-905v905z" />
<glyph unicode="&#xfb01;" horiz-adv-x="1353" d="M1370 35q0 -12 -5 -28.5t-11 -16.5q-63 0 -158.5 5t-167.5 5t-129 -5t-121 -5q-6 0 -11 16.5t-5 28.5q0 10 5 26.5t11 18.5q45 6 67.5 32.5t22.5 114.5v400q0 63 -25.5 84.5t-88.5 21.5h-203v-506q0 -78 24.5 -109.5t81.5 -37.5q6 0 11.5 -17.5t5.5 -27.5q0 -12 -5 -28.5 t-12 -16.5q-63 0 -135.5 5t-144.5 5q-70 0 -160 -5t-151 -5q-6 0 -11.5 15t-5.5 30q0 10 5 26.5t12 18.5q90 10 114.5 40t24.5 132v473q0 10 -6 19.5t-19 9.5h-114q-8 0 -14.5 17t-6.5 26q0 8 6 26.5t12 20.5q33 8 87.5 24.5t54.5 32.5q0 213 193.5 395.5t435.5 182.5 q158 0 260 -72t102 -160q0 -70 -40 -119t-132 -49q-61 0 -93 39t-54 84q-20 41 -51 83t-72 42q-90 0 -144.5 -88t-54.5 -242v-129h166q80 0 227.5 15.5t192.5 46.5q12 8 24.5 11t20.5 3q12 0 28.5 -4t16.5 -10q-6 -80 -11.5 -187.5t-5.5 -171.5v-319q0 -96 33 -131t107 -41 q6 0 11 -17.5t5 -27.5z" />
<glyph unicode="&#xfb02;" horiz-adv-x="1355" d="M1370 35q0 -12 -5 -28.5t-11 -16.5q-63 0 -158.5 5t-167.5 5t-129 -5t-121 -5q-6 0 -11 16.5t-5 28.5q0 10 5 26.5t11 18.5q45 6 67.5 32.5t22.5 114.5v506h-317v-506q0 -78 24.5 -109.5t81.5 -37.5q6 0 11.5 -17.5t5.5 -27.5q0 -12 -5 -28.5t-12 -16.5q-63 0 -135.5 5 t-144.5 5q-70 0 -160 -5t-151 -5q-6 0 -11.5 15t-5.5 30q0 10 5 26.5t12 18.5q90 10 114.5 40t24.5 132v473q0 10 -6 19.5t-19 9.5h-114q-8 0 -14.5 17t-6.5 26q0 8 6 26.5t12 20.5q33 8 87.5 24.5t54.5 32.5q0 213 193.5 395.5t435.5 182.5q66 0 110.5 -13.5t91.5 -42.5 l57 25q34 14 48 22q6 4 20.5 10.5t24.5 6.5q25 0 36 -9.5t9 -17.5l-10 -176q-6 -104 -7 -170v-862q0 -96 33 -131t107 -41q6 0 11 -17.5t5 -27.5zM868 868v287q0 78 -46 125t-117 47q-78 0 -114 -60.5t-36 -187.5v-211h313z" />
<glyph unicode="&#xfb03;" horiz-adv-x="2017" d="M2034 35q0 -12 -5.5 -28.5t-11.5 -16.5q-63 0 -158.5 5t-164.5 5q-72 0 -131.5 -5t-120.5 -5q-6 0 -11.5 16.5t-5.5 28.5q0 10 5.5 26.5t11.5 18.5q45 6 67.5 32.5t22.5 114.5v400q0 63 -25.5 84.5t-89.5 21.5h-203v-506q0 -78 25 -109.5t82 -37.5q6 0 11 -17.5t5 -27.5 q0 -12 -5 -28.5t-11 -16.5q-63 0 -136 5t-143 5q-72 0 -137 -5t-127 -5q-6 0 -11 16.5t-5 28.5q0 10 5 26.5t11 18.5q45 6 67.5 32.5t22.5 114.5v506h-317v-506q0 -78 24.5 -109.5t81.5 -37.5q6 0 11.5 -17.5t5.5 -27.5q0 -12 -5 -28.5t-12 -16.5q-63 0 -135.5 5t-142.5 5 q-72 0 -162 -5t-151 -5q-6 0 -11.5 16.5t-5.5 28.5q0 10 5 26.5t12 18.5q90 10 114.5 40t24.5 132v473q0 10 -6 19.5t-19 9.5h-112q-10 0 -15.5 17t-5.5 26q0 8 5 26.5t11 20.5q33 8 87.5 24.5t54.5 32.5q0 193 193.5 369t437.5 176q96 0 165.5 -24.5t114.5 -59.5q0 -2 4 -5 t6 -5q80 59 177.5 93t195.5 34q156 0 258.5 -72t102.5 -160q0 -70 -40 -119t-132 -49q-61 0 -93 39t-55 84q-20 41 -51 83t-72 42q-90 0 -144 -88t-54 -242v-129h165q80 0 228.5 15.5t191.5 46.5q12 8 24.5 11t20.5 3q12 0 28.5 -4t16.5 -10q-6 -80 -11 -187.5t-5 -171.5 v-319q0 -96 33 -131t106 -41q6 0 11.5 -17.5t5.5 -27.5zM922 1116q-29 70 -88.5 116t-118.5 46q-78 0 -119 -60.5t-41 -203.5v-146h313v33q0 74 17 121t37 94z" />
<glyph unicode="&#xfb04;" horiz-adv-x="2019" d="M2034 35q0 -12 -5.5 -28.5t-11.5 -16.5q-63 0 -158.5 5t-164.5 5q-72 0 -131.5 -5t-120.5 -5q-6 0 -11.5 16.5t-5.5 28.5q0 10 5.5 26.5t11.5 18.5q45 6 67.5 32.5t22.5 114.5v506h-318v-506q0 -78 25 -109.5t82 -37.5q6 0 11 -17.5t5 -27.5q0 -12 -5 -28.5t-11 -16.5 q-63 0 -136 5t-143 5q-72 0 -137 -5t-127 -5q-6 0 -11 16.5t-5 28.5q0 10 5 26.5t11 18.5q45 6 67.5 32.5t22.5 114.5v506h-317v-506q0 -78 24.5 -109.5t81.5 -37.5q6 0 11.5 -17.5t5.5 -27.5q0 -12 -5 -28.5t-12 -16.5q-63 0 -135.5 5t-142.5 5q-72 0 -162 -5t-151 -5 q-6 0 -11.5 16.5t-5.5 28.5q0 10 5 26.5t12 18.5q90 10 114.5 40t24.5 132v473q0 10 -6 19.5t-19 9.5h-112q-10 0 -15.5 17t-5.5 26q0 8 5 26.5t11 20.5q33 8 87.5 24.5t54.5 32.5q0 193 193.5 369t437.5 176q96 0 165.5 -24.5t114.5 -59.5q0 -2 4 -5t6 -5q80 59 177.5 93 t195.5 34q61 0 107.5 -13.5t93.5 -42.5l56 25q34 14 48 22q6 4 20.5 10.5t24.5 6.5q25 0 36 -9.5t9 -17.5l-10 -176q-6 -104 -6 -170v-862q0 -96 33 -131t106 -41q6 0 11.5 -17.5t5.5 -27.5zM1532 868v287q0 78 -46 125t-118 47q-78 0 -113.5 -60.5t-35.5 -187.5v-211h313z M922 1116q-29 70 -88.5 116t-118.5 46q-78 0 -119 -60.5t-41 -203.5v-146h313v33q0 74 17 121t37 94z" />
<glyph horiz-adv-x="921" d="M737 1597q0 -12 -5 -23t-9 -18q-8 -8 -22.5 -16t-20.5 -8h-8q-2 0 -4 2l-404 192q-25 10 -37 34t-12 50q0 31 10.5 58.5t26.5 52.5q16 23 58 45.5t73 22.5q18 0 35.5 -6.5t27.5 -20.5l285 -346q2 -2 4 -8.5t2 -10.5z" />
<glyph horiz-adv-x="921" d="M819 1812q0 -25 -10 -48t-35 -35l-405 -195q-2 0 -5.5 -1t-7.5 -1q-6 0 -20 7t-23 17q-4 6 -9 17.5t-5 21.5q0 4 2 10.5t4 10.5l291 346q8 12 26.5 19.5t34.5 7.5q33 0 70 -20.5t57 -47.5q18 -25 26.5 -54.5t8.5 -54.5z" />
<glyph horiz-adv-x="921" d="M909 1743q0 -76 -57 -133.5t-133 -57.5q-78 0 -134.5 57.5t-56.5 133.5t56.5 133t134.5 57q76 0 133 -57t57 -133zM393 1743q0 -76 -57 -133.5t-133 -57.5q-78 0 -134.5 57.5t-56.5 133.5t56.5 133t134.5 57q76 0 133 -57t57 -133z" />
<glyph horiz-adv-x="921" d="M877 1589q0 -10 -7.5 -22.5t-15.5 -18.5t-16.5 -10t-16.5 -4t-15 3t-13 7l-332 146l-332 -146q-6 -2 -14.5 -6t-14.5 -4q-8 0 -16 3t-18 11t-16.5 19.5t-6.5 21.5q0 4 3 10l5 11l365 340q6 8 19.5 14t25.5 6q16 0 26.5 -6t16.5 -14l364 -340q2 -2 5.5 -9.5t3.5 -11.5z " />
<glyph horiz-adv-x="921" d="M913 1980q12 -6 23.5 -23.5t7.5 -37.5q-29 -186 -95.5 -256t-174.5 -53l-406 57q-61 8 -109 -18.5t-89 -102.5q-10 -18 -47 -5t-29 63q33 168 113.5 253t214.5 64l366 -57q63 -8 107.5 17.5t72.5 94.5q4 8 17.5 9t27.5 -5z" />
<glyph horiz-adv-x="647" d="M618 39q0 -12 -5 -28.5t-11 -16.5q-51 0 -129 3t-133 3q-51 0 -132 -3t-126 -3q-6 0 -11 15.5t-5 29.5t4 28.5t12 16.5q72 6 102.5 23.5t30.5 78.5v394q0 61 -14.5 83.5t-83.5 22.5q-6 0 -17.5 -1t-17.5 -1t-11 13.5t-5 27.5t4 28.5t12 16.5q68 18 171 36.5t165 49.5 q8 4 19.5 7t17.5 3t13 -6t7 -16q0 -37 -6 -96.5t-6 -104.5v-457q0 -59 34.5 -78.5t104.5 -23.5q8 0 12 -16.5t4 -28.5z" />
<glyph horiz-adv-x="804" d="M754 238l-2 -9q-16 -27 -53 -110.5t-54 -126.5q-31 6 -112.5 7t-182.5 1q-100 0 -193.5 -1t-119.5 -5q-6 0 -15.5 22.5t-9.5 28.5q0 2 1 5l1 3q215 174 308.5 285t93.5 235q0 57 -29 92t-78 35q-57 0 -96 -23.5t-78 -90.5q-2 -2 -6 -4t-6 -2q-10 0 -38 20.5t-28 26.5l2 6 q47 109 127 169t185 60q141 0 222 -72.5t81 -189.5q0 -106 -90 -204.5t-299 -223.5h276q43 0 74 34t49 70q0 2 5 4.5t11 2.5q18 0 36 -14.5t18 -30.5z" />
<glyph horiz-adv-x="749" d="M686 254q0 -131 -137 -247t-313 -116q-133 0 -180.5 46.5t-47.5 87.5q0 39 23.5 69.5t77.5 30.5q29 0 48 -22.5t31 -45.5q16 -27 34 -46t54 -19q90 0 129 47t39 158q0 72 -28.5 116.5t-108.5 44.5q-35 0 -55.5 -4t-34.5 -10q-6 0 -15 9t-16 24q-6 12 -7 26.5t3 18.5 q117 45 154 88t37 121q0 51 -21.5 76.5t-64.5 25.5q-39 0 -66.5 -15.5t-60.5 -64.5q-4 -6 -19.5 -2t-27.5 15q-12 10 -20.5 22t-6.5 17q45 70 113.5 113.5t167.5 43.5q111 0 183.5 -56t72.5 -138q0 -59 -50.5 -112.5t-166.5 -92.5q127 8 203.5 -52.5t76.5 -156.5z" />
</font>
</defs>
</svg>
